CrimsonPro-W500.ufo
<glyph name="exclam" format="2">
  <advance width="285.0"/>
  <unicode hex="0021"/>
  <note>
exclam
</note>
  <outline>
    <contour>
      <point x="117.0" y="211.0" type="line"/>
      <point x="168.0" y="211.0" type="line"/>
      <point x="218.0" y="576.0" type="line" smooth="yes"/>
      <point x="228.0" y="650.0"/>
      <point x="197.0" y="698.0"/>
      <point x="142.0" y="698.0" type="curve" smooth="yes"/>
      <point x="88.0" y="698.0"/>
      <point x="57.0" y="650.0"/>
      <point x="67.0" y="576.0" type="curve" smooth="yes"/>
    </contour>
    <contour>
      <point x="142.0" y="-10.0" type="curve" smooth="yes"/>
      <point x="190.0" y="-10.0"/>
      <point x="226.0" y="25.0"/>
      <point x="226.0" y="71.0" type="curve" smooth="yes"/>
      <point x="226.0" y="117.0"/>
      <point x="190.0" y="153.0"/>
      <point x="142.0" y="153.0" type="curve" smooth="yes"/>
      <point x="96.0" y="153.0"/>
      <point x="60.0" y="117.0"/>
      <point x="60.0" y="71.0" type="curve" smooth="yes"/>
      <point x="60.0" y="25.0"/>
      <point x="96.0" y="-10.0"/>
    </contour>
  </outline>
</glyph>
<glyph name="numbersign" format="2">
  <advance width="532.0"/>
  <unicode hex="0023"/>
  <note>
numbersign
</note>
  <outline>
    <contour>
      <point x="258.0" y="0.0" type="line"/>
      <point x="321.0" y="0.0" type="line"/>
      <point x="444.0" y="587.0" type="line"/>
      <point x="381.0" y="587.0" type="line"/>
    </contour>
    <contour>
      <point x="34.0" y="166.0" type="line"/>
      <point x="479.0" y="166.0" type="line"/>
      <point x="479.0" y="225.0" type="line"/>
      <point x="34.0" y="225.0" type="line"/>
    </contour>
    <contour>
      <point x="88.0" y="0.0" type="line"/>
      <point x="149.0" y="0.0" type="line"/>
      <point x="272.0" y="587.0" type="line"/>
      <point x="211.0" y="587.0" type="line"/>
    </contour>
    <contour>
      <point x="52.0" y="362.0" type="line"/>
      <point x="497.0" y="362.0" type="line"/>
      <point x="497.0" y="421.0" type="line"/>
      <point x="52.0" y="421.0" type="line"/>
    </contour>
  </outline>
</glyph>
<glyph name="ampersand" format="2">
  <advance width="755.0"/>
  <unicode hex="0026"/>
  <note>
ampersand
</note>
  <outline>
    <contour>
      <point x="258.0" y="-9.0" type="curve" smooth="yes"/>
      <point x="424.0" y="-9.0"/>
      <point x="544.0" y="88.0"/>
      <point x="639.0" y="282.0" type="curve"/>
      <point x="709.0" y="293.0" type="line"/>
      <point x="706.0" y="339.0" type="line"/>
      <point x="482.0" y="338.0" type="line"/>
      <point x="479.0" y="292.0" type="line"/>
      <point x="549.0" y="282.0" type="line"/>
      <point x="495.0" y="129.0"/>
      <point x="414.0" y="66.0"/>
      <point x="296.0" y="66.0" type="curve" smooth="yes"/>
      <point x="204.0" y="66.0"/>
      <point x="158.0" y="112.0"/>
      <point x="158.0" y="173.0" type="curve" smooth="yes"/>
      <point x="158.0" y="227.0"/>
      <point x="189.0" y="274.0"/>
      <point x="277.0" y="315.0" type="curve"/>
      <point x="424.0" y="382.0"/>
      <point x="486.0" y="449.0"/>
      <point x="486.0" y="533.0" type="curve" smooth="yes"/>
      <point x="486.0" y="617.0"/>
      <point x="427.0" y="668.0"/>
      <point x="332.0" y="668.0" type="curve" smooth="yes"/>
      <point x="224.0" y="668.0"/>
      <point x="144.0" y="590.0"/>
      <point x="144.0" y="482.0" type="curve" smooth="yes"/>
      <point x="144.0" y="409.0"/>
      <point x="174.0" y="342.0"/>
      <point x="275.0" y="206.0" type="curve" smooth="yes"/>
      <point x="380.0" y="63.0"/>
      <point x="468.0" y="-9.0"/>
      <point x="599.0" y="-9.0" type="curve" smooth="yes"/>
      <point x="670.0" y="-9.0"/>
      <point x="731.0" y="20.0"/>
      <point x="769.0" y="72.0" type="curve"/>
      <point x="741.0" y="104.0" type="line"/>
      <point x="710.0" y="81.0"/>
      <point x="677.0" y="69.0"/>
      <point x="643.0" y="69.0" type="curve" smooth="yes"/>
      <point x="550.0" y="69.0"/>
      <point x="481.0" y="131.0"/>
      <point x="387.0" y="254.0" type="curve" smooth="yes"/>
      <point x="284.0" y="386.0"/>
      <point x="253.0" y="450.0"/>
      <point x="253.0" y="521.0" type="curve" smooth="yes"/>
      <point x="253.0" y="581.0"/>
      <point x="285.0" y="614.0"/>
      <point x="326.0" y="614.0" type="curve" smooth="yes"/>
      <point x="361.0" y="614.0"/>
      <point x="388.0" y="588.0"/>
      <point x="388.0" y="537.0" type="curve" smooth="yes"/>
      <point x="388.0" y="464.0"/>
      <point x="355.0" y="416.0"/>
      <point x="240.0" y="353.0" type="curve"/>
      <point x="100.0" y="306.0"/>
      <point x="32.0" y="233.0"/>
      <point x="32.0" y="152.0" type="curve" smooth="yes"/>
      <point x="32.0" y="64.0"/>
      <point x="107.0" y="-9.0"/>
    </contour>
  </outline>
</glyph>
<glyph name="comma" format="2">
  <advance width="268.0"/>
  <unicode hex="002C"/>
  <note>
comma
</note>
  <outline>
    <contour>
      <point x="46.0" y="-199.0" type="line"/>
      <point x="161.0" y="-153.0"/>
      <point x="223.0" y="-62.0"/>
      <point x="223.0" y="36.0" type="curve" smooth="yes"/>
      <point x="223.0" y="120.0"/>
      <point x="176.0" y="153.0"/>
      <point x="132.0" y="153.0" type="curve" smooth="yes"/>
      <point x="86.0" y="153.0"/>
      <point x="52.0" y="120.0"/>
      <point x="52.0" y="80.0" type="curve" smooth="yes"/>
      <point x="52.0" y="10.0"/>
      <point x="127.0" y="15.0"/>
      <point x="127.0" y="-50.0" type="curve" smooth="yes"/>
      <point x="127.0" y="-95.0"/>
      <point x="98.0" y="-132.0"/>
      <point x="29.0" y="-162.0" type="curve"/>
    </contour>
  </outline>
</glyph>
<glyph name="slash" format="2">
  <advance width="399.0"/>
  <unicode hex="002F"/>
  <note>
slash
</note>
  <outline>
    <contour>
      <point x="27.0" y="-180.0" type="line"/>
      <point x="111.0" y="-180.0" type="line"/>
      <point x="412.0" y="728.0" type="line"/>
      <point x="328.0" y="728.0" type="line"/>
    </contour>
  </outline>
</glyph>
<glyph name="one" format="2">
  <advance width="366.0"/>
  <unicode hex="0031"/>
  <note>
one
</note>
  <outline>
    <contour>
      <point x="254.0" y="213.0" type="curve" smooth="yes"/>
      <point x="254.0" y="371.0" type="line" smooth="yes"/>
      <point x="254.0" y="471.0"/>
      <point x="257.0" y="547.0"/>
      <point x="261.0" y="599.0" type="curve"/>
      <point x="36.0" y="510.0" type="line"/>
      <point x="39.0" y="455.0" type="line"/>
      <point x="131.0" y="474.0" type="line"/>
      <point x="134.0" y="450.0"/>
      <point x="136.0" y="398.0"/>
      <point x="136.0" y="350.0" type="curve" smooth="yes"/>
      <point x="136.0" y="213.0" type="line" smooth="yes"/>
      <point x="136.0" y="139.0"/>
      <point x="133.0" y="72.0"/>
      <point x="131.0" y="61.0" type="curve"/>
      <point x="48.0" y="46.0" type="line"/>
      <point x="51.0" y="0.0" type="line"/>
      <point x="341.0" y="0.0" type="line"/>
      <point x="344.0" y="46.0" type="line"/>
      <point x="261.0" y="61.0" type="line"/>
      <point x="257.0" y="70.0"/>
      <point x="254.0" y="131.0"/>
    </contour>
  </outline>
</glyph>
<glyph name="six" format="2">
  <advance width="544.0"/>
  <unicode hex="0036"/>
  <note>
six
</note>
  <outline>
    <contour>
      <point x="163.0" y="256.0" type="curve"/>
      <point x="164.0" y="210.0" type="line"/>
      <point x="186.0" y="244.0"/>
      <point x="228.0" y="273.0"/>
      <point x="274.0" y="273.0" type="curve" smooth="yes"/>
      <point x="332.0" y="273.0"/>
      <point x="370.0" y="227.0"/>
      <point x="370.0" y="155.0" type="curve" smooth="yes"/>
      <point x="370.0" y="94.0"/>
      <point x="336.0" y="48.0"/>
      <point x="286.0" y="48.0" type="curve" smooth="yes"/>
      <point x="226.0" y="48.0"/>
      <point x="184.0" y="119.0"/>
      <point x="184.0" y="215.0" type="curve" smooth="yes"/>
      <point x="184.0" y="400.0"/>
      <point x="270.0" y="505.0"/>
      <point x="453.0" y="549.0" type="curve"/>
      <point x="436.0" y="605.0" type="line"/>
      <point x="200.0" y="579.0"/>
      <point x="59.0" y="412.0"/>
      <point x="59.0" y="224.0" type="curve" smooth="yes"/>
      <point x="59.0" y="90.0"/>
      <point x="147.0" y="-9.0"/>
      <point x="277.0" y="-9.0" type="curve" smooth="yes"/>
      <point x="397.0" y="-9.0"/>
      <point x="489.0" y="79.0"/>
      <point x="489.0" y="190.0" type="curve" smooth="yes"/>
      <point x="489.0" y="286.0"/>
      <point x="415.0" y="360.0"/>
      <point x="320.0" y="360.0" type="curve" smooth="yes"/>
      <point x="264.0" y="360.0"/>
      <point x="204.0" y="317.0"/>
    </contour>
  </outline>
</glyph>
<glyph name="seven" format="2">
  <advance width="486.0"/>
  <unicode hex="0037"/>
  <note>
seven
</note>
  <outline>
    <contour>
      <point x="240.0" y="0.0" type="line"/>
      <point x="459.0" y="543.0" type="line"/>
      <point x="455.0" y="588.0" type="line"/>
      <point x="430.0" y="588.0"/>
      <point x="403.0" y="587.0"/>
      <point x="381.0" y="587.0" type="curve" smooth="yes"/>
      <point x="184.0" y="587.0" type="line" smooth="yes"/>
      <point x="148.0" y="587.0"/>
      <point x="97.0" y="588.0"/>
      <point x="58.0" y="590.0" type="curve"/>
      <point x="37.0" y="413.0" type="line"/>
      <point x="91.0" y="408.0" type="line"/>
      <point x="113.0" y="480.0" type="line"/>
      <point x="126.0" y="482.0"/>
      <point x="147.0" y="483.0"/>
      <point x="161.0" y="483.0" type="curve" smooth="yes"/>
      <point x="389.0" y="483.0" type="line"/>
      <point x="389.0" y="523.0" type="line"/>
      <point x="141.0" y="36.0" type="line"/>
      <point x="141.0" y="0.0" type="line"/>
    </contour>
  </outline>
</glyph>
<glyph name="eight" format="2">
  <advance width="579.0"/>
  <unicode hex="0038"/>
  <note>
eight
</note>
  <outline>
    <contour>
      <point x="282.0" y="-9.0" type="curve" smooth="yes"/>
      <point x="424.0" y="-9.0"/>
      <point x="520.0" y="61.0"/>
      <point x="520.0" y="166.0" type="curve" smooth="yes"/>
      <point x="520.0" y="354.0"/>
      <point x="200.0" y="315.0"/>
      <point x="200.0" y="461.0" type="curve" smooth="yes"/>
      <point x="200.0" y="509.0"/>
      <point x="237.0" y="539.0"/>
      <point x="289.0" y="539.0" type="curve" smooth="yes"/>
      <point x="349.0" y="539.0"/>
      <point x="385.0" y="499.0"/>
      <point x="385.0" y="435.0" type="curve" smooth="yes"/>
      <point x="385.0" y="386.0"/>
      <point x="371.0" y="351.0"/>
      <point x="335.0" y="306.0" type="curve"/>
      <point x="350.0" y="294.0" type="line"/>
      <point x="445.0" y="317.0"/>
      <point x="497.0" y="370.0"/>
      <point x="497.0" y="444.0" type="curve" smooth="yes"/>
      <point x="497.0" y="532.0"/>
      <point x="424.0" y="596.0"/>
      <point x="300.0" y="596.0" type="curve" smooth="yes"/>
      <point x="170.0" y="596.0"/>
      <point x="81.0" y="527.0"/>
      <point x="81.0" y="430.0" type="curve" smooth="yes"/>
      <point x="81.0" y="227.0"/>
      <point x="400.0" y="269.0"/>
      <point x="400.0" y="131.0" type="curve" smooth="yes"/>
      <point x="400.0" y="85.0"/>
      <point x="360.0" y="55.0"/>
      <point x="298.0" y="55.0" type="curve" smooth="yes"/>
      <point x="224.0" y="55.0"/>
      <point x="178.0" y="94.0"/>
      <point x="178.0" y="156.0" type="curve" smooth="yes"/>
      <point x="178.0" y="199.0"/>
      <point x="197.0" y="236.0"/>
      <point x="246.0" y="278.0" type="curve"/>
      <point x="228.0" y="298.0" type="line"/>
      <point x="120.0" y="276.0"/>
      <point x="58.0" y="224.0"/>
      <point x="58.0" y="147.0" type="curve" smooth="yes"/>
      <point x="58.0" y="57.0"/>
      <point x="146.0" y="-9.0"/>
    </contour>
  </outline>
</glyph>
<glyph name="nine" format="2">
  <advance width="544.0"/>
  <unicode hex="0039"/>
  <note>
nine
</note>
  <outline>
    <contour>
      <point x="382.0" y="331.0" type="curve"/>
      <point x="382.0" y="377.0" type="line"/>
      <point x="360.0" y="343.0"/>
      <point x="318.0" y="314.0"/>
      <point x="272.0" y="314.0" type="curve" smooth="yes"/>
      <point x="214.0" y="314.0"/>
      <point x="176.0" y="360.0"/>
      <point x="176.0" y="432.0" type="curve" smooth="yes"/>
      <point x="176.0" y="493.0"/>
      <point x="210.0" y="539.0"/>
      <point x="260.0" y="539.0" type="curve" smooth="yes"/>
      <point x="319.0" y="539.0"/>
      <point x="362.0" y="468.0"/>
      <point x="362.0" y="372.0" type="curve" smooth="yes"/>
      <point x="362.0" y="188.0"/>
      <point x="276.0" y="83.0"/>
      <point x="92.0" y="39.0" type="curve"/>
      <point x="109.0" y="-17.0" type="line"/>
      <point x="344.0" y="9.0"/>
      <point x="487.0" y="176.0"/>
      <point x="487.0" y="363.0" type="curve" smooth="yes"/>
      <point x="487.0" y="497.0"/>
      <point x="399.0" y="596.0"/>
      <point x="268.0" y="596.0" type="curve" smooth="yes"/>
      <point x="149.0" y="596.0"/>
      <point x="55.0" y="508.0"/>
      <point x="55.0" y="397.0" type="curve" smooth="yes"/>
      <point x="55.0" y="301.0"/>
      <point x="129.0" y="227.0"/>
      <point x="224.0" y="227.0" type="curve" smooth="yes"/>
      <point x="282.0" y="227.0"/>
      <point x="342.0" y="270.0"/>
    </contour>
  </outline>
</glyph>
<glyph name="equal" format="2">
  <advance width="540.0"/>
  <unicode hex="003D"/>
  <outline>
    <contour>
      <point x="487.0" y="383.0" type="line"/>
      <point x="53.0" y="383.0" type="line"/>
      <point x="53.0" y="303.0" type="line"/>
      <point x="487.0" y="303.0" type="line"/>
    </contour>
    <contour>
      <point x="487.0" y="205.0" type="line"/>
      <point x="53.0" y="205.0" type="line"/>
      <point x="53.0" y="125.0" type="line"/>
      <point x="487.0" y="125.0" type="line"/>
    </contour>
  </outline>
</glyph>
<glyph name="at" format="2">
  <advance width="949.0"/>
  <unicode hex="0040"/>
  <note>
at
</note>
  <outline>
    <contour>
      <point x="487.0" y="-228.0" type="curve" smooth="yes"/>
      <point x="552.0" y="-228.0"/>
      <point x="618.0" y="-214.0"/>
      <point x="671.0" y="-189.0" type="curve"/>
      <point x="654.0" y="-141.0" type="line"/>
      <point x="611.0" y="-160.0"/>
      <point x="553.0" y="-172.0"/>
      <point x="493.0" y="-172.0" type="curve" smooth="yes"/>
      <point x="291.0" y="-172.0"/>
      <point x="162.0" y="-54.0"/>
      <point x="162.0" y="176.0" type="curve" smooth="yes"/>
      <point x="162.0" y="403.0"/>
      <point x="296.0" y="542.0"/>
      <point x="520.0" y="542.0" type="curve" smooth="yes"/>
      <point x="698.0" y="542.0"/>
      <point x="817.0" y="462.0"/>
      <point x="817.0" y="278.0" type="curve" smooth="yes"/>
      <point x="817.0" y="132.0"/>
      <point x="748.0" y="51.0"/>
      <point x="678.0" y="51.0" type="curve"/>
      <point x="673.0" y="64.0"/>
      <point x="671.0" y="86.0"/>
      <point x="671.0" y="119.0" type="curve"/>
      <point x="674.0" y="297.0" type="line"/>
      <point x="673.0" y="386.0"/>
      <point x="602.0" y="444.0"/>
      <point x="490.0" y="444.0" type="curve"/>
      <point x="424.0" y="435.0"/>
      <point x="314.0" y="375.0"/>
      <point x="314.0" y="327.0" type="curve" smooth="yes"/>
      <point x="314.0" y="296.0"/>
      <point x="341.0" y="279.0"/>
      <point x="381.0" y="279.0" type="curve" smooth="yes"/>
      <point x="393.0" y="279.0"/>
      <point x="405.0" y="280.0"/>
      <point x="418.0" y="283.0" type="curve"/>
      <point x="422.0" y="337.0" type="line" smooth="yes"/>
      <point x="424.0" y="370.0"/>
      <point x="432.0" y="379.0"/>
      <point x="458.0" y="379.0" type="curve" smooth="yes"/>
      <point x="511.0" y="379.0"/>
      <point x="559.0" y="339.0"/>
      <point x="559.0" y="295.0" type="curve" smooth="yes"/>
      <point x="559.0" y="254.0" type="line"/>
      <point x="403.0" y="206.0" type="line" smooth="yes"/>
      <point x="339.0" y="186.0"/>
      <point x="311.0" y="156.0"/>
      <point x="311.0" y="109.0" type="curve" smooth="yes"/>
      <point x="311.0" y="59.0"/>
      <point x="365.0" y="-8.0"/>
      <point x="455.0" y="-8.0" type="curve" smooth="yes"/>
      <point x="496.0" y="-8.0"/>
      <point x="539.0" y="20.0"/>
      <point x="581.0" y="70.0" type="curve"/>
      <point x="562.0" y="74.0" type="line"/>
      <point x="577.0" y="30.0" type="line" smooth="yes"/>
      <point x="586.0" y="5.0"/>
      <point x="601.0" y="-8.0"/>
      <point x="635.0" y="-8.0" type="curve" smooth="yes"/>
      <point x="772.0" y="-8.0"/>
      <point x="904.0" y="122.0"/>
      <point x="904.0" y="278.0" type="curve" smooth="yes"/>
      <point x="904.0" y="483.0"/>
      <point x="736.0" y="596.0"/>
      <point x="520.0" y="596.0" type="curve" smooth="yes"/>
      <point x="245.0" y="596.0"/>
      <point x="55.0" y="419.0"/>
      <point x="55.0" y="167.0" type="curve" smooth="yes"/>
      <point x="55.0" y="-88.0"/>
      <point x="238.0" y="-228.0"/>
    </contour>
    <contour>
      <point x="498.0" y="72.0" type="curve" smooth="yes"/>
      <point x="461.0" y="72.0"/>
      <point x="431.0" y="102.0"/>
      <point x="431.0" y="134.0" type="curve" smooth="yes"/>
      <point x="431.0" y="160.0"/>
      <point x="444.0" y="176.0"/>
      <point x="476.0" y="183.0" type="curve" smooth="yes"/>
      <point x="559.0" y="201.0" type="line"/>
      <point x="559.0" y="101.0" type="line"/>
      <point x="541.0" y="81.0"/>
      <point x="520.0" y="72.0"/>
    </contour>
  </outline>
</glyph>
<glyph name="C" format="2">
  <advance width="614.0"/>
  <unicode hex="0043"/>
  <note>
C
</note>
  <anchor x="350.0" y="0.0" name="bottom"/>
  <anchor x="350.0" y="587.0" name="top"/>
  <outline>
    <contour>
      <point x="371.0" y="-9.0" type="curve" smooth="yes"/>
      <point x="446.0" y="-9.0"/>
      <point x="519.0" y="14.0"/>
      <point x="561.0" y="40.0" type="curve"/>
      <point x="590.0" y="170.0" type="line"/>
      <point x="530.0" y="176.0" type="line"/>
      <point x="492.0" y="85.0" type="line"/>
      <point x="467.0" y="65.0"/>
      <point x="426.0" y="54.0"/>
      <point x="390.0" y="54.0" type="curve" smooth="yes"/>
      <point x="278.0" y="54.0"/>
      <point x="189.0" y="147.0"/>
      <point x="189.0" y="308.0" type="curve" smooth="yes"/>
      <point x="189.0" y="441.0"/>
      <point x="253.0" y="535.0"/>
      <point x="381.0" y="535.0" type="curve" smooth="yes"/>
      <point x="415.0" y="535.0"/>
      <point x="451.0" y="527.0"/>
      <point x="477.0" y="513.0" type="curve"/>
      <point x="510.0" y="411.0" type="line"/>
      <point x="566.0" y="415.0" type="line"/>
      <point x="559.0" y="563.0" type="line"/>
      <point x="515.0" y="583.0"/>
      <point x="448.0" y="596.0"/>
      <point x="390.0" y="596.0" type="curve" smooth="yes"/>
      <point x="185.0" y="596.0"/>
      <point x="47.0" y="470.0"/>
      <point x="47.0" y="286.0" type="curve" smooth="yes"/>
      <point x="47.0" y="95.0"/>
      <point x="183.0" y="-9.0"/>
    </contour>
  </outline>
</glyph>
<glyph name="D" format="2">
  <advance width="697.0"/>
  <unicode hex="0044"/>
  <note>
D
</note>
  <anchor x="332.0" y="0.0" name="bottom"/>
  <anchor x="352.0" y="294.0" name="center"/>
  <anchor x="207.0" y="294.0" name="stroke"/>
  <anchor x="342.0" y="587.0" name="top"/>
  <outline>
    <contour>
      <point x="40.0" y="587.0" type="line"/>
      <point x="37.0" y="541.0" type="line"/>
      <point x="100.0" y="526.0" type="line"/>
      <point x="104.0" y="518.0"/>
      <point x="107.0" y="455.0"/>
      <point x="107.0" y="373.0" type="curve" smooth="yes"/>
      <point x="107.0" y="213.0" type="line" smooth="yes"/>
      <point x="107.0" y="135.0"/>
      <point x="104.0" y="71.0"/>
      <point x="100.0" y="61.0" type="curve"/>
      <point x="37.0" y="46.0" type="line"/>
      <point x="40.0" y="0.0" type="line"/>
      <point x="316.0" y="0.0" type="line" smooth="yes"/>
      <point x="508.0" y="0.0"/>
      <point x="646.0" y="125.0"/>
      <point x="646.0" y="301.0" type="curve" smooth="yes"/>
      <point x="646.0" y="481.0"/>
      <point x="520.0" y="587.0"/>
      <point x="305.0" y="587.0" type="curve" smooth="yes"/>
    </contour>
    <contour>
      <point x="227.0" y="525.0" type="curve"/>
      <point x="251.0" y="529.0"/>
      <point x="274.0" y="531.0"/>
      <point x="295.0" y="531.0" type="curve" smooth="yes"/>
      <point x="420.0" y="531.0"/>
      <point x="511.0" y="453.0"/>
      <point x="511.0" y="270.0" type="curve" smooth="yes"/>
      <point x="511.0" y="129.0"/>
      <point x="447.0" y="61.0"/>
      <point x="324.0" y="61.0" type="curve" smooth="yes"/>
      <point x="296.0" y="61.0"/>
      <point x="264.0" y="64.0"/>
      <point x="230.0" y="70.0" type="curve"/>
      <point x="227.0" y="98.0"/>
      <point x="225.0" y="158.0"/>
      <point x="225.0" y="213.0" type="curve" smooth="yes"/>
      <point x="225.0" y="373.0" type="line" smooth="yes"/>
      <point x="225.0" y="466.0"/>
      <point x="227.0" y="509.0"/>
    </contour>
  </outline>
</glyph>
<glyph name="F" format="2">
  <advance width="524.0"/>
  <unicode hex="0046"/>
  <note>
F
</note>
  <anchor x="165.0" y="0.0" name="bottom"/>
  <anchor x="261.0" y="587.0" name="top"/>
  <outline>
    <contour>
      <point x="45.0" y="0.0" type="line"/>
      <point x="307.0" y="0.0" type="line"/>
      <point x="310.0" y="48.0" type="line"/>
      <point x="229.0" y="61.0" type="line"/>
      <point x="227.0" y="69.0"/>
      <point x="224.0" y="121.0"/>
      <point x="224.0" y="179.0" type="curve"/>
      <point x="223.0" y="403.0" type="line"/>
      <point x="223.0" y="488.0"/>
      <point x="223.0" y="516.0"/>
      <point x="224.0" y="528.0" type="curve"/>
      <point x="238.0" y="530.0"/>
      <point x="264.0" y="532.0"/>
      <point x="285.0" y="532.0" type="curve" smooth="yes"/>
      <point x="373.0" y="532.0" type="line" smooth="yes"/>
      <point x="388.0" y="532.0"/>
      <point x="401.0" y="531.0"/>
      <point x="415.0" y="528.0" type="curve"/>
      <point x="452.0" y="442.0" type="line"/>
      <point x="506.0" y="449.0" type="line"/>
      <point x="481.0" y="592.0" type="line"/>
      <point x="445.0" y="589.0"/>
      <point x="384.0" y="587.0"/>
      <point x="346.0" y="587.0" type="curve" smooth="yes"/>
      <point x="42.0" y="587.0" type="line"/>
      <point x="39.0" y="541.0" type="line"/>
      <point x="102.0" y="525.0" type="line"/>
      <point x="104.0" y="518.0"/>
      <point x="107.0" y="462.0"/>
      <point x="107.0" y="380.0" type="curve"/>
      <point x="106.0" y="211.0" type="line"/>
      <point x="106.0" y="126.0"/>
      <point x="103.0" y="69.0"/>
      <point x="101.0" y="61.0" type="curve"/>
      <point x="42.0" y="46.0" type="line"/>
    </contour>
    <contour>
      <point x="379.0" y="192.0" type="line"/>
      <point x="432.0" y="192.0" type="line"/>
      <point x="432.0" y="396.0" type="line"/>
      <point x="379.0" y="396.0" type="line"/>
      <point x="368.0" y="329.0" type="line"/>
      <point x="360.0" y="328.0"/>
      <point x="341.0" y="326.0"/>
      <point x="314.0" y="326.0" type="curve" smooth="yes"/>
      <point x="248.0" y="326.0" type="line" smooth="yes"/>
      <point x="227.0" y="326.0"/>
      <point x="206.0" y="328.0"/>
      <point x="192.0" y="329.0" type="curve"/>
      <point x="192.0" y="264.0" type="line"/>
      <point x="209.0" y="265.0"/>
      <point x="227.0" y="267.0"/>
      <point x="248.0" y="267.0" type="curve" smooth="yes"/>
      <point x="314.0" y="267.0" type="line" smooth="yes"/>
      <point x="337.0" y="267.0"/>
      <point x="355.0" y="266.0"/>
      <point x="368.0" y="263.0" type="curve"/>
    </contour>
  </outline>
</glyph>
<glyph name="G" format="2">
  <advance width="654.0"/>
  <unicode hex="0047"/>
  <note>
G
</note>
  <anchor x="350.0" y="0.0" name="bottom"/>
  <anchor x="350.0" y="587.0" name="top"/>
  <outline>
    <contour>
      <point x="371.0" y="-9.0" type="curve" smooth="yes"/>
      <point x="441.0" y="-9.0"/>
      <point x="519.0" y="10.0"/>
      <point x="575.0" y="45.0" type="curve"/>
      <point x="573.0" y="87.0"/>
      <point x="572.0" y="115.0"/>
      <point x="572.0" y="142.0" type="curve" smooth="yes"/>
      <point x="572.0" y="175.0"/>
      <point x="571.0" y="207.0"/>
      <point x="572.0" y="216.0" type="curve"/>
      <point x="620.0" y="230.0" type="line"/>
      <point x="617.0" y="276.0" type="line"/>
      <point x="386.0" y="276.0" type="line"/>
      <point x="383.0" y="228.0" type="line"/>
      <point x="453.0" y="215.0" type="line"/>
      <point x="455.0" y="197.0"/>
      <point x="457.0" y="161.0"/>
      <point x="457.0" y="128.0" type="curve" smooth="yes"/>
      <point x="457.0" y="22.0" type="line"/>
      <point x="477.0" y="77.0" type="line"/>
      <point x="451.0" y="60.0"/>
      <point x="416.0" y="53.0"/>
      <point x="391.0" y="53.0" type="curve" smooth="yes"/>
      <point x="276.0" y="53.0"/>
      <point x="186.0" y="147.0"/>
      <point x="186.0" y="308.0" type="curve" smooth="yes"/>
      <point x="186.0" y="441.0"/>
      <point x="251.0" y="535.0"/>
      <point x="381.0" y="535.0" type="curve" smooth="yes"/>
      <point x="410.0" y="535.0"/>
      <point x="449.0" y="529.0"/>
      <point x="476.0" y="513.0" type="curve"/>
      <point x="507.0" y="422.0" type="line"/>
      <point x="563.0" y="425.0" type="line"/>
      <point x="558.0" y="563.0" type="line"/>
      <point x="516.0" y="583.0"/>
      <point x="449.0" y="596.0"/>
      <point x="391.0" y="596.0" type="curve" smooth="yes"/>
      <point x="184.0" y="596.0"/>
      <point x="45.0" y="470.0"/>
      <point x="45.0" y="283.0" type="curve" smooth="yes"/>
      <point x="45.0" y="95.0"/>
      <point x="182.0" y="-9.0"/>
    </contour>
  </outline>
</glyph>
<glyph name="H" format="2">
  <advance width="689.0"/>
  <unicode hex="0048"/>
  <note>
H
</note>
  <anchor x="345.0" y="0.0" name="bottom"/>
  <anchor x="345.0" y="434.0" name="center"/>
  <anchor x="345.0" y="587.0" name="top"/>
  <anchor x="26.0" y="587.0" name="topleft"/>
  <outline>
    <contour>
      <point x="399.0" y="0.0" type="line"/>
      <point x="649.0" y="0.0" type="line"/>
      <point x="652.0" y="46.0" type="line"/>
      <point x="590.0" y="61.0" type="line"/>
      <point x="586.0" y="70.0"/>
      <point x="583.0" y="135.0"/>
      <point x="583.0" y="213.0" type="curve" smooth="yes"/>
      <point x="583.0" y="373.0" type="line" smooth="yes"/>
      <point x="583.0" y="454.0"/>
      <point x="586.0" y="518.0"/>
      <point x="590.0" y="526.0" type="curve"/>
      <point x="652.0" y="541.0" type="line"/>
      <point x="649.0" y="587.0" type="line"/>
      <point x="399.0" y="587.0" type="line"/>
      <point x="396.0" y="541.0" type="line"/>
      <point x="458.0" y="526.0" type="line"/>
      <point x="462.0" y="518.0"/>
      <point x="464.0" y="460.0"/>
      <point x="464.0" y="373.0" type="curve" smooth="yes"/>
      <point x="464.0" y="213.0" type="line" smooth="yes"/>
      <point x="464.0" y="129.0"/>
      <point x="462.0" y="70.0"/>
      <point x="458.0" y="61.0" type="curve"/>
      <point x="396.0" y="46.0" type="line"/>
    </contour>
    <contour>
      <point x="40.0" y="0.0" type="line"/>
      <point x="289.0" y="0.0" type="line"/>
      <point x="292.0" y="46.0" type="line"/>
      <point x="230.0" y="61.0" type="line"/>
      <point x="226.0" y="70.0"/>
      <point x="224.0" y="129.0"/>
      <point x="224.0" y="213.0" type="curve" smooth="yes"/>
      <point x="224.0" y="373.0" type="line" smooth="yes"/>
      <point x="224.0" y="460.0"/>
      <point x="226.0" y="518.0"/>
      <point x="230.0" y="526.0" type="curve"/>
      <point x="292.0" y="541.0" type="line"/>
      <point x="289.0" y="587.0" type="line"/>
      <point x="40.0" y="587.0" type="line"/>
      <point x="37.0" y="541.0" type="line"/>
      <point x="100.0" y="526.0" type="line"/>
      <point x="103.0" y="519.0"/>
      <point x="106.0" y="459.0"/>
      <point x="106.0" y="373.0" type="curve" smooth="yes"/>
      <point x="106.0" y="213.0" type="line" smooth="yes"/>
      <point x="106.0" y="130.0"/>
      <point x="103.0" y="70.0"/>
      <point x="100.0" y="61.0" type="curve"/>
      <point x="37.0" y="46.0" type="line"/>
    </contour>
    <contour>
      <point x="206.0" y="265.0" type="line"/>
      <point x="234.0" y="267.0"/>
      <point x="274.0" y="269.0"/>
      <point x="345.0" y="269.0" type="curve" smooth="yes"/>
      <point x="414.0" y="269.0"/>
      <point x="454.0" y="267.0"/>
      <point x="482.0" y="265.0" type="curve"/>
      <point x="482.0" y="336.0" type="line"/>
      <point x="453.0" y="332.0"/>
      <point x="411.0" y="331.0"/>
      <point x="345.0" y="331.0" type="curve" smooth="yes"/>
      <point x="278.0" y="331.0"/>
      <point x="235.0" y="332.0"/>
      <point x="206.0" y="336.0" type="curve"/>
    </contour>
  </outline>
</glyph>
<glyph name="I" format="2">
  <advance width="330.0"/>
  <unicode hex="0049"/>
  <note>
I
</note>
  <anchor x="165.0" y="0.0" name="bottom"/>
  <anchor x="233.0" y="0.0" name="ogonek"/>
  <anchor x="165.0" y="587.0" name="top"/>
  <anchor x="26.0" y="587.0" name="topleft"/>
  <outline>
    <contour>
      <point x="40.0" y="0.0" type="line"/>
      <point x="290.0" y="0.0" type="line"/>
      <point x="293.0" y="46.0" type="line"/>
      <point x="230.0" y="61.0" type="line"/>
      <point x="226.0" y="70.0"/>
      <point x="224.0" y="129.0"/>
      <point x="224.0" y="213.0" type="curve" smooth="yes"/>
      <point x="224.0" y="373.0" type="line" smooth="yes"/>
      <point x="224.0" y="460.0"/>
      <point x="226.0" y="518.0"/>
      <point x="230.0" y="526.0" type="curve"/>
      <point x="293.0" y="541.0" type="line"/>
      <point x="290.0" y="587.0" type="line"/>
      <point x="40.0" y="587.0" type="line"/>
      <point x="37.0" y="541.0" type="line"/>
      <point x="100.0" y="526.0" type="line"/>
      <point x="103.0" y="519.0"/>
      <point x="106.0" y="459.0"/>
      <point x="106.0" y="373.0" type="curve" smooth="yes"/>
      <point x="106.0" y="213.0" type="line" smooth="yes"/>
      <point x="106.0" y="130.0"/>
      <point x="103.0" y="70.0"/>
      <point x="100.0" y="61.0" type="curve"/>
      <point x="37.0" y="46.0" type="line"/>
    </contour>
  </outline>
</glyph>
<glyph name="J" format="2">
  <advance width="330.0"/>
  <unicode hex="004A"/>
  <note>
    J
  </note>
  <anchor x="165.0" y="587.0" name="top"/>
  <outline>
    <contour>
      <point x="230.0" y="526.0" type="curve"/>
      <point x="293.0" y="541.0" type="line"/>
      <point x="290.0" y="587.0" type="line"/>
      <point x="33.0" y="587.0" type="line"/>
      <point x="30.0" y="541.0" type="line"/>
      <point x="100.0" y="527.0" type="line"/>
      <point x="103.0" y="516.0"/>
      <point x="106.0" y="454.0"/>
      <point x="106.0" y="377.0" type="curve"/>
      <point x="105.50739630898033" y="-13.856101159717127" type="line" smooth="yes"/>
      <point x="105.50739630898033" y="-106.39116470261706"/>
      <point x="67.74972437939914" y="-162.22775999819203"/>
      <point x="-7.5804350262762625" y="-189.85697892983282" type="curve"/>
      <point x="16.247910236625103" y="-238.964547571735" type="line"/>
      <point x="153.8221639995204" y="-197.20093482228458"/>
      <point x="225.0" y="-98.93361070593096"/>
      <point x="225.0" y="8.0" type="curve"/>
      <point x="224.0" y="374.0" type="line"/>
      <point x="224.0" y="461.0"/>
      <point x="226.0" y="519.0"/>
    </contour>
  </outline>
</glyph>
<glyph name="K" format="2">
  <advance width="628.0"/>
  <unicode hex="004B"/>
  <note>
K
</note>
  <anchor x="325.0" y="0.0" name="bottom"/>
  <anchor x="325.0" y="587.0" name="top"/>
  <outline>
    <contour>
      <point x="366.0" y="0.0" type="line"/>
      <point x="642.0" y="0.0" type="line"/>
      <point x="642.0" y="47.0" type="line"/>
      <point x="591.0" y="56.0" type="line"/>
      <point x="580.0" y="67.0"/>
      <point x="561.0" y="87.0"/>
      <point x="520.0" y="136.0" type="curve" smooth="yes"/>
      <point x="328.0" y="361.0" type="line"/>
      <point x="328.0" y="322.0" type="line"/>
      <point x="555.0" y="529.0" type="line"/>
      <point x="618.0" y="539.0" type="line"/>
      <point x="615.0" y="587.0" type="line"/>
      <point x="401.0" y="587.0" type="line"/>
      <point x="398.0" y="541.0" type="line"/>
      <point x="461.0" y="529.0" type="line"/>
      <point x="255.0" y="317.0" type="line"/>
      <point x="209.0" y="307.0" type="line"/>
      <point x="209.0" y="263.0" type="line"/>
      <point x="249.0" y="263.0" type="line"/>
      <point x="383.0" y="105.0" type="line" smooth="yes"/>
      <point x="401.0" y="82.0"/>
      <point x="409.0" y="70.0"/>
      <point x="418.0" y="56.0" type="curve"/>
      <point x="363.0" y="46.0" type="line"/>
    </contour>
    <contour>
      <point x="43.0" y="0.0" type="line"/>
      <point x="281.0" y="0.0" type="line"/>
      <point x="284.0" y="46.0" type="line"/>
      <point x="229.0" y="61.0" type="line"/>
      <point x="227.0" y="70.0"/>
      <point x="225.0" y="127.0"/>
      <point x="225.0" y="213.0" type="curve" smooth="yes"/>
      <point x="225.0" y="373.0" type="line" smooth="yes"/>
      <point x="225.0" y="459.0"/>
      <point x="227.0" y="518.0"/>
      <point x="231.0" y="526.0" type="curve"/>
      <point x="294.0" y="541.0" type="line"/>
      <point x="291.0" y="587.0" type="line"/>
      <point x="41.0" y="587.0" type="line"/>
      <point x="38.0" y="541.0" type="line"/>
      <point x="101.0" y="526.0" type="line"/>
      <point x="104.0" y="518.0"/>
      <point x="107.0" y="459.0"/>
      <point x="107.0" y="373.0" type="curve" smooth="yes"/>
      <point x="107.0" y="213.0" type="line" smooth="yes"/>
      <point x="107.0" y="127.0"/>
      <point x="105.0" y="70.0"/>
      <point x="103.0" y="61.0" type="curve"/>
      <point x="40.0" y="46.0" type="line"/>
    </contour>
  </outline>
</glyph>
<glyph name="L" format="2">
  <advance width="535.0"/>
  <unicode hex="004C"/>
  <note>
L
</note>
  <anchor x="290.0" y="0.0" name="bottom"/>
  <anchor x="197.0" y="303.0" name="center"/>
  <anchor x="372.0" y="320.0" name="dotacc"/>
  <anchor x="166.0" y="587.0" name="top"/>
  <anchor x="375.0" y="587.0" name="topright"/>
  <outline>
    <contour>
      <point x="487.0" y="-6.0" type="curve"/>
      <point x="533.0" y="164.0" type="line"/>
      <point x="477.0" y="178.0" type="line"/>
      <point x="422.0" y="73.0" type="line"/>
      <point x="405.0" y="70.0"/>
      <point x="384.0" y="67.0"/>
      <point x="352.0" y="67.0" type="curve" smooth="yes"/>
      <point x="305.0" y="67.0" type="line" smooth="yes"/>
      <point x="271.0" y="67.0"/>
      <point x="250.0" y="68.0"/>
      <point x="229.0" y="72.0" type="curve"/>
      <point x="227.0" y="88.0"/>
      <point x="226.0" y="138.0"/>
      <point x="226.0" y="213.0" type="curve" smooth="yes"/>
      <point x="226.0" y="373.0" type="line" smooth="yes"/>
      <point x="226.0" y="461.0"/>
      <point x="229.0" y="518.0"/>
      <point x="232.0" y="525.0" type="curve"/>
      <point x="315.0" y="539.0" type="line"/>
      <point x="312.0" y="587.0" type="line"/>
      <point x="42.0" y="587.0" type="line"/>
      <point x="39.0" y="541.0" type="line"/>
      <point x="102.0" y="525.0" type="line"/>
      <point x="105.0" y="517.0"/>
      <point x="107.0" y="454.0"/>
      <point x="107.0" y="373.0" type="curve" smooth="yes"/>
      <point x="107.0" y="213.0" type="line" smooth="yes"/>
      <point x="107.0" y="134.0"/>
      <point x="105.0" y="71.0"/>
      <point x="102.0" y="61.0" type="curve"/>
      <point x="39.0" y="46.0" type="line"/>
      <point x="42.0" y="0.0" type="line"/>
      <point x="350.0" y="0.0" type="line"/>
      <point x="381.0" y="0.0"/>
      <point x="442.0" y="-3.0"/>
    </contour>
  </outline>
</glyph>
<glyph name="M" format="2">
  <advance width="875.0"/>
  <unicode hex="004D"/>
  <note>
M
</note>
  <anchor x="415.0" y="0.0" name="bottom"/>
  <anchor x="415.0" y="587.0" name="top"/>
  <outline>
    <contour>
      <point x="49.0" y="587.0" type="line"/>
      <point x="46.0" y="541.0" type="line"/>
      <point x="109.0" y="526.0" type="line"/>
      <point x="109.0" y="509.0"/>
      <point x="110.0" y="471.0"/>
      <point x="109.0" y="396.0" type="curve" smooth="yes"/>
      <point x="106.0" y="204.0" type="line" smooth="yes"/>
      <point x="105.0" y="134.0"/>
      <point x="103.0" y="74.0"/>
      <point x="101.0" y="61.0" type="curve"/>
      <point x="32.0" y="46.0" type="line"/>
      <point x="35.0" y="0.0" type="line"/>
      <point x="247.0" y="0.0" type="line"/>
      <point x="250.0" y="46.0" type="line"/>
      <point x="181.0" y="61.0" type="line"/>
      <point x="179.0" y="71.0"/>
      <point x="178.0" y="110.0"/>
      <point x="178.0" y="216.0" type="curve" smooth="yes"/>
      <point x="177.0" y="558.0" type="line"/>
      <point x="128.0" y="558.0" type="line"/>
      <point x="388.0" y="-3.0" type="line"/>
      <point x="441.0" y="-3.0" type="line"/>
      <point x="680.0" y="558.0" type="line"/>
      <point x="641.0" y="558.0" type="line"/>
      <point x="644.0" y="214.0" type="line" smooth="yes"/>
      <point x="645.0" y="117.0"/>
      <point x="645.0" y="71.0"/>
      <point x="643.0" y="61.0" type="curve"/>
      <point x="580.0" y="46.0" type="line"/>
      <point x="583.0" y="0.0" type="line"/>
      <point x="835.0" y="0.0" type="line"/>
      <point x="838.0" y="46.0" type="line"/>
      <point x="775.0" y="61.0" type="line"/>
      <point x="773.0" y="74.0"/>
      <point x="769.0" y="131.0"/>
      <point x="766.0" y="220.0" type="curve" smooth="yes"/>
      <point x="760.0" y="398.0" type="line" smooth="yes"/>
      <point x="758.0" y="469.0"/>
      <point x="757.0" y="514.0"/>
      <point x="758.0" y="527.0" type="curve"/>
      <point x="821.0" y="541.0" type="line"/>
      <point x="818.0" y="587.0" type="line"/>
      <point x="625.0" y="587.0" type="line"/>
      <point x="431.0" y="132.0" type="line"/>
      <point x="456.0" y="132.0" type="line"/>
      <point x="247.0" y="587.0" type="line"/>
    </contour>
  </outline>
</glyph>
<glyph name="O" format="2">
  <advance width="698.0"/>
  <unicode hex="004F"/>
  <note>
O
</note>
  <anchor x="349.0" y="0.0" name="bottom"/>
  <anchor x="349.0" y="294.0" name="center"/>
  <anchor x="423.0" y="0.0" name="ogonek"/>
  <anchor x="349.0" y="587.0" name="top"/>
  <anchor x="15.0" y="587.0" name="topleft"/>
  <anchor x="682.0" y="587.0" name="topright"/>
  <outline>
    <contour>
      <point x="355.0" y="-9.0" type="curve" smooth="yes"/>
      <point x="496.0" y="-9.0"/>
      <point x="653.0" y="103.0"/>
      <point x="653.0" y="300.0" type="curve" smooth="yes"/>
      <point x="653.0" y="475.0"/>
      <point x="531.0" y="596.0"/>
      <point x="356.0" y="596.0" type="curve" smooth="yes"/>
      <point x="176.0" y="596.0"/>
      <point x="45.0" y="465.0"/>
      <point x="45.0" y="288.0" type="curve" smooth="yes"/>
      <point x="45.0" y="114.0"/>
      <point x="174.0" y="-9.0"/>
    </contour>
    <contour>
      <point x="363.0" y="59.0" type="curve" smooth="yes"/>
      <point x="259.0" y="59.0"/>
      <point x="185.0" y="164.0"/>
      <point x="185.0" y="313.0" type="curve" smooth="yes"/>
      <point x="185.0" y="451.0"/>
      <point x="245.0" y="536.0"/>
      <point x="344.0" y="536.0" type="curve" smooth="yes"/>
      <point x="447.0" y="536.0"/>
      <point x="515.0" y="432.0"/>
      <point x="515.0" y="275.0" type="curve" smooth="yes"/>
      <point x="515.0" y="139.0"/>
      <point x="461.0" y="59.0"/>
    </contour>
  </outline>
</glyph>
<glyph name="P" format="2">
  <advance width="546.0"/>
  <unicode hex="0050"/>
  <note>
P
</note>
  <anchor x="166.0" y="0.0" name="bottom"/>
  <anchor x="275.0" y="587.0" name="top"/>
  <outline>
    <contour>
      <point x="44.0" y="0.0" type="line"/>
      <point x="309.0" y="0.0" type="line"/>
      <point x="312.0" y="48.0" type="line"/>
      <point x="231.0" y="62.0" type="line"/>
      <point x="229.0" y="69.0"/>
      <point x="225.0" y="120.0"/>
      <point x="225.0" y="208.0" type="curve"/>
      <point x="224.0" y="383.0" type="line"/>
      <point x="224.0" y="467.0"/>
      <point x="225.0" y="521.0"/>
      <point x="226.0" y="535.0" type="curve"/>
      <point x="262.0" y="535.0" type="line" smooth="yes"/>
      <point x="338.0" y="535.0"/>
      <point x="388.0" y="494.0"/>
      <point x="388.0" y="403.0" type="curve" smooth="yes"/>
      <point x="388.0" y="325.0"/>
      <point x="348.0" y="285.0"/>
      <point x="279.0" y="285.0" type="curve" smooth="yes"/>
      <point x="252.0" y="285.0"/>
      <point x="230.0" y="290.0"/>
      <point x="210.0" y="298.0" type="curve"/>
      <point x="210.0" y="233.0" type="line"/>
      <point x="231.0" y="229.0"/>
      <point x="255.0" y="226.0"/>
      <point x="280.0" y="226.0" type="curve" smooth="yes"/>
      <point x="421.0" y="226.0"/>
      <point x="514.0" y="305.0"/>
      <point x="514.0" y="416.0" type="curve" smooth="yes"/>
      <point x="514.0" y="526.0"/>
      <point x="434.0" y="587.0"/>
      <point x="281.0" y="587.0" type="curve" smooth="yes"/>
      <point x="41.0" y="587.0" type="line"/>
      <point x="38.0" y="541.0" type="line"/>
      <point x="101.0" y="527.0" type="line"/>
      <point x="104.0" y="520.0"/>
      <point x="107.0" y="467.0"/>
      <point x="107.0" y="383.0" type="curve"/>
      <point x="106.0" y="208.0" type="line"/>
      <point x="106.0" y="120.0"/>
      <point x="103.0" y="69.0"/>
      <point x="100.0" y="61.0" type="curve"/>
      <point x="41.0" y="46.0" type="line"/>
    </contour>
  </outline>
</glyph>
<glyph name="Q" format="2">
  <advance width="698.0"/>
  <unicode hex="0051"/>
  <note>
Q
</note>
  <anchor x="349.0" y="587.0" name="top"/>
  <outline>
    <contour>
      <point x="355.0" y="-7.0" type="curve"/>
      <point x="368.0" y="-5.0" type="line"/>
      <point x="501.0" y="-5.0"/>
      <point x="653.0" y="107.0"/>
      <point x="653.0" y="300.0" type="curve" smooth="yes"/>
      <point x="653.0" y="475.0"/>
      <point x="531.0" y="596.0"/>
      <point x="356.0" y="596.0" type="curve" smooth="yes"/>
      <point x="176.0" y="596.0"/>
      <point x="45.0" y="465.0"/>
      <point x="45.0" y="288.0" type="curve" smooth="yes"/>
      <point x="45.0" y="114.0"/>
      <point x="174.0" y="-7.0"/>
    </contour>
    <contour>
      <point x="605.0" y="-143.0" type="curve" smooth="yes"/>
      <point x="660.0" y="-143.0"/>
      <point x="708.0" y="-128.0"/>
      <point x="743.0" y="-106.0" type="curve"/>
      <point x="731.0" y="-57.0" type="line"/>
      <point x="708.0" y="-64.0"/>
      <point x="686.0" y="-66.0"/>
      <point x="667.0" y="-66.0" type="curve" smooth="yes"/>
      <point x="628.0" y="-66.0"/>
      <point x="598.0" y="-56.0"/>
      <point x="560.0" y="-34.0" type="curve" smooth="yes"/>
      <point x="509.0" y="-4.0"/>
      <point x="449.0" y="9.0"/>
      <point x="400.0" y="9.0" type="curve"/>
      <point x="266.0" y="9.0" type="line"/>
      <point x="305.0" y="-4.0"/>
      <point x="349.0" y="-37.0"/>
      <point x="396.0" y="-73.0" type="curve" smooth="yes"/>
      <point x="455.0" y="-118.0"/>
      <point x="514.0" y="-143.0"/>
    </contour>
    <contour>
      <point x="363.0" y="59.0" type="curve" smooth="yes"/>
      <point x="259.0" y="59.0"/>
      <point x="185.0" y="164.0"/>
      <point x="185.0" y="313.0" type="curve" smooth="yes"/>
      <point x="185.0" y="451.0"/>
      <point x="245.0" y="536.0"/>
      <point x="344.0" y="536.0" type="curve" smooth="yes"/>
      <point x="447.0" y="536.0"/>
      <point x="515.0" y="432.0"/>
      <point x="515.0" y="275.0" type="curve" smooth="yes"/>
      <point x="515.0" y="137.0"/>
      <point x="460.0" y="59.0"/>
    </contour>
  </outline>
</glyph>
<glyph name="R" format="2">
  <advance width="589.5782021147304"/>
  <unicode hex="0052"/>
  <note>
    R
  </note>
  <anchor x="325.0" y="0.0" name="bottom"/>
  <anchor x="289.0" y="587.0" name="top"/>
  <outline>
    <contour>
      <point x="44.0" y="0.0" type="line"/>
      <point x="283.0" y="0.0" type="line"/>
      <point x="286.0" y="46.0" type="line"/>
      <point x="229.0" y="62.0" type="line"/>
      <point x="226.0" y="82.0"/>
      <point x="224.0" y="148.0"/>
      <point x="224.0" y="213.0" type="curve" smooth="yes"/>
      <point x="224.0" y="384.0" type="line" smooth="yes"/>
      <point x="224.0" y="476.0"/>
      <point x="224.0" y="527.0"/>
      <point x="226.0" y="535.0" type="curve"/>
      <point x="271.0" y="535.0" type="line" smooth="yes"/>
      <point x="339.0" y="535.0"/>
      <point x="376.0" y="500.0"/>
      <point x="376.0" y="435.0" type="curve" smooth="yes"/>
      <point x="376.0" y="365.0"/>
      <point x="330.0" y="321.0"/>
      <point x="259.0" y="321.0" type="curve" smooth="yes"/>
      <point x="213.0" y="321.0" type="line"/>
      <point x="213.0" y="268.0" type="line"/>
      <point x="274.0" y="268.0" type="line" smooth="yes"/>
      <point x="406.0" y="268.0"/>
      <point x="500.0" y="339.0"/>
      <point x="500.0" y="438.0" type="curve" smooth="yes"/>
      <point x="500.0" y="539.0"/>
      <point x="430.0" y="587.0"/>
      <point x="286.0" y="587.0" type="curve" smooth="yes"/>
      <point x="40.0" y="587.0" type="line"/>
      <point x="37.0" y="541.0" type="line"/>
      <point x="100.0" y="526.0" type="line"/>
      <point x="104.0" y="518.0"/>
      <point x="107.0" y="459.0"/>
      <point x="107.0" y="373.0" type="curve" smooth="yes"/>
      <point x="107.0" y="213.0" type="line" smooth="yes"/>
      <point x="107.0" y="157.0"/>
      <point x="105.0" y="79.0"/>
      <point x="104.0" y="62.0" type="curve"/>
      <point x="41.0" y="46.0" type="line"/>
    </contour>
    <contour>
      <point x="440.80863648345917" y="0.10235565147831949" type="curve" smooth="yes"/>
      <point x="589.0242314155801" y="0.16842680462195858" type="line"/>
      <point x="593.5782021147304" y="51.59569937795709" type="line"/>
      <point x="544.3242900868452" y="55.12464211443603"/>
      <point x="511.0706534948758" y="68.25414664275146"/>
      <point x="474.9217496027568" y="124.5271825985244" type="curve" smooth="yes"/>
      <point x="360.81926778993375" y="302.15063366797085" type="line"/>
      <point x="247.8931002226036" y="280.9769772490963" type="line"/>
      <point x="387.3443060498221" y="53.15958950251161" type="line" smooth="yes"/>
      <point x="403.88241072153477" y="23.414110417630262"/>
      <point x="427.86956389215436" y="0.0969372615641782"/>
    </contour>
  </outline>
</glyph>
<glyph name="S" format="2">
  <advance width="497.0"/>
  <unicode hex="0053"/>
  <note>
S
</note>
  <anchor x="254.0" y="0.0" name="bottom"/>
  <anchor x="254.0" y="587.0" name="top"/>
  <outline>
    <contour>
      <point x="229.0" y="-9.0" type="curve" smooth="yes"/>
      <point x="371.0" y="-9.0"/>
      <point x="468.0" y="64.0"/>
      <point x="468.0" y="165.0" type="curve" smooth="yes"/>
      <point x="468.0" y="353.0"/>
      <point x="175.0" y="321.0"/>
      <point x="175.0" y="458.0" type="curve" smooth="yes"/>
      <point x="175.0" y="508.0"/>
      <point x="215.0" y="540.0"/>
      <point x="275.0" y="540.0" type="curve" smooth="yes"/>
      <point x="303.0" y="540.0"/>
      <point x="326.0" y="535.0"/>
      <point x="350.0" y="522.0" type="curve"/>
      <point x="380.0" y="429.0" type="line"/>
      <point x="437.0" y="433.0" type="line"/>
      <point x="427.0" y="572.0" type="line"/>
      <point x="391.0" y="588.0"/>
      <point x="333.0" y="598.0"/>
      <point x="285.0" y="598.0" type="curve" smooth="yes"/>
      <point x="146.0" y="598.0"/>
      <point x="51.0" y="527.0"/>
      <point x="51.0" y="423.0" type="curve" smooth="yes"/>
      <point x="51.0" y="225.0"/>
      <point x="341.0" y="266.0"/>
      <point x="341.0" y="127.0" type="curve" smooth="yes"/>
      <point x="341.0" y="80.0"/>
      <point x="306.0" y="51.0"/>
      <point x="243.0" y="51.0" type="curve" smooth="yes"/>
      <point x="208.0" y="51.0"/>
      <point x="168.0" y="61.0"/>
      <point x="138.0" y="81.0" type="curve"/>
      <point x="106.0" y="179.0" type="line"/>
      <point x="49.0" y="175.0" type="line"/>
      <point x="54.0" y="33.0" type="line"/>
      <point x="99.0" y="8.0"/>
      <point x="172.0" y="-9.0"/>
    </contour>
  </outline>
</glyph>
<glyph name="Z" format="2">
  <advance width="543.0"/>
  <unicode hex="005A"/>
  <note>
Z
</note>
  <anchor x="270.0" y="0.0" name="bottom"/>
  <anchor x="270.0" y="587.0" name="top"/>
  <outline>
    <contour>
      <point x="497.0" y="-5.0" type="curve"/>
      <point x="525.0" y="169.0" type="line"/>
      <point x="471.0" y="175.0" type="line"/>
      <point x="429.0" y="63.0" type="line"/>
      <point x="413.0" y="60.0"/>
      <point x="401.0" y="59.0"/>
      <point x="385.0" y="59.0" type="curve" smooth="yes"/>
      <point x="178.0" y="59.0" type="line"/>
      <point x="178.0" y="20.0" type="line"/>
      <point x="494.0" y="543.0" type="line"/>
      <point x="494.0" y="589.0" type="line"/>
      <point x="469.0" y="588.0"/>
      <point x="442.0" y="587.0"/>
      <point x="417.0" y="587.0" type="curve" smooth="yes"/>
      <point x="135.0" y="587.0" type="line" smooth="yes"/>
      <point x="110.0" y="587.0"/>
      <point x="73.0" y="587.0"/>
      <point x="42.0" y="589.0" type="curve"/>
      <point x="44.0" y="425.0" type="line"/>
      <point x="99.0" y="425.0" type="line"/>
      <point x="116.0" y="527.0" type="line"/>
      <point x="136.0" y="530.0"/>
      <point x="156.0" y="532.0"/>
      <point x="192.0" y="532.0" type="curve" smooth="yes"/>
      <point x="381.0" y="532.0" type="line"/>
      <point x="381.0" y="571.0" type="line"/>
      <point x="60.0" y="44.0" type="line"/>
      <point x="60.0" y="-3.0" type="line"/>
      <point x="85.0" y="-1.0"/>
      <point x="109.0" y="0.0"/>
      <point x="136.0" y="0.0" type="curve" smooth="yes"/>
      <point x="375.0" y="0.0" type="line" smooth="yes"/>
      <point x="409.0" y="0.0"/>
      <point x="467.0" y="-3.0"/>
    </contour>
  </outline>
</glyph>
<glyph name="bracketleft" format="2">
  <advance width="339.0"/>
  <unicode hex="005B"/>
  <note>
bracketleft
</note>
  <outline>
    <contour>
      <point x="304.0" y="-220.0" type="line"/>
      <point x="304.0" y="-165.0" type="line"/>
      <point x="206.0" y="-165.0" type="line"/>
      <point x="206.0" y="667.0" type="line"/>
      <point x="304.0" y="667.0" type="line"/>
      <point x="304.0" y="722.0" type="line"/>
      <point x="96.0" y="722.0" type="line"/>
      <point x="96.0" y="-220.0" type="line"/>
    </contour>
  </outline>
</glyph>
<glyph name="backslash" format="2">
  <advance width="399.0"/>
  <unicode hex="005C"/>
  <note>
backslash
</note>
  <outline>
    <contour>
      <point x="372.0" y="-180.0" type="line"/>
      <point x="71.0" y="728.0" type="line"/>
      <point x="-13.0" y="728.0" type="line"/>
      <point x="288.0" y="-180.0" type="line"/>
    </contour>
  </outline>
</glyph>
<glyph name="asciicircum" format="2">
  <advance width="540.0"/>
  <unicode hex="005E"/>
  <outline>
    <contour>
      <point x="311.0" y="561.0" type="line"/>
      <point x="230.0" y="561.0" type="line"/>
      <point x="45.0" y="127.0" type="line"/>
      <point x="128.0" y="127.0" type="line"/>
      <point x="297.0" y="527.0" type="line"/>
      <point x="243.0" y="527.0" type="line"/>
      <point x="413.0" y="127.0" type="line"/>
      <point x="496.0" y="127.0" type="line"/>
    </contour>
  </outline>
</glyph>
<glyph name="a" format="2">
  <advance width="487.0"/>
  <unicode hex="0061"/>
  <note>
a
</note>
  <anchor x="246.0" y="0.0" name="bottom"/>
  <anchor x="440.0" y="0.0" name="ogonek"/>
  <anchor x="238.0" y="436.0" name="top"/>
  <outline>
    <contour>
      <point x="188.0" y="-8.0" type="curve" smooth="yes"/>
      <point x="229.0" y="-8.0"/>
      <point x="272.0" y="20.0"/>
      <point x="314.0" y="70.0" type="curve"/>
      <point x="295.0" y="74.0" type="line"/>
      <point x="310.0" y="30.0" type="line" smooth="yes"/>
      <point x="319.0" y="5.0"/>
      <point x="336.0" y="-8.0"/>
      <point x="360.0" y="-8.0" type="curve" smooth="yes"/>
      <point x="376.0" y="-8.0"/>
      <point x="394.0" y="-4.0"/>
      <point x="417.0" y="6.0" type="curve" smooth="yes"/>
      <point x="476.0" y="31.0" type="line"/>
      <point x="476.0" y="69.0" type="line"/>
      <point x="411.0" y="81.0" type="line"/>
      <point x="406.0" y="94.0"/>
      <point x="404.0" y="116.0"/>
      <point x="404.0" y="149.0" type="curve"/>
      <point x="407.0" y="297.0" type="line"/>
      <point x="406.0" y="386.0"/>
      <point x="335.0" y="444.0"/>
      <point x="223.0" y="444.0" type="curve"/>
      <point x="157.0" y="435.0"/>
      <point x="47.0" y="375.0"/>
      <point x="47.0" y="327.0" type="curve" smooth="yes"/>
      <point x="47.0" y="288.0"/>
      <point x="91.0" y="270.0"/>
      <point x="151.0" y="283.0" type="curve"/>
      <point x="155.0" y="337.0" type="line" smooth="yes"/>
      <point x="157.0" y="370.0"/>
      <point x="165.0" y="379.0"/>
      <point x="191.0" y="379.0" type="curve" smooth="yes"/>
      <point x="244.0" y="379.0"/>
      <point x="292.0" y="339.0"/>
      <point x="292.0" y="295.0" type="curve" smooth="yes"/>
      <point x="292.0" y="254.0" type="line"/>
      <point x="136.0" y="206.0" type="line" smooth="yes"/>
      <point x="72.0" y="186.0"/>
      <point x="44.0" y="156.0"/>
      <point x="44.0" y="109.0" type="curve" smooth="yes"/>
      <point x="44.0" y="59.0"/>
      <point x="98.0" y="-8.0"/>
    </contour>
    <contour>
      <point x="231.0" y="72.0" type="curve" smooth="yes"/>
      <point x="194.0" y="72.0"/>
      <point x="164.0" y="102.0"/>
      <point x="164.0" y="134.0" type="curve" smooth="yes"/>
      <point x="164.0" y="160.0"/>
      <point x="177.0" y="176.0"/>
      <point x="209.0" y="183.0" type="curve" smooth="yes"/>
      <point x="292.0" y="201.0" type="line"/>
      <point x="292.0" y="101.0" type="line"/>
      <point x="274.0" y="81.0"/>
      <point x="253.0" y="72.0"/>
    </contour>
  </outline>
</glyph>
<glyph name="d" format="2">
  <advance width="552.0"/>
  <unicode hex="0064"/>
  <note>
d
</note>
  <anchor x="293.0" y="0.0" name="bottom"/>
  <anchor x="277.0" y="218.0" name="center"/>
  <anchor x="355.0" y="518.0" name="stroke"/>
  <anchor x="277.0" y="660.0" name="top"/>
  <anchor x="506.0" y="688.0" name="topright"/>
  <outline>
    <contour>
      <point x="381.0" y="-12.0" type="line"/>
      <point x="538.0" y="29.0" type="line"/>
      <point x="538.0" y="69.0" type="line"/>
      <point x="473.0" y="84.0" type="line"/>
      <point x="470.0" y="106.0"/>
      <point x="465.0" y="150.0"/>
      <point x="465.0" y="218.0" type="curve"/>
      <point x="466.0" y="449.0" type="line" smooth="yes"/>
      <point x="466.0" y="529.0"/>
      <point x="469.0" y="597.0"/>
      <point x="473.0" y="680.0" type="curve"/>
      <point x="449.0" y="696.0" type="line"/>
      <point x="273.0" y="650.0" type="line"/>
      <point x="275.0" y="610.0" type="line"/>
      <point x="351.0" y="598.0" type="line"/>
      <point x="353.0" y="571.0"/>
      <point x="355.0" y="474.0"/>
      <point x="355.0" y="425.0" type="curve"/>
      <point x="335.0" y="437.0"/>
      <point x="301.0" y="443.0"/>
      <point x="272.0" y="443.0" type="curve" smooth="yes"/>
      <point x="156.0" y="443.0"/>
      <point x="36.0" y="352.0"/>
      <point x="36.0" y="203.0" type="curve" smooth="yes"/>
      <point x="36.0" y="77.0"/>
      <point x="124.0" y="-9.0"/>
      <point x="233.0" y="-9.0" type="curve" smooth="yes"/>
      <point x="277.0" y="-9.0"/>
      <point x="320.0" y="11.0"/>
      <point x="356.0" y="67.0" type="curve"/>
      <point x="359.0" y="66.0" type="line"/>
      <point x="358.0" y="2.0" type="line"/>
    </contour>
    <contour>
      <point x="273.0" y="77.0" type="curve" smooth="yes"/>
      <point x="209.0" y="77.0"/>
      <point x="157.0" y="134.0"/>
      <point x="157.0" y="235.0" type="curve" smooth="yes"/>
      <point x="157.0" y="330.0"/>
      <point x="205.0" y="388.0"/>
      <point x="274.0" y="388.0" type="curve" smooth="yes"/>
      <point x="303.0" y="388.0"/>
      <point x="335.0" y="376.0"/>
      <point x="356.0" y="344.0" type="curve"/>
      <point x="356.0" y="125.0" type="line"/>
      <point x="331.0" y="90.0"/>
      <point x="300.0" y="77.0"/>
    </contour>
  </outline>
</glyph>
<glyph name="f" format="2">
  <advance width="310.7500960462414"/>
  <unicode hex="0066"/>
  <note>
    f
  </note>
  <outline>
    <contour>
      <point x="283.0" y="0.0" type="line"/>
      <point x="286.0" y="43.0" type="line"/>
      <point x="204.0" y="59.0" type="line"/>
      <point x="202.0" y="101.0"/>
      <point x="199.0" y="173.0"/>
      <point x="199.0" y="237.0" type="curve"/>
      <point x="198.0" y="376.0" type="line"/>
      <point x="196.0" y="435.0" type="line"/>
      <point x="196.0" y="514.0" type="line" smooth="yes"/>
      <point x="196.0" y="607.0"/>
      <point x="223.83377998912556" y="655.0180639940345"/>
      <point x="262.01041305473996" y="655.0180639940345" type="curve"/>
      <point x="293.13480659298943" y="655.0180639940345"/>
      <point x="310.4862926282051" y="616.6537459819117"/>
      <point x="319.8789563189514" y="581.6282000899669" type="curve"/>
      <point x="325.9993471716041" y="578.921104135909"/>
      <point x="342.9249100974462" y="576.0299144284122"/>
      <point x="352.69155922425875" y="576.0299144284122" type="curve" smooth="yes"/>
      <point x="388.1294132039354" y="576.0299144284122"/>
      <point x="412.53542342773403" y="589.4983642175962"/>
      <point x="412.53542342773403" y="623.3859965968111" type="curve" smooth="yes"/>
      <point x="412.53542342773403" y="670.9582403788509"/>
      <point x="345.25516560157917" y="698.2586225493908"/>
      <point x="280.54071925161065" y="698.2586225493908" type="curve" smooth="yes"/>
      <point x="170.16834150831892" y="698.2586225493908"/>
      <point x="86.0" y="605.0"/>
      <point x="86.0" y="475.0" type="curve" smooth="yes"/>
      <point x="86.0" y="376.0" type="line"/>
      <point x="87.0" y="233.0" type="line"/>
      <point x="87.0" y="124.0"/>
      <point x="87.0" y="93.0"/>
      <point x="85.0" y="59.0" type="curve"/>
      <point x="23.0" y="43.0" type="line"/>
      <point x="26.0" y="0.0" type="line"/>
    </contour>
    <contour>
      <point x="14.0" y="375.0" type="line"/>
      <point x="305.0" y="375.0" type="line"/>
      <point x="305.0" y="434.0" type="line"/>
      <point x="151.0" y="434.0" type="line"/>
      <point x="86.0" y="436.0" type="line"/>
      <point x="14.0" y="417.0" type="line"/>
    </contour>
  </outline>
</glyph>
<glyph name="g" format="2">
  <advance width="508.0"/>
  <unicode hex="0067"/>
  <note>
g
</note>
  <anchor x="250.0" y="-220.0" name="bottom"/>
  <anchor x="245.0" y="436.0" name="top"/>
  <outline>
    <contour>
      <point x="236.0" y="-228.0" type="curve" smooth="yes"/>
      <point x="375.0" y="-228.0"/>
      <point x="480.0" y="-155.0"/>
      <point x="480.0" y="-62.0" type="curve" smooth="yes"/>
      <point x="480.0" y="7.0"/>
      <point x="432.0" y="49.0"/>
      <point x="333.0" y="59.0" type="curve" smooth="yes"/>
      <point x="189.0" y="73.0" type="line" smooth="yes"/>
      <point x="166.0" y="75.0"/>
      <point x="154.0" y="86.0"/>
      <point x="154.0" y="102.0" type="curve" smooth="yes"/>
      <point x="154.0" y="114.0"/>
      <point x="164.0" y="126.0"/>
      <point x="183.0" y="138.0" type="curve"/>
      <point x="168.0" y="156.0" type="line"/>
      <point x="98.0" y="133.0"/>
      <point x="56.0" y="95.0"/>
      <point x="56.0" y="55.0" type="curve" smooth="yes"/>
      <point x="56.0" y="14.0"/>
      <point x="96.0" y="-14.0"/>
      <point x="157.0" y="-14.0" type="curve"/>
      <point x="168.0" y="-19.0" type="line"/>
      <point x="286.0" y="-29.0" type="line" smooth="yes"/>
      <point x="352.0" y="-35.0"/>
      <point x="377.0" y="-52.0"/>
      <point x="377.0" y="-89.0" type="curve" smooth="yes"/>
      <point x="377.0" y="-140.0"/>
      <point x="321.0" y="-177.0"/>
      <point x="244.0" y="-177.0" type="curve" smooth="yes"/>
      <point x="171.0" y="-177.0"/>
      <point x="129.0" y="-149.0"/>
      <point x="129.0" y="-102.0" type="curve" smooth="yes"/>
      <point x="129.0" y="-68.0"/>
      <point x="151.0" y="-36.0"/>
      <point x="187.0" y="-12.0" type="curve"/>
      <point x="145.0" y="-6.0" type="line"/>
      <point x="64.0" y="-35.0"/>
      <point x="20.0" y="-74.0"/>
      <point x="20.0" y="-119.0" type="curve" smooth="yes"/>
      <point x="20.0" y="-186.0"/>
      <point x="101.0" y="-228.0"/>
    </contour>
    <contour>
      <point x="242.0" y="120.0" type="curve" smooth="yes"/>
      <point x="354.0" y="120.0"/>
      <point x="435.0" y="187.0"/>
      <point x="435.0" y="280.0" type="curve" smooth="yes"/>
      <point x="435.0" y="373.0"/>
      <point x="354.0" y="445.0"/>
      <point x="244.0" y="445.0" type="curve" smooth="yes"/>
      <point x="132.0" y="445.0"/>
      <point x="47.0" y="374.0"/>
      <point x="47.0" y="277.0" type="curve" smooth="yes"/>
      <point x="47.0" y="184.0"/>
      <point x="125.0" y="120.0"/>
    </contour>
    <contour>
      <point x="249.0" y="172.0" type="curve" smooth="yes"/>
      <point x="200.0" y="172.0"/>
      <point x="167.0" y="217.0"/>
      <point x="167.0" y="284.0" type="curve" smooth="yes"/>
      <point x="167.0" y="349.0"/>
      <point x="198.0" y="393.0"/>
      <point x="243.0" y="393.0" type="curve" smooth="yes"/>
      <point x="291.0" y="393.0"/>
      <point x="323.0" y="347.0"/>
      <point x="323.0" y="276.0" type="curve" smooth="yes"/>
      <point x="323.0" y="212.0"/>
      <point x="294.0" y="172.0"/>
    </contour>
    <contour>
      <point x="492.0" y="359.0" type="line"/>
      <point x="492.0" y="434.0" type="line"/>
      <point x="325.0" y="415.0" type="line"/>
      <point x="362.0" y="371.0" type="line"/>
    </contour>
  </outline>
</glyph>
<glyph name="k" format="2">
  <advance width="533.0"/>
  <unicode hex="006B"/>
  <note>
k
</note>
  <anchor x="280.0" y="0.0" name="bottom"/>
  <anchor x="144.0" y="660.0" name="top"/>
  <outline>
    <contour>
      <point x="27.0" y="0.0" type="line"/>
      <point x="261.0" y="0.0" type="line"/>
      <point x="264.0" y="43.0" type="line"/>
      <point x="202.0" y="59.0" type="line"/>
      <point x="201.0" y="68.0"/>
      <point x="198.0" y="104.0"/>
      <point x="198.0" y="155.0" type="curve"/>
      <point x="199.0" y="388.0" type="line"/>
      <point x="199.0" y="533.0"/>
      <point x="200.0" y="599.0"/>
      <point x="205.0" y="680.0" type="curve"/>
      <point x="180.0" y="696.0" type="line"/>
      <point x="7.0" y="650.0" type="line"/>
      <point x="9.0" y="611.0" type="line"/>
      <point x="83.0" y="601.0" type="line"/>
      <point x="85.0" y="564.0"/>
      <point x="87.0" y="458.0"/>
      <point x="87.0" y="362.0" type="curve" smooth="yes"/>
      <point x="87.0" y="228.0" type="line" smooth="yes"/>
      <point x="87.0" y="156.0"/>
      <point x="85.0" y="79.0"/>
      <point x="81.0" y="59.0" type="curve"/>
      <point x="24.0" y="43.0" type="line"/>
    </contour>
    <contour>
      <point x="538.0" y="0.0" type="line"/>
      <point x="541.0" y="43.0" type="line"/>
      <point x="500.0" y="52.0" type="line"/>
      <point x="489.0" y="62.0"/>
      <point x="466.0" y="85.0"/>
      <point x="443.0" y="110.0" type="curve" smooth="yes"/>
      <point x="292.0" y="276.0" type="line"/>
      <point x="281.0" y="234.0" type="line"/>
      <point x="452.0" y="380.0" type="line"/>
      <point x="518.0" y="392.0" type="line"/>
      <point x="515.0" y="436.0" type="line"/>
      <point x="301.0" y="436.0" type="line"/>
      <point x="298.0" y="392.0" type="line"/>
      <point x="364.0" y="381.0" type="line"/>
      <point x="218.0" y="242.0" type="line"/>
      <point x="185.0" y="234.0" type="line"/>
      <point x="184.0" y="201.0" type="line"/>
      <point x="210.0" y="201.0" type="line"/>
      <point x="335.0" y="64.0" type="line" smooth="yes"/>
      <point x="351.0" y="46.0"/>
      <point x="366.0" y="29.0"/>
      <point x="388.0" y="0.0" type="curve"/>
    </contour>
  </outline>
</glyph>
<glyph name="p" format="2">
  <advance width="554.0"/>
  <unicode hex="0070"/>
  <note>
p
</note>
  <anchor x="279.0" y="436.0" name="top"/>
  <outline>
    <contour>
      <point x="20.0" y="-220.0" type="line"/>
      <point x="280.0" y="-220.0" type="line"/>
      <point x="283.0" y="-176.0" type="line"/>
      <point x="201.0" y="-161.0" type="line"/>
      <point x="199.0" y="-150.0"/>
      <point x="197.0" y="-107.0"/>
      <point x="197.0" y="-60.0" type="curve" smooth="yes"/>
      <point x="197.0" y="7.0" type="line"/>
      <point x="221.0" y="-2.0"/>
      <point x="251.0" y="-7.0"/>
      <point x="276.0" y="-7.0" type="curve" smooth="yes"/>
      <point x="419.0" y="-7.0"/>
      <point x="516.0" y="102.0"/>
      <point x="516.0" y="234.0" type="curve" smooth="yes"/>
      <point x="516.0" y="363.0"/>
      <point x="431.0" y="444.0"/>
      <point x="331.0" y="444.0" type="curve" smooth="yes"/>
      <point x="278.0" y="444.0"/>
      <point x="229.0" y="414.0"/>
      <point x="196.0" y="366.0" type="curve"/>
      <point x="193.0" y="367.0" type="line"/>
      <point x="200.0" y="425.0" type="line"/>
      <point x="176.0" y="442.0" type="line"/>
      <point x="13.0" y="399.0" type="line"/>
      <point x="13.0" y="358.0" type="line"/>
      <point x="77.0" y="344.0" type="line"/>
      <point x="83.0" y="313.0"/>
      <point x="86.0" y="279.0"/>
      <point x="86.0" y="239.0" type="curve" smooth="yes"/>
      <point x="84.0" y="25.0" type="line" smooth="yes"/>
      <point x="83.0" y="-78.0"/>
      <point x="80.0" y="-148.0"/>
      <point x="79.0" y="-161.0" type="curve"/>
      <point x="17.0" y="-177.0" type="line"/>
    </contour>
    <contour>
      <point x="278.0" y="57.0" type="curve" smooth="yes"/>
      <point x="248.0" y="57.0"/>
      <point x="218.0" y="66.0"/>
      <point x="197.0" y="81.0" type="curve"/>
      <point x="197.0" y="313.0" type="line"/>
      <point x="219.0" y="342.0"/>
      <point x="250.0" y="358.0"/>
      <point x="283.0" y="358.0" type="curve" smooth="yes"/>
      <point x="344.0" y="358.0"/>
      <point x="395.0" y="307.0"/>
      <point x="394.0" y="207.0" type="curve" smooth="yes"/>
      <point x="393.0" y="106.0"/>
      <point x="347.0" y="57.0"/>
    </contour>
  </outline>
</glyph>
<glyph name="r" format="2">
  <advance width="393.0"/>
  <unicode hex="0072"/>
  <note>
    r
  </note>
  <anchor x="145.0" y="0.0" name="bottom"/>
  <anchor x="186.0" y="436.0" name="top"/>
  <outline>
    <contour>
      <point x="316.0" y="441.0" type="curve" smooth="yes"/>
      <point x="276.0" y="441.0"/>
      <point x="235.0" y="419.0"/>
      <point x="197.0" y="345.0" type="curve"/>
      <point x="194.0" y="346.0" type="line"/>
      <point x="198.0" y="426.0" type="line"/>
      <point x="176.0" y="442.0" type="line"/>
      <point x="15.0" y="399.0" type="line"/>
      <point x="15.0" y="358.0" type="line"/>
      <point x="79.0" y="344.0" type="line"/>
      <point x="85.0" y="313.0"/>
      <point x="88.0" y="278.0"/>
      <point x="88.0" y="237.0" type="curve"/>
      <point x="87.0" y="161.0" type="line" smooth="yes"/>
      <point x="86.0" y="102.0"/>
      <point x="84.0" y="67.0"/>
      <point x="82.0" y="59.0" type="curve"/>
      <point x="20.0" y="43.0" type="line"/>
      <point x="23.0" y="0.0" type="line"/>
      <point x="290.0" y="0.0" type="line"/>
      <point x="293.0" y="45.0" type="line"/>
      <point x="206.0" y="59.0" type="line"/>
      <point x="204.0" y="75.0"/>
      <point x="201.0" y="132.0"/>
      <point x="200.0" y="198.0" type="curve" smooth="yes"/>
      <point x="199.20660802266798" y="270.97474003284333" type="line"/>
      <point x="207.82226714826788" y="306.83451044750154"/>
      <point x="232.1126791598349" y="330.31532041470246"/>
      <point x="252.77792690203296" y="342.12403341024424" type="curve" smooth="yes"/>
      <point x="258.0143237643791" y="345.11626018872676"/>
      <point x="267.108106324393" y="345.05327016799964"/>
      <point x="273.23230476931076" y="341.7022936604035" type="curve" smooth="yes"/>
      <point x="284.4084081400915" y="335.5870672877122"/>
      <point x="302.1214776334041" y="317.0305182947179"/>
      <point x="310.34540275529935" y="304.80006554933516" type="curve"/>
      <point x="346.6708844740442" y="304.5206387668834"/>
      <point x="385.11856061398817" y="334.29151354064174"/>
      <point x="385.11856061398817" y="373.29151354064174" type="curve" smooth="yes"/>
      <point x="385.11856061398817" y="420.794066557462"/>
      <point x="350.0" y="441.0"/>
    </contour>
  </outline>
</glyph>
<glyph name="t" format="2">
  <advance width="359.0"/>
  <unicode hex="0074"/>
  <note>
    t
  </note>
  <anchor x="199.0" y="0.0" name="bottom"/>
  <anchor x="134.0" y="270.0" name="stroke"/>
  <anchor x="174.0" y="524.0" name="top"/>
  <anchor x="232.0" y="688.0" name="topright"/>
  <outline>
    <contour>
      <point x="362.7315637999484" y="64.57834851797838" type="curve"/>
      <point x="343.8011183205381" y="100.64461008884359" type="line"/>
      <point x="327.5191984701278" y="87.25725376739501"/>
      <point x="296.0" y="75.0"/>
      <point x="270.0" y="75.0" type="curve" smooth="yes"/>
      <point x="219.0" y="75.0"/>
      <point x="190.0" y="101.0"/>
      <point x="190.0" y="161.0" type="curve"/>
      <point x="192.0" y="401.0" type="line"/>
      <point x="194.0" y="533.0" type="line"/>
      <point x="165.0" y="533.0" type="line"/>
      <point x="10.0" y="405.0" type="line"/>
      <point x="10.0" y="376.0" type="line"/>
      <point x="80.0" y="376.0" type="line"/>
      <point x="77.0" y="148.0" type="line"/>
      <point x="77.0" y="43.0"/>
      <point x="140.0" y="-9.0"/>
      <point x="229.0" y="-9.0" type="curve" smooth="yes"/>
      <point x="288.0" y="-9.0"/>
      <point x="337.9830456273246" y="26.283273029813017"/>
    </contour>
    <contour>
      <point x="140.0" y="376.0" type="line"/>
      <point x="336.0" y="376.0" type="line"/>
      <point x="336.0" y="435.0" type="line"/>
      <point x="140.0" y="435.0" type="line"/>
    </contour>
  </outline>
</glyph>
<glyph name="w" format="2">
  <advance width="793.0"/>
  <unicode hex="0077"/>
  <note>
w
</note>
  <anchor x="394.0" y="0.0" name="bottom"/>
  <anchor x="424.0" y="436.0" name="top"/>
  <outline>
    <contour>
      <point x="527.0" y="-4.0" type="line"/>
      <point x="567.0" y="-4.0" type="line"/>
      <point x="751.0" y="377.0" type="line"/>
      <point x="798.0" y="393.0" type="line"/>
      <point x="796.0" y="436.0" type="line"/>
      <point x="630.0" y="436.0" type="line"/>
      <point x="628.0" y="393.0" type="line"/>
      <point x="680.0" y="377.0" type="line"/>
      <point x="568.0" y="113.0" type="line"/>
      <point x="595.0" y="113.0" type="line"/>
      <point x="488.0" y="377.0" type="line"/>
      <point x="540.0" y="393.0" type="line"/>
      <point x="538.0" y="436.0" type="line"/>
      <point x="315.0" y="436.0" type="line"/>
      <point x="312.0" y="393.0" type="line"/>
      <point x="361.0" y="377.0" type="line"/>
    </contour>
    <contour>
      <point x="219.0" y="-4.0" type="line"/>
      <point x="258.0" y="-4.0" type="line"/>
      <point x="416.0" y="316.0" type="line"/>
      <point x="382.0" y="380.0" type="line"/>
      <point x="260.0" y="113.0" type="line"/>
      <point x="291.0" y="113.0" type="line"/>
      <point x="178.0" y="377.0" type="line"/>
      <point x="227.0" y="393.0" type="line"/>
      <point x="225.0" y="436.0" type="line"/>
      <point x="2.0" y="436.0" type="line"/>
      <point x="0.0" y="393.0" type="line"/>
      <point x="47.0" y="377.0" type="line"/>
    </contour>
  </outline>
</glyph>
<glyph name="y" format="2">
  <advance width="488.0"/>
  <unicode hex="0079"/>
  <note>
    y
  </note>
  <anchor x="323.0" y="0.0" name="bottom"/>
  <anchor x="274.0" y="436.0" name="top"/>
  <outline>
    <contour>
      <point x="222.0" y="-4.0" type="line"/>
      <point x="292.0" y="113.0" type="line"/>
      <point x="172.0" y="377.0" type="line"/>
      <point x="234.0" y="393.0" type="line"/>
      <point x="231.0" y="436.0" type="line"/>
      <point x="-3.0" y="436.0" type="line"/>
      <point x="-6.0" y="393.0" type="line"/>
      <point x="41.0" y="377.0" type="line"/>
    </contour>
    <contour>
      <point x="87.0" y="-228.0" type="curve" smooth="yes"/>
      <point x="129.0" y="-228.0"/>
      <point x="164.0" y="-207.0"/>
      <point x="197.0" y="-137.0" type="curve" smooth="yes"/>
      <point x="276.0" y="29.0" type="line"/>
      <point x="449.0" y="377.0" type="line"/>
      <point x="496.0" y="393.0" type="line"/>
      <point x="493.0" y="436.0" type="line"/>
      <point x="318.0" y="436.0" type="line"/>
      <point x="315.0" y="393.0" type="line"/>
      <point x="377.0" y="377.0" type="line"/>
      <point x="262.0" y="113.0" type="line"/>
      <point x="250.0" y="91.0" type="line"/>
      <point x="152.28259897743283" y="-91.25739283007351" type="line" smooth="yes"/>
      <point x="138.81448128340347" y="-116.37742254387531"/>
      <point x="112.26461290467182" y="-122.7421318726133"/>
      <point x="92.25561986829166" y="-122.7421318726133" type="curve" smooth="yes"/>
      <point x="77.00354171526374" y="-122.7421318726133"/>
      <point x="61.065130723345874" y="-121.56513228223798"/>
      <point x="48.76385028227082" y="-119.42364691641592" type="curve"/>
      <point x="42.22496366907467" y="-123.10177063633864"/>
      <point x="21.90537351856733" y="-147.21391502249958"/>
      <point x="21.90537351856733" y="-171.3260594086605" type="curve" smooth="yes"/>
      <point x="21.90537351856733" y="-201.32605940866614"/>
      <point x="45.0" y="-228.0"/>
    </contour>
  </outline>
</glyph>
<glyph name="braceright" format="2">
  <advance width="377.0"/>
  <unicode hex="007D"/>
  <note>
braceright
</note>
  <outline>
    <contour>
      <point x="145.0" y="-79.0" type="curve" smooth="yes"/>
      <point x="145.0" y="-140.0"/>
      <point x="106.0" y="-170.0"/>
      <point x="42.0" y="-180.0" type="curve"/>
      <point x="54.0" y="-228.0" type="line"/>
      <point x="190.0" y="-211.0"/>
      <point x="269.0" y="-160.0"/>
      <point x="269.0" y="-63.0" type="curve" smooth="yes"/>
      <point x="269.0" y="11.0"/>
      <point x="216.0" y="86.0"/>
      <point x="216.0" y="147.0" type="curve" smooth="yes"/>
      <point x="216.0" y="195.0"/>
      <point x="241.0" y="219.0"/>
      <point x="320.0" y="222.0" type="curve"/>
      <point x="320.0" y="280.0" type="line"/>
      <point x="241.0" y="283.0"/>
      <point x="216.0" y="307.0"/>
      <point x="216.0" y="355.0" type="curve" smooth="yes"/>
      <point x="216.0" y="416.0"/>
      <point x="269.0" y="491.0"/>
      <point x="269.0" y="565.0" type="curve" smooth="yes"/>
      <point x="269.0" y="662.0"/>
      <point x="190.0" y="713.0"/>
      <point x="54.0" y="730.0" type="curve"/>
      <point x="42.0" y="682.0" type="line"/>
      <point x="106.0" y="672.0"/>
      <point x="145.0" y="642.0"/>
      <point x="145.0" y="581.0" type="curve" smooth="yes"/>
      <point x="145.0" y="511.0"/>
      <point x="105.0" y="458.0"/>
      <point x="105.0" y="378.0" type="curve" smooth="yes"/>
      <point x="105.0" y="306.0"/>
      <point x="153.0" y="259.0"/>
      <point x="236.0" y="249.0" type="curve"/>
      <point x="236.0" y="263.0" type="line"/>
      <point x="153.0" y="252.0"/>
      <point x="105.0" y="197.0"/>
      <point x="105.0" y="124.0" type="curve" smooth="yes"/>
      <point x="105.0" y="44.0"/>
      <point x="145.0" y="-9.0"/>
    </contour>
  </outline>
</glyph>
<glyph name="yen" format="2">
  <advance width="566.0"/>
  <unicode hex="00A5"/>
  <note>
yen
</note>
  <outline>
    <contour>
      <point x="76.0" y="245.0" type="line"/>
      <point x="486.0" y="245.0" type="line"/>
      <point x="486.0" y="299.0" type="line"/>
      <point x="76.0" y="299.0" type="line"/>
    </contour>
    <contour>
      <point x="76.0" y="127.0" type="line"/>
      <point x="486.0" y="127.0" type="line"/>
      <point x="486.0" y="182.0" type="line"/>
      <point x="76.0" y="182.0" type="line"/>
    </contour>
    <contour>
      <point x="513.0" y="526.0" type="line"/>
      <point x="564.0" y="541.0" type="line"/>
      <point x="561.0" y="587.0" type="line"/>
      <point x="368.0" y="587.0" type="line"/>
      <point x="365.0" y="541.0" type="line"/>
      <point x="435.0" y="526.0" type="line"/>
      <point x="303.0" y="301.0" type="line"/>
      <point x="324.0" y="301.0" type="line"/>
      <point x="190.0" y="526.0" type="line"/>
      <point x="252.0" y="541.0" type="line"/>
      <point x="249.0" y="587.0" type="line"/>
      <point x="5.0" y="587.0" type="line"/>
      <point x="2.0" y="541.0" type="line"/>
      <point x="53.0" y="526.0" type="line"/>
      <point x="252.0" y="195.0" type="line"/>
      <point x="224.0" y="284.0" type="line"/>
      <point x="224.0" y="186.0" type="line" smooth="yes"/>
      <point x="224.0" y="120.0"/>
      <point x="221.0" y="69.0"/>
      <point x="218.0" y="61.0" type="curve"/>
      <point x="148.0" y="47.0" type="line"/>
      <point x="151.0" y="0.0" type="line"/>
      <point x="414.0" y="0.0" type="line"/>
      <point x="417.0" y="47.0" type="line"/>
      <point x="347.0" y="61.0" type="line"/>
      <point x="343.0" y="69.0"/>
      <point x="341.0" y="120.0"/>
      <point x="341.0" y="186.0" type="curve" smooth="yes"/>
      <point x="341.0" y="284.0" type="line"/>
      <point x="304.0" y="195.0" type="line"/>
    </contour>
  </outline>
</glyph>
<glyph name="ordfeminine" format="2">
  <advance width="412.0"/>
  <unicode hex="00AA"/>
  <note>
ordfeminine
</note>
  <outline>
    <contour>
      <point x="153.0" y="226.0" type="curve" smooth="yes"/>
      <point x="183.0" y="226.0"/>
      <point x="218.0" y="243.0"/>
      <point x="255.0" y="293.0" type="curve"/>
      <point x="238.0" y="300.0" type="line"/>
      <point x="255.0" y="262.0" type="line" smooth="yes"/>
      <point x="265.0" y="240.0"/>
      <point x="276.0" y="226.0"/>
      <point x="299.0" y="226.0" type="curve" smooth="yes"/>
      <point x="313.0" y="226.0"/>
      <point x="327.0" y="232.0"/>
      <point x="346.0" y="240.0" type="curve" smooth="yes"/>
      <point x="403.0" y="264.0" type="line"/>
      <point x="403.0" y="300.0" type="line"/>
      <point x="350.0" y="312.0" type="line"/>
      <point x="344.0" y="327.0"/>
      <point x="343.0" y="344.0"/>
      <point x="343.0" y="370.0" type="curve"/>
      <point x="343.0" y="471.0" type="line"/>
      <point x="344.0" y="548.0"/>
      <point x="286.0" y="595.0"/>
      <point x="189.0" y="595.0" type="curve"/>
      <point x="143.0" y="590.0"/>
      <point x="40.0" y="539.0"/>
      <point x="40.0" y="492.0" type="curve" smooth="yes"/>
      <point x="40.0" y="461.0"/>
      <point x="78.0" y="442.0"/>
      <point x="131.0" y="453.0" type="curve"/>
      <point x="135.0" y="508.0" type="line" smooth="yes"/>
      <point x="136.0" y="526.0"/>
      <point x="141.0" y="532.0"/>
      <point x="161.0" y="532.0" type="curve" smooth="yes"/>
      <point x="200.0" y="532.0"/>
      <point x="236.0" y="505.0"/>
      <point x="236.0" y="467.0" type="curve" smooth="yes"/>
      <point x="236.0" y="442.0" type="line"/>
      <point x="106.0" y="407.0" type="line" smooth="yes"/>
      <point x="54.0" y="393.0"/>
      <point x="35.0" y="364.0"/>
      <point x="35.0" y="326.0" type="curve" smooth="yes"/>
      <point x="35.0" y="285.0"/>
      <point x="80.0" y="226.0"/>
    </contour>
    <contour>
      <point x="200.0" y="302.0" type="curve" smooth="yes"/>
      <point x="169.0" y="302.0"/>
      <point x="146.0" y="323.0"/>
      <point x="146.0" y="348.0" type="curve" smooth="yes"/>
      <point x="146.0" y="369.0"/>
      <point x="158.0" y="383.0"/>
      <point x="181.0" y="387.0" type="curve" smooth="yes"/>
      <point x="238.0" y="396.0" type="line"/>
      <point x="238.0" y="315.0" type="line"/>
      <point x="225.0" y="305.0"/>
      <point x="211.0" y="302.0"/>
    </contour>
  </outline>
</glyph>
<glyph name="registered" format="2">
  <advance width="811.0"/>
  <unicode hex="00AE"/>
  <outline>
    <contour>
      <point x="222.0" y="196.0" type="line"/>
      <point x="225.0" y="158.0" type="line"/>
      <point x="411.0" y="158.0" type="line"/>
      <point x="413.0" y="196.0" type="line"/>
      <point x="375.0" y="209.0" type="line"/>
      <point x="375.0" y="218.0"/>
      <point x="373.0" y="265.0"/>
      <point x="373.0" y="314.0" type="curve" smooth="yes"/>
      <point x="373.0" y="511.0" type="line"/>
      <point x="398.0" y="511.0" type="line" smooth="yes"/>
      <point x="434.0" y="511.0"/>
      <point x="464.0" y="495.0"/>
      <point x="464.0" y="449.0" type="curve" smooth="yes"/>
      <point x="464.0" y="396.0"/>
      <point x="426.0" y="376.0"/>
      <point x="391.0" y="376.0" type="curve" smooth="yes"/>
      <point x="386.0" y="376.0"/>
      <point x="377.0" y="376.0"/>
      <point x="369.0" y="377.0" type="curve"/>
      <point x="369.0" y="336.0" type="line"/>
      <point x="407.0" y="336.0" type="line" smooth="yes"/>
      <point x="503.0" y="336.0"/>
      <point x="575.0" y="383.0"/>
      <point x="575.0" y="448.0" type="curve" smooth="yes"/>
      <point x="575.0" y="525.0"/>
      <point x="512.0" y="553.0"/>
      <point x="409.0" y="553.0" type="curve"/>
      <point x="221.0" y="553.0" type="line"/>
      <point x="218.0" y="513.0" type="line"/>
      <point x="263.0" y="502.0" type="line"/>
      <point x="267.0" y="497.0"/>
      <point x="269.0" y="448.0"/>
      <point x="269.0" y="399.0" type="curve" smooth="yes"/>
      <point x="269.0" y="314.0" type="line" smooth="yes"/>
      <point x="269.0" y="265.0"/>
      <point x="268.0" y="214.0"/>
      <point x="267.0" y="209.0" type="curve"/>
    </contour>
    <contour>
      <point x="569.0" y="153.0" type="curve" smooth="yes"/>
      <point x="585.0" y="153.0"/>
      <point x="599.0" y="155.0"/>
      <point x="615.0" y="158.0" type="curve"/>
      <point x="620.0" y="192.0" type="line"/>
      <point x="590.0" y="201.0"/>
      <point x="566.0" y="221.0"/>
      <point x="544.0" y="254.0" type="curve" smooth="yes"/>
      <point x="475.0" y="365.0" type="line"/>
      <point x="387.0" y="346.0" type="line"/>
      <point x="421.0" y="265.0" type="line" smooth="yes"/>
      <point x="454.0" y="186.0"/>
      <point x="490.0" y="153.0"/>
    </contour>
    <contour>
      <point x="406.0" y="-8.0" type="curve" smooth="yes"/>
      <point x="609.0" y="-8.0"/>
      <point x="766.0" y="147.0"/>
      <point x="766.0" y="349.0" type="curve" smooth="yes"/>
      <point x="766.0" y="552.0"/>
      <point x="609.0" y="706.0"/>
      <point x="406.0" y="706.0" type="curve" smooth="yes"/>
      <point x="202.0" y="706.0"/>
      <point x="45.0" y="552.0"/>
      <point x="45.0" y="349.0" type="curve" smooth="yes"/>
      <point x="45.0" y="147.0"/>
      <point x="203.0" y="-8.0"/>
    </contour>
    <contour>
      <point x="406.0" y="35.0" type="curve" smooth="yes"/>
      <point x="229.0" y="35.0"/>
      <point x="93.0" y="171.0"/>
      <point x="93.0" y="350.0" type="curve" smooth="yes"/>
      <point x="93.0" y="528.0"/>
      <point x="229.0" y="663.0"/>
      <point x="406.0" y="663.0" type="curve" smooth="yes"/>
      <point x="582.0" y="663.0"/>
      <point x="719.0" y="528.0"/>
      <point x="719.0" y="350.0" type="curve" smooth="yes"/>
      <point x="719.0" y="171.0"/>
      <point x="582.0" y="35.0"/>
    </contour>
  </outline>
</glyph>
<glyph name="ordmasculine" format="2">
  <advance width="436.0"/>
  <unicode hex="00BA"/>
  <note>
ordmasculine
</note>
  <outline>
    <contour>
      <point x="220.0" y="226.0" type="curve" smooth="yes"/>
      <point x="324.0" y="226.0"/>
      <point x="406.0" y="309.0"/>
      <point x="406.0" y="415.0" type="curve" smooth="yes"/>
      <point x="406.0" y="520.0"/>
      <point x="331.0" y="595.0"/>
      <point x="224.0" y="595.0" type="curve" smooth="yes"/>
      <point x="114.0" y="595.0"/>
      <point x="29.0" y="519.0"/>
      <point x="29.0" y="405.0" type="curve" smooth="yes"/>
      <point x="29.0" y="301.0"/>
      <point x="108.0" y="226.0"/>
    </contour>
    <contour>
      <point x="229.0" y="281.0" type="curve" smooth="yes"/>
      <point x="183.0" y="281.0"/>
      <point x="146.0" y="349.0"/>
      <point x="146.0" y="434.0" type="curve" smooth="yes"/>
      <point x="146.0" y="503.0"/>
      <point x="170.0" y="543.0"/>
      <point x="209.0" y="543.0" type="curve" smooth="yes"/>
      <point x="258.0" y="543.0"/>
      <point x="291.0" y="478.0"/>
      <point x="291.0" y="384.0" type="curve" smooth="yes"/>
      <point x="291.0" y="316.0"/>
      <point x="269.0" y="281.0"/>
    </contour>
  </outline>
</glyph>
<glyph name="questiondown" format="2">
  <advance width="373.0"/>
  <unicode hex="00BF"/>
  <note>
questiondown
</note>
  <outline>
    <contour>
      <point x="265.0" y="224.0" type="curve"/>
      <point x="212.0" y="224.0" type="line"/>
      <point x="215.0" y="204.0"/>
      <point x="217.0" y="193.0"/>
      <point x="217.0" y="182.0" type="curve" smooth="yes"/>
      <point x="217.0" y="109.0"/>
      <point x="41.0" y="104.0"/>
      <point x="41.0" y="-24.0" type="curve" smooth="yes"/>
      <point x="41.0" y="-137.0"/>
      <point x="147.0" y="-229.0"/>
      <point x="279.0" y="-229.0" type="curve" smooth="yes"/>
      <point x="334.0" y="-229.0"/>
      <point x="364.0" y="-204.0"/>
      <point x="364.0" y="-170.0" type="curve" smooth="yes"/>
      <point x="364.0" y="-136.0"/>
      <point x="335.0" y="-110.0"/>
      <point x="290.0" y="-110.0" type="curve" smooth="yes"/>
      <point x="257.0" y="-110.0"/>
      <point x="227.0" y="-127.0"/>
      <point x="195.0" y="-127.0" type="curve" smooth="yes"/>
      <point x="152.0" y="-127.0"/>
      <point x="125.0" y="-104.0"/>
      <point x="125.0" y="-72.0" type="curve" smooth="yes"/>
      <point x="125.0" y="-1.0"/>
      <point x="291.0" y="41.0"/>
      <point x="291.0" y="130.0" type="curve" smooth="yes"/>
      <point x="291.0" y="161.0"/>
      <point x="284.0" y="187.0"/>
    </contour>
    <contour>
      <point x="238.0" y="445.0" type="curve" smooth="yes"/>
      <point x="192.0" y="445.0"/>
      <point x="156.0" y="410.0"/>
      <point x="156.0" y="363.0" type="curve" smooth="yes"/>
      <point x="156.0" y="317.0"/>
      <point x="192.0" y="282.0"/>
      <point x="238.0" y="282.0" type="curve" smooth="yes"/>
      <point x="285.0" y="282.0"/>
      <point x="322.0" y="317.0"/>
      <point x="322.0" y="363.0" type="curve" smooth="yes"/>
      <point x="322.0" y="409.0"/>
      <point x="286.0" y="445.0"/>
    </contour>
  </outline>
</glyph>
<glyph name="AE" format="2">
  <advance width="822.0"/>
  <unicode hex="00C6"/>
  <note>
AE
</note>
  <anchor x="425.0" y="0.0" name="bottom"/>
  <anchor x="425.0" y="587.0" name="top"/>
  <outline>
    <contour>
      <point x="757.0" y="-6.0" type="curve"/>
      <point x="800.0" y="151.0" type="line"/>
      <point x="747.0" y="161.0" type="line"/>
      <point x="694.0" y="63.0" type="line"/>
      <point x="679.0" y="60.0"/>
      <point x="670.0" y="59.0"/>
      <point x="623.0" y="59.0" type="curve" smooth="yes"/>
      <point x="564.0" y="59.0" type="line" smooth="yes"/>
      <point x="528.0" y="59.0"/>
      <point x="509.0" y="60.0"/>
      <point x="484.0" y="62.0" type="curve"/>
      <point x="483.0" y="75.0"/>
      <point x="482.0" y="101.0"/>
      <point x="482.0" y="179.0" type="curve" smooth="yes"/>
      <point x="482.0" y="409.0" type="line" smooth="yes"/>
      <point x="482.0" y="487.0"/>
      <point x="483.0" y="518.0"/>
      <point x="484.0" y="529.0" type="curve"/>
      <point x="503.0" y="531.0"/>
      <point x="525.0" y="532.0"/>
      <point x="549.0" y="532.0" type="curve" smooth="yes"/>
      <point x="627.0" y="532.0" type="line" smooth="yes"/>
      <point x="643.0" y="532.0"/>
      <point x="655.0" y="531.0"/>
      <point x="670.0" y="528.0" type="curve"/>
      <point x="706.0" y="442.0" type="line"/>
      <point x="760.0" y="449.0" type="line"/>
      <point x="736.0" y="592.0" type="line"/>
      <point x="702.0" y="590.0"/>
      <point x="641.0" y="587.0"/>
      <point x="601.0" y="587.0" type="curve" smooth="yes"/>
      <point x="281.0" y="587.0" type="line"/>
      <point x="278.0" y="541.0" type="line"/>
      <point x="372.0" y="526.0" type="line"/>
      <point x="361.0" y="563.0" type="line"/>
      <point x="30.0" y="61.0" type="line"/>
      <point x="-23.0" y="46.0" type="line"/>
      <point x="-20.0" y="0.0" type="line"/>
      <point x="166.0" y="0.0" type="line"/>
      <point x="169.0" y="46.0" type="line"/>
      <point x="106.0" y="61.0" type="line"/>
      <point x="398.0" y="523.0" type="line"/>
      <point x="366.0" y="509.0" type="line"/>
      <point x="366.0" y="179.0" type="line" smooth="yes"/>
      <point x="366.0" y="122.0"/>
      <point x="365.0" y="85.0"/>
      <point x="364.0" y="61.0" type="curve"/>
      <point x="301.0" y="46.0" type="line"/>
      <point x="304.0" y="0.0" type="line"/>
      <point x="634.0" y="0.0" type="line" smooth="yes"/>
      <point x="669.0" y="0.0"/>
      <point x="718.0" y="-3.0"/>
    </contour>
    <contour>
      <point x="155.0" y="167.0" type="line"/>
      <point x="182.0" y="169.0"/>
      <point x="218.0" y="171.0"/>
      <point x="271.0" y="171.0" type="curve" smooth="yes"/>
      <point x="319.0" y="171.0"/>
      <point x="348.0" y="170.0"/>
      <point x="386.0" y="169.0" type="curve"/>
      <point x="386.0" y="232.0" type="line"/>
      <point x="356.0" y="229.0"/>
      <point x="321.0" y="228.0"/>
      <point x="271.0" y="228.0" type="curve" smooth="yes"/>
      <point x="217.0" y="228.0"/>
      <point x="197.0" y="230.0"/>
      <point x="173.0" y="232.0" type="curve"/>
    </contour>
    <contour>
      <point x="635.0" y="202.0" type="line"/>
      <point x="685.0" y="202.0" type="line"/>
      <point x="685.0" y="401.0" type="line"/>
      <point x="635.0" y="401.0" type="line"/>
      <point x="624.0" y="334.0" type="line"/>
      <point x="615.0" y="333.0"/>
      <point x="596.0" y="332.0"/>
      <point x="571.0" y="332.0" type="curve" smooth="yes"/>
      <point x="520.0" y="332.0" type="line" smooth="yes"/>
      <point x="498.0" y="332.0"/>
      <point x="479.0" y="333.0"/>
      <point x="464.0" y="334.0" type="curve"/>
      <point x="464.0" y="269.0" type="line"/>
      <point x="479.0" y="270.0"/>
      <point x="498.0" y="272.0"/>
      <point x="520.0" y="272.0" type="curve" smooth="yes"/>
      <point x="571.0" y="272.0" type="line" smooth="yes"/>
      <point x="596.0" y="272.0"/>
      <point x="615.0" y="270.0"/>
      <point x="624.0" y="269.0" type="curve"/>
    </contour>
  </outline>
</glyph>
<glyph name="Thorn" format="2">
  <advance width="545.0"/>
  <unicode hex="00DE"/>
  <note>
Thorn
</note>
  <outline>
    <contour>
      <point x="45.0" y="0.0" type="line"/>
      <point x="305.0" y="0.0" type="line"/>
      <point x="308.0" y="48.0" type="line"/>
      <point x="227.0" y="61.0" type="line"/>
      <point x="226.0" y="70.0"/>
      <point x="224.0" y="96.0"/>
      <point x="224.0" y="125.0" type="curve" smooth="yes"/>
      <point x="224.0" y="435.0" type="line"/>
      <point x="261.0" y="435.0" type="line" smooth="yes"/>
      <point x="337.0" y="435.0"/>
      <point x="387.0" y="394.0"/>
      <point x="387.0" y="302.0" type="curve" smooth="yes"/>
      <point x="387.0" y="225.0"/>
      <point x="347.0" y="182.0"/>
      <point x="278.0" y="182.0" type="curve" smooth="yes"/>
      <point x="251.0" y="182.0"/>
      <point x="229.0" y="187.0"/>
      <point x="209.0" y="195.0" type="curve"/>
      <point x="209.0" y="134.0" type="line"/>
      <point x="230.0" y="130.0"/>
      <point x="254.0" y="126.0"/>
      <point x="279.0" y="126.0" type="curve" smooth="yes"/>
      <point x="420.0" y="126.0"/>
      <point x="513.0" y="205.0"/>
      <point x="513.0" y="315.0" type="curve" smooth="yes"/>
      <point x="513.0" y="426.0"/>
      <point x="433.0" y="487.0"/>
      <point x="280.0" y="487.0" type="curve" smooth="yes"/>
      <point x="196.0" y="487.0" type="line"/>
      <point x="224.0" y="453.0" type="line"/>
      <point x="224.0" y="487.0" type="line" smooth="yes"/>
      <point x="224.0" y="504.0"/>
      <point x="225.0" y="519.0"/>
      <point x="225.0" y="526.0" type="curve"/>
      <point x="287.0" y="541.0" type="line"/>
      <point x="284.0" y="587.0" type="line"/>
      <point x="40.0" y="587.0" type="line"/>
      <point x="37.0" y="541.0" type="line"/>
      <point x="100.0" y="526.0" type="line"/>
      <point x="103.0" y="518.0"/>
      <point x="106.0" y="460.0"/>
      <point x="106.0" y="373.0" type="curve" smooth="yes"/>
      <point x="106.0" y="213.0" type="line" smooth="yes"/>
      <point x="106.0" y="127.0"/>
      <point x="103.0" y="70.0"/>
      <point x="100.0" y="61.0" type="curve"/>
      <point x="42.0" y="46.0" type="line"/>
    </contour>
  </outline>
</glyph>
<glyph name="ae" format="2">
  <advance width="713.0"/>
  <unicode hex="00E6"/>
  <note>
ae
</note>
  <anchor x="354.0" y="0.0" name="bottom"/>
  <anchor x="354.0" y="436.0" name="top"/>
  <outline>
    <contour>
      <point x="203.0" y="-8.0" type="curve" smooth="yes"/>
      <point x="249.0" y="-8.0"/>
      <point x="294.0" y="14.0"/>
      <point x="360.0" y="87.0" type="curve"/>
      <point x="330.0" y="126.0" type="line"/>
      <point x="297.0" y="88.0"/>
      <point x="274.0" y="72.0"/>
      <point x="239.0" y="72.0" type="curve" smooth="yes"/>
      <point x="202.0" y="72.0"/>
      <point x="165.0" y="98.0"/>
      <point x="165.0" y="131.0" type="curve" smooth="yes"/>
      <point x="165.0" y="156.0"/>
      <point x="181.0" y="170.0"/>
      <point x="215.0" y="176.0" type="curve" smooth="yes"/>
      <point x="679.0" y="253.0" type="line"/>
      <point x="679.0" y="366.0"/>
      <point x="616.0" y="444.0"/>
      <point x="513.0" y="444.0" type="curve" smooth="yes"/>
      <point x="448.0" y="444.0"/>
      <point x="393.0" y="409.0"/>
      <point x="360.0" y="355.0" type="curve"/>
      <point x="396.0" y="355.0" type="line"/>
      <point x="370.0" y="415.0"/>
      <point x="306.0" y="444.0"/>
      <point x="226.0" y="444.0" type="curve"/>
      <point x="162.0" y="435.0"/>
      <point x="51.0" y="375.0"/>
      <point x="51.0" y="327.0" type="curve" smooth="yes"/>
      <point x="51.0" y="288.0"/>
      <point x="96.0" y="270.0"/>
      <point x="155.0" y="283.0" type="curve"/>
      <point x="159.0" y="337.0" type="line" smooth="yes"/>
      <point x="161.0" y="370.0"/>
      <point x="169.0" y="379.0"/>
      <point x="195.0" y="379.0" type="curve" smooth="yes"/>
      <point x="247.0" y="379.0"/>
      <point x="297.0" y="341.0"/>
      <point x="297.0" y="270.0" type="curve" smooth="yes"/>
      <point x="297.0" y="206.0" type="line" smooth="yes"/>
      <point x="297.0" y="84.0"/>
      <point x="385.0" y="-8.0"/>
      <point x="505.0" y="-8.0" type="curve" smooth="yes"/>
      <point x="583.0" y="-8.0"/>
      <point x="648.0" y="31.0"/>
      <point x="684.0" y="108.0" type="curve"/>
      <point x="654.0" y="135.0" type="line"/>
      <point x="621.0" y="93.0"/>
      <point x="586.0" y="78.0"/>
      <point x="544.0" y="78.0" type="curve" smooth="yes"/>
      <point x="464.0" y="78.0"/>
      <point x="411.0" y="139.0"/>
      <point x="411.0" y="240.0" type="curve" smooth="yes"/>
      <point x="411.0" y="262.0" type="line" smooth="yes"/>
      <point x="411.0" y="348.0"/>
      <point x="450.0" y="393.0"/>
      <point x="499.0" y="393.0" type="curve" smooth="yes"/>
      <point x="547.0" y="393.0"/>
      <point x="575.0" y="353.0"/>
      <point x="575.0" y="285.0" type="curve" smooth="yes"/>
      <point x="575.0" y="255.0" type="line"/>
      <point x="593.0" y="286.0" type="line"/>
      <point x="183.0" y="220.0" type="line" smooth="yes"/>
      <point x="85.0" y="204.0"/>
      <point x="45.0" y="168.0"/>
      <point x="45.0" y="109.0" type="curve" smooth="yes"/>
      <point x="45.0" y="55.0"/>
      <point x="109.0" y="-8.0"/>
    </contour>
  </outline>
</glyph>
<glyph name="eth" format="2">
  <advance width="515.0"/>
  <unicode hex="00F0"/>
  <note>
eth
</note>
  <outline>
    <contour>
      <point x="385.0" y="367.0" type="curve"/>
      <point x="402.0" y="425.0" type="line"/>
      <point x="364.0" y="436.0"/>
      <point x="322.0" y="443.0"/>
      <point x="290.0" y="443.0" type="curve" smooth="yes"/>
      <point x="142.0" y="443.0"/>
      <point x="36.0" y="359.0"/>
      <point x="36.0" y="214.0" type="curve" smooth="yes"/>
      <point x="36.0" y="78.0"/>
      <point x="135.0" y="-8.0"/>
      <point x="260.0" y="-8.0" type="curve" smooth="yes"/>
      <point x="390.0" y="-8.0"/>
      <point x="478.0" y="91.0"/>
      <point x="478.0" y="273.0" type="curve" smooth="yes"/>
      <point x="478.0" y="458.0"/>
      <point x="356.0" y="640.0"/>
      <point x="182.0" y="688.0" type="curve"/>
      <point x="49.0" y="688.0" type="line"/>
      <point x="47.0" y="648.0" type="line"/>
      <point x="261.0" y="588.0"/>
      <point x="360.0" y="445.0"/>
      <point x="360.0" y="231.0" type="curve" smooth="yes"/>
      <point x="360.0" y="101.0"/>
      <point x="331.0" y="51.0"/>
      <point x="276.0" y="51.0" type="curve" smooth="yes"/>
      <point x="213.0" y="51.0"/>
      <point x="159.0" y="111.0"/>
      <point x="159.0" y="228.0" type="curve" smooth="yes"/>
      <point x="159.0" y="330.0"/>
      <point x="207.0" y="387.0"/>
      <point x="289.0" y="387.0" type="curve" smooth="yes"/>
      <point x="325.0" y="387.0"/>
      <point x="354.0" y="382.0"/>
    </contour>
    <contour>
      <point x="88.0" y="487.0" type="line"/>
      <point x="430.0" y="648.0" type="line"/>
      <point x="406.0" y="698.0" type="line"/>
      <point x="64.0" y="537.0" type="line"/>
    </contour>
  </outline>
</glyph>
<glyph name="thorn" format="2">
  <advance width="544.0"/>
  <unicode hex="00FE"/>
  <note>
thorn
</note>
  <outline>
    <contour>
      <point x="10.0" y="-220.0" type="line"/>
      <point x="271.0" y="-220.0" type="line"/>
      <point x="274.0" y="-176.0" type="line"/>
      <point x="192.0" y="-161.0" type="line"/>
      <point x="189.0" y="-150.0"/>
      <point x="187.0" y="-108.0"/>
      <point x="187.0" y="-57.0" type="curve" smooth="yes"/>
      <point x="187.0" y="7.0" type="line"/>
      <point x="212.0" y="-2.0"/>
      <point x="238.0" y="-7.0"/>
      <point x="266.0" y="-7.0" type="curve" smooth="yes"/>
      <point x="410.0" y="-7.0"/>
      <point x="506.0" y="102.0"/>
      <point x="506.0" y="234.0" type="curve" smooth="yes"/>
      <point x="506.0" y="363.0"/>
      <point x="422.0" y="444.0"/>
      <point x="321.0" y="444.0" type="curve" smooth="yes"/>
      <point x="268.0" y="444.0"/>
      <point x="219.0" y="414.0"/>
      <point x="188.0" y="367.0" type="curve"/>
      <point x="185.0" y="368.0" type="line"/>
      <point x="188.0" y="538.0"/>
      <point x="189.0" y="600.0"/>
      <point x="193.0" y="680.0" type="curve"/>
      <point x="169.0" y="696.0" type="line"/>
      <point x="-5.0" y="650.0" type="line"/>
      <point x="-3.0" y="611.0" type="line"/>
      <point x="71.0" y="601.0" type="line"/>
      <point x="74.0" y="563.0"/>
      <point x="75.0" y="452.0"/>
      <point x="76.0" y="361.0" type="curve"/>
      <point x="74.0" y="32.0" type="line" smooth="yes"/>
      <point x="73.0" y="-91.0"/>
      <point x="71.0" y="-147.0"/>
      <point x="69.0" y="-161.0" type="curve"/>
      <point x="7.0" y="-177.0" type="line"/>
    </contour>
    <contour>
      <point x="269.0" y="57.0" type="curve" smooth="yes"/>
      <point x="238.0" y="57.0"/>
      <point x="208.0" y="66.0"/>
      <point x="187.0" y="81.0" type="curve"/>
      <point x="187.0" y="313.0" type="line"/>
      <point x="209.0" y="342.0"/>
      <point x="239.0" y="358.0"/>
      <point x="273.0" y="358.0" type="curve" smooth="yes"/>
      <point x="333.0" y="358.0"/>
      <point x="384.0" y="307.0"/>
      <point x="384.0" y="207.0" type="curve" smooth="yes"/>
      <point x="384.0" y="106.0"/>
      <point x="337.0" y="57.0"/>
    </contour>
  </outline>
</glyph>
<glyph name="aogonek" format="2">
  <advance width="487.0"/>
  <unicode hex="0105"/>
  <note>
aogonek
</note>
  <anchor x="238.0" y="436.0" name="top"/>
  <outline>
    <contour>
      <point x="387.0" y="-223.0" type="curve" smooth="yes"/>
      <point x="432.0" y="-223.0"/>
      <point x="470.0" y="-204.0"/>
      <point x="498.0" y="-173.0" type="curve"/>
      <point x="472.0" y="-138.0" type="line"/>
      <point x="450.0" y="-160.0"/>
      <point x="428.0" y="-173.0"/>
      <point x="404.0" y="-173.0" type="curve" smooth="yes"/>
      <point x="372.0" y="-173.0"/>
      <point x="350.0" y="-151.0"/>
      <point x="350.0" y="-116.0" type="curve" smooth="yes"/>
      <point x="350.0" y="-76.0"/>
      <point x="376.0" y="-37.0"/>
      <point x="476.0" y="31.0" type="curve"/>
      <point x="476.0" y="69.0" type="line"/>
      <point x="411.0" y="81.0" type="line"/>
      <point x="407.0" y="92.0"/>
      <point x="403.0" y="117.0"/>
      <point x="404.0" y="149.0" type="curve" smooth="yes"/>
      <point x="407.0" y="297.0" type="line"/>
      <point x="406.0" y="386.0"/>
      <point x="335.0" y="444.0"/>
      <point x="223.0" y="444.0" type="curve"/>
      <point x="158.0" y="435.0"/>
      <point x="47.0" y="375.0"/>
      <point x="47.0" y="327.0" type="curve" smooth="yes"/>
      <point x="47.0" y="287.0"/>
      <point x="93.0" y="270.0"/>
      <point x="151.0" y="283.0" type="curve"/>
      <point x="155.0" y="337.0" type="line" smooth="yes"/>
      <point x="157.0" y="370.0"/>
      <point x="164.0" y="379.0"/>
      <point x="191.0" y="379.0" type="curve" smooth="yes"/>
      <point x="244.0" y="379.0"/>
      <point x="292.0" y="340.0"/>
      <point x="292.0" y="295.0" type="curve" smooth="yes"/>
      <point x="292.0" y="254.0" type="line"/>
      <point x="136.0" y="206.0" type="line" smooth="yes"/>
      <point x="72.0" y="186.0"/>
      <point x="44.0" y="157.0"/>
      <point x="44.0" y="109.0" type="curve" smooth="yes"/>
      <point x="44.0" y="59.0"/>
      <point x="98.0" y="-8.0"/>
      <point x="188.0" y="-8.0" type="curve" smooth="yes"/>
      <point x="229.0" y="-8.0"/>
      <point x="272.0" y="20.0"/>
      <point x="314.0" y="70.0" type="curve"/>
      <point x="295.0" y="74.0" type="line"/>
      <point x="310.0" y="30.0" type="line" smooth="yes"/>
      <point x="322.0" y="-4.0"/>
      <point x="351.0" y="-14.0"/>
      <point x="401.0" y="1.0" type="curve"/>
      <point x="404.0" y="13.0" type="line"/>
      <point x="314.0" y="-23.0"/>
      <point x="262.0" y="-72.0"/>
      <point x="262.0" y="-125.0" type="curve" smooth="yes"/>
      <point x="262.0" y="-182.0"/>
      <point x="315.0" y="-223.0"/>
    </contour>
    <contour>
      <point x="231.0" y="72.0" type="curve" smooth="yes"/>
      <point x="194.0" y="72.0"/>
      <point x="164.0" y="102.0"/>
      <point x="164.0" y="134.0" type="curve" smooth="yes"/>
      <point x="164.0" y="160.0"/>
      <point x="177.0" y="176.0"/>
      <point x="209.0" y="183.0" type="curve" smooth="yes"/>
      <point x="292.0" y="201.0" type="line"/>
      <point x="292.0" y="101.0" type="line"/>
      <point x="274.0" y="81.0"/>
      <point x="253.0" y="72.0"/>
    </contour>
  </outline>
</glyph>
<glyph name="Eogonek" format="2">
  <advance width="572.0"/>
  <unicode hex="0118"/>
  <note>
Eogonek
</note>
  <anchor x="287.0" y="0.0" name="bottom"/>
  <anchor x="287.0" y="587.0" name="top"/>
  <anchor x="26.0" y="587.0" name="topleft"/>
  <outline>
    <contour>
      <point x="456.0" y="-223.0" type="curve" smooth="yes"/>
      <point x="499.0" y="-223.0"/>
      <point x="539.0" y="-206.0"/>
      <point x="568.0" y="-173.0" type="curve"/>
      <point x="541.0" y="-138.0" type="line"/>
      <point x="517.0" y="-162.0"/>
      <point x="495.0" y="-173.0"/>
      <point x="473.0" y="-173.0" type="curve" smooth="yes"/>
      <point x="441.0" y="-173.0"/>
      <point x="419.0" y="-150.0"/>
      <point x="419.0" y="-116.0" type="curve" smooth="yes"/>
      <point x="419.0" y="-77.0"/>
      <point x="450.0" y="-37.0"/>
      <point x="509.0" y="0.0" type="curve"/>
      <point x="551.0" y="151.0" type="line"/>
      <point x="498.0" y="161.0" type="line"/>
      <point x="444.0" y="63.0" type="line"/>
      <point x="430.0" y="60.0"/>
      <point x="421.0" y="59.0"/>
      <point x="373.0" y="59.0" type="curve" smooth="yes"/>
      <point x="305.0" y="59.0" type="line" smooth="yes"/>
      <point x="269.0" y="59.0"/>
      <point x="247.0" y="60.0"/>
      <point x="225.0" y="63.0" type="curve"/>
      <point x="224.0" y="79.0"/>
      <point x="223.0" y="122.0"/>
      <point x="223.0" y="179.0" type="curve" smooth="yes"/>
      <point x="223.0" y="409.0" type="line" smooth="yes"/>
      <point x="223.0" y="469.0"/>
      <point x="224.0" y="516.0"/>
      <point x="225.0" y="529.0" type="curve"/>
      <point x="241.0" y="531.0"/>
      <point x="263.0" y="532.0"/>
      <point x="289.0" y="532.0" type="curve" smooth="yes"/>
      <point x="377.0" y="532.0" type="line" smooth="yes"/>
      <point x="393.0" y="532.0"/>
      <point x="405.0" y="531.0"/>
      <point x="421.0" y="528.0" type="curve"/>
      <point x="457.0" y="442.0" type="line"/>
      <point x="510.0" y="449.0" type="line"/>
      <point x="486.0" y="592.0" type="line"/>
      <point x="449.0" y="589.0"/>
      <point x="388.0" y="587.0"/>
      <point x="352.0" y="587.0" type="curve" smooth="yes"/>
      <point x="39.0" y="587.0" type="line"/>
      <point x="36.0" y="541.0" type="line"/>
      <point x="99.0" y="526.0" type="line"/>
      <point x="103.0" y="518.0"/>
      <point x="106.0" y="459.0"/>
      <point x="106.0" y="373.0" type="curve" smooth="yes"/>
      <point x="106.0" y="213.0" type="line" smooth="yes"/>
      <point x="106.0" y="129.0"/>
      <point x="103.0" y="70.0"/>
      <point x="99.0" y="61.0" type="curve"/>
      <point x="36.0" y="46.0" type="line"/>
      <point x="39.0" y="0.0" type="line"/>
      <point x="440.0" y="0.0" type="line"/>
      <point x="371.0" y="-35.0"/>
      <point x="332.0" y="-80.0"/>
      <point x="332.0" y="-125.0" type="curve" smooth="yes"/>
      <point x="332.0" y="-182.0"/>
      <point x="384.0" y="-223.0"/>
    </contour>
    <contour>
      <point x="385.0" y="202.0" type="line"/>
      <point x="436.0" y="202.0" type="line"/>
      <point x="436.0" y="401.0" type="line"/>
      <point x="385.0" y="401.0" type="line"/>
      <point x="375.0" y="333.0" type="line"/>
      <point x="366.0" y="333.0"/>
      <point x="346.0" y="332.0"/>
      <point x="321.0" y="332.0" type="curve" smooth="yes"/>
      <point x="261.0" y="332.0" type="line" smooth="yes"/>
      <point x="239.0" y="332.0"/>
      <point x="218.0" y="333.0"/>
      <point x="203.0" y="334.0" type="curve"/>
      <point x="203.0" y="269.0" type="line"/>
      <point x="218.0" y="270.0"/>
      <point x="239.0" y="272.0"/>
      <point x="261.0" y="272.0" type="curve" smooth="yes"/>
      <point x="321.0" y="272.0" type="line" smooth="yes"/>
      <point x="346.0" y="272.0"/>
      <point x="366.0" y="270.0"/>
      <point x="375.0" y="269.0" type="curve"/>
    </contour>
  </outline>
</glyph>
<glyph name="Iogonek" format="2">
  <advance width="330.0"/>
  <unicode hex="012E"/>
  <note>
Iogonek
</note>
  <anchor x="166.0" y="587.0" name="top"/>
  <anchor x="27.0" y="587.0" name="topleft"/>
  <outline>
    <contour>
      <point x="224.0" y="213.0" type="curve" smooth="yes"/>
      <point x="224.0" y="373.0" type="line" smooth="yes"/>
      <point x="224.0" y="457.0"/>
      <point x="226.0" y="518.0"/>
      <point x="230.0" y="526.0" type="curve"/>
      <point x="293.0" y="541.0" type="line"/>
      <point x="290.0" y="587.0" type="line"/>
      <point x="40.0" y="587.0" type="line"/>
      <point x="37.0" y="541.0" type="line"/>
      <point x="100.0" y="526.0" type="line"/>
      <point x="103.0" y="519.0"/>
      <point x="106.0" y="459.0"/>
      <point x="106.0" y="373.0" type="curve" smooth="yes"/>
      <point x="106.0" y="213.0" type="line" smooth="yes"/>
      <point x="106.0" y="129.0"/>
      <point x="103.0" y="70.0"/>
      <point x="100.0" y="61.0" type="curve"/>
      <point x="37.0" y="46.0" type="line"/>
      <point x="40.0" y="0.0" type="line"/>
      <point x="204.0" y="0.0" type="line"/>
      <point x="207.0" y="13.0" type="line"/>
      <point x="104.0" y="-8.0"/>
      <point x="43.0" y="-59.0"/>
      <point x="43.0" y="-123.0" type="curve" smooth="yes"/>
      <point x="43.0" y="-181.0"/>
      <point x="96.0" y="-223.0"/>
      <point x="168.0" y="-223.0" type="curve" smooth="yes"/>
      <point x="211.0" y="-223.0"/>
      <point x="250.0" y="-206.0"/>
      <point x="278.0" y="-173.0" type="curve"/>
      <point x="252.0" y="-139.0" type="line"/>
      <point x="230.0" y="-161.0"/>
      <point x="207.0" y="-173.0"/>
      <point x="185.0" y="-173.0" type="curve" smooth="yes"/>
      <point x="152.0" y="-173.0"/>
      <point x="131.0" y="-149.0"/>
      <point x="131.0" y="-112.0" type="curve" smooth="yes"/>
      <point x="131.0" y="-51.0"/>
      <point x="204.0" y="0.0"/>
      <point x="290.0" y="0.0" type="curve"/>
      <point x="293.0" y="46.0" type="line"/>
      <point x="230.0" y="61.0" type="line"/>
      <point x="226.0" y="70.0"/>
      <point x="224.0" y="131.0"/>
    </contour>
  </outline>
</glyph>
<glyph name="idotless" format="2">
  <advance width="286.0"/>
  <unicode hex="0131"/>
  <note>
dotlessi
</note>
  <anchor x="144.0" y="0.0" name="bottom"/>
  <anchor x="202.0" y="0.0" name="ogonek"/>
  <anchor x="144.0" y="436.0" name="top"/>
  <outline>
    <contour>
      <point x="18.0" y="0.0" type="line"/>
      <point x="270.0" y="0.0" type="line"/>
      <point x="273.0" y="44.0" type="line"/>
      <point x="206.0" y="59.0" type="line"/>
      <point x="202.0" y="69.0"/>
      <point x="200.0" y="114.0"/>
      <point x="200.0" y="164.0" type="curve" smooth="yes"/>
      <point x="200.0" y="290.0" type="line" smooth="yes"/>
      <point x="200.0" y="344.0"/>
      <point x="202.0" y="383.0"/>
      <point x="206.0" y="425.0" type="curve"/>
      <point x="183.0" y="442.0" type="line"/>
      <point x="12.0" y="399.0" type="line"/>
      <point x="12.0" y="358.0" type="line"/>
      <point x="79.0" y="344.0" type="line"/>
      <point x="85.0" y="313.0"/>
      <point x="88.0" y="278.0"/>
      <point x="88.0" y="237.0" type="curve"/>
      <point x="87.0" y="161.0" type="line"/>
      <point x="86.0" y="102.0"/>
      <point x="84.0" y="67.0"/>
      <point x="82.0" y="59.0" type="curve"/>
      <point x="15.0" y="44.0" type="line"/>
    </contour>
  </outline>
</glyph>
<glyph name="Uogonek" format="2">
  <advance width="685.0"/>
  <unicode hex="0172"/>
  <note>
Uogonek
</note>
  <anchor x="366.0" y="587.0" name="top"/>
  <anchor x="649.0" y="587.0" name="topright"/>
  <outline>
    <contour>
      <point x="648.0" y="587.0" type="line"/>
      <point x="435.0" y="587.0" type="line"/>
      <point x="432.0" y="541.0" type="line"/>
      <point x="502.0" y="525.0" type="line"/>
      <point x="505.0" y="518.0"/>
      <point x="508.0" y="444.0"/>
      <point x="508.0" y="355.0" type="curve" smooth="yes"/>
      <point x="508.0" y="256.0" type="line" smooth="yes"/>
      <point x="508.0" y="135.0"/>
      <point x="462.0" y="75.0"/>
      <point x="369.0" y="75.0" type="curve" smooth="yes"/>
      <point x="272.0" y="75.0"/>
      <point x="222.0" y="136.0"/>
      <point x="222.0" y="253.0" type="curve"/>
      <point x="222.0" y="373.0" type="line"/>
      <point x="221.0" y="460.0"/>
      <point x="223.0" y="508.0"/>
      <point x="226.0" y="525.0" type="curve"/>
      <point x="289.0" y="541.0" type="line"/>
      <point x="286.0" y="587.0" type="line"/>
      <point x="38.0" y="587.0" type="line"/>
      <point x="35.0" y="541.0" type="line"/>
      <point x="98.0" y="525.0" type="line"/>
      <point x="100.0" y="518.0"/>
      <point x="103.0" y="459.0"/>
      <point x="103.0" y="373.0" type="curve" smooth="yes"/>
      <point x="103.0" y="237.0" type="line" smooth="yes"/>
      <point x="103.0" y="81.0"/>
      <point x="193.0" y="-9.0"/>
      <point x="353.0" y="-9.0" type="curve" smooth="yes"/>
      <point x="382.0" y="-9.0" type="line"/>
      <point x="411.0" y="21.0" type="line"/>
      <point x="313.0" y="-12.0"/>
      <point x="256.0" y="-66.0"/>
      <point x="256.0" y="-125.0" type="curve" smooth="yes"/>
      <point x="256.0" y="-182.0"/>
      <point x="309.0" y="-223.0"/>
      <point x="380.0" y="-223.0" type="curve" smooth="yes"/>
      <point x="424.0" y="-223.0"/>
      <point x="462.0" y="-206.0"/>
      <point x="491.0" y="-173.0" type="curve"/>
      <point x="465.0" y="-138.0" type="line"/>
      <point x="441.0" y="-162.0"/>
      <point x="419.0" y="-173.0"/>
      <point x="397.0" y="-173.0" type="curve" smooth="yes"/>
      <point x="365.0" y="-173.0"/>
      <point x="343.0" y="-150.0"/>
      <point x="343.0" y="-116.0" type="curve" smooth="yes"/>
      <point x="343.0" y="-66.0"/>
      <point x="384.0" y="-20.0"/>
      <point x="453.0" y="9.0" type="curve" smooth="yes"/>
      <point x="537.0" y="44.0"/>
      <point x="583.0" y="128.0"/>
      <point x="583.0" y="243.0" type="curve" smooth="yes"/>
      <point x="583.0" y="355.0" type="line" smooth="yes"/>
      <point x="583.0" y="445.0"/>
      <point x="585.0" y="518.0"/>
      <point x="588.0" y="525.0" type="curve"/>
      <point x="651.0" y="541.0" type="line"/>
    </contour>
  </outline>
</glyph>
<glyph name="Schwa" format="2">
  <advance width="654.0"/>
  <unicode hex="018F"/>
  <anchor x="328.0" y="0.0" name="bottom"/>
  <anchor x="328.0" y="587.0" name="top"/>
  <outline>
    <contour>
      <point x="317.0" y="596.0" type="curve" smooth="yes"/>
      <point x="200.0" y="596.0"/>
      <point x="99.0" y="535.0"/>
      <point x="51.0" y="434.0" type="curve"/>
      <point x="82.0" y="404.0" type="line"/>
      <point x="130.0" y="457.0"/>
      <point x="192.0" y="487.0"/>
      <point x="271.0" y="487.0" type="curve" smooth="yes"/>
      <point x="394.0" y="487.0"/>
      <point x="471.0" y="403.0"/>
      <point x="471.0" y="272.0" type="curve" smooth="yes"/>
      <point x="471.0" y="243.0" type="line" smooth="yes"/>
      <point x="471.0" y="126.0"/>
      <point x="422.0" y="57.0"/>
      <point x="333.0" y="57.0" type="curve" smooth="yes"/>
      <point x="247.0" y="57.0"/>
      <point x="192.0" y="117.0"/>
      <point x="192.0" y="209.0" type="curve" smooth="yes"/>
      <point x="192.0" y="249.0" type="line"/>
      <point x="172.0" y="220.0" type="line"/>
      <point x="535.0" y="220.0" type="line"/>
      <point x="535.0" y="285.0" type="line"/>
      <point x="47.0" y="285.0" type="line"/>
      <point x="47.0" y="253.0" type="line" smooth="yes"/>
      <point x="47.0" y="94.0"/>
      <point x="159.0" y="-9.0"/>
      <point x="330.0" y="-9.0" type="curve" smooth="yes"/>
      <point x="488.0" y="-8.0"/>
      <point x="609.0" y="128.0"/>
      <point x="609.0" y="304.0" type="curve" smooth="yes"/>
      <point x="609.0" y="472.0"/>
      <point x="486.0" y="596.0"/>
    </contour>
  </outline>
</glyph>
<glyph name="florin" format="2">
  <advance width="401.0"/>
  <unicode hex="0192"/>
  <outline>
    <contour>
      <point x="84.0" y="-229.0" type="curve" smooth="yes"/>
      <point x="171.0" y="-229.0"/>
      <point x="249.0" y="-142.0"/>
      <point x="249.0" y="64.0" type="curve" smooth="yes"/>
      <point x="249.0" y="376.0" type="line"/>
      <point x="247.0" y="435.0" type="line"/>
      <point x="247.0" y="514.0" type="line" smooth="yes"/>
      <point x="247.0" y="598.0"/>
      <point x="267.0" y="637.0"/>
      <point x="290.0" y="650.0" type="curve"/>
      <point x="330.0" y="613.0" type="line" smooth="yes"/>
      <point x="348.0" y="596.0"/>
      <point x="363.0" y="589.0"/>
      <point x="384.0" y="589.0" type="curve" smooth="yes"/>
      <point x="409.0" y="589.0"/>
      <point x="426.0" y="602.0"/>
      <point x="426.0" y="628.0" type="curve" smooth="yes"/>
      <point x="426.0" y="668.0"/>
      <point x="380.0" y="698.0"/>
      <point x="318.0" y="698.0" type="curve" smooth="yes"/>
      <point x="217.0" y="698.0"/>
      <point x="136.0" y="611.0"/>
      <point x="136.0" y="475.0" type="curve" smooth="yes"/>
      <point x="136.0" y="-6.0" type="line"/>
      <point x="136.0" y="-129.0"/>
      <point x="121.0" y="-168.0"/>
      <point x="111.0" y="-181.0" type="curve"/>
      <point x="71.0" y="-144.0" type="line" smooth="yes"/>
      <point x="54.0" y="-127.0"/>
      <point x="38.0" y="-120.0"/>
      <point x="16.0" y="-120.0" type="curve" smooth="yes"/>
      <point x="-9.0" y="-120.0"/>
      <point x="-25.0" y="-133.0"/>
      <point x="-25.0" y="-159.0" type="curve" smooth="yes"/>
      <point x="-25.0" y="-199.0"/>
      <point x="21.0" y="-229.0"/>
    </contour>
    <contour>
      <point x="63.0" y="376.0" type="line"/>
      <point x="355.0" y="376.0" type="line"/>
      <point x="355.0" y="435.0" type="line"/>
      <point x="202.0" y="435.0" type="line"/>
      <point x="136.0" y="437.0" type="line"/>
      <point x="111.0" y="428.0"/>
      <point x="88.0" y="422.0"/>
      <point x="63.0" y="418.0" type="curve"/>
    </contour>
  </outline>
</glyph>
<glyph name="ohorn" format="2">
  <advance width="524.0"/>
  <unicode hex="01A1"/>
  <note>
ohorn
</note>
  <anchor x="262.0" y="0.0" name="bottom"/>
  <anchor x="262.0" y="218.0" name="center"/>
  <anchor x="262.0" y="436.0" name="top"/>
  <outline>
    <contour>
      <point x="511.0" y="480.0" type="curve" smooth="yes"/>
      <point x="511.0" y="521.0"/>
      <point x="468.0" y="540.0"/>
      <point x="408.0" y="529.0" type="curve"/>
      <point x="405.0" y="473.0" type="line" smooth="yes"/>
      <point x="403.0" y="441.0"/>
      <point x="394.0" y="428.0"/>
      <point x="369.0" y="428.0" type="curve" smooth="yes"/>
      <point x="340.0" y="428.0"/>
      <point x="321.0" y="444.0"/>
      <point x="260.0" y="444.0" type="curve" smooth="yes"/>
      <point x="146.0" y="444.0"/>
      <point x="36.0" y="357.0"/>
      <point x="36.0" y="215.0" type="curve" smooth="yes"/>
      <point x="36.0" y="84.0"/>
      <point x="129.0" y="-8.0"/>
      <point x="265.0" y="-8.0" type="curve" smooth="yes"/>
      <point x="389.0" y="-8.0"/>
      <point x="487.0" y="93.0"/>
      <point x="487.0" y="223.0" type="curve" smooth="yes"/>
      <point x="487.0" y="302.0"/>
      <point x="454.0" y="367.0"/>
      <point x="398.0" y="405.0" type="curve"/>
      <point x="382.0" y="383.0" type="line"/>
      <point x="436.0" y="382.0"/>
      <point x="511.0" y="422.0"/>
    </contour>
    <contour>
      <point x="275.0" y="50.0" type="curve" smooth="yes"/>
      <point x="209.0" y="50.0"/>
      <point x="160.0" y="130.0"/>
      <point x="160.0" y="239.0" type="curve" smooth="yes"/>
      <point x="160.0" y="330.0"/>
      <point x="197.0" y="389.0"/>
      <point x="255.0" y="389.0" type="curve" smooth="yes"/>
      <point x="321.0" y="389.0"/>
      <point x="365.0" y="310.0"/>
      <point x="365.0" y="195.0" type="curve" smooth="yes"/>
      <point x="365.0" y="106.0"/>
      <point x="331.0" y="50.0"/>
    </contour>
  </outline>
</glyph>
<glyph name="uhorn" format="2">
  <advance width="567.0"/>
  <unicode hex="01B0"/>
  <note>
uhorn
</note>
  <anchor x="283.0" y="0.0" name="bottom"/>
  <anchor x="433.0" y="0.0" name="ogonek"/>
  <anchor x="283.0" y="436.0" name="top"/>
  <outline>
    <contour>
      <point x="395.0" y="-12.0" type="line"/>
      <point x="552.0" y="29.0" type="line"/>
      <point x="552.0" y="69.0" type="line"/>
      <point x="487.0" y="84.0" type="line"/>
      <point x="483.0" y="112.0"/>
      <point x="481.0" y="156.0"/>
      <point x="481.0" y="202.0" type="curve" smooth="yes"/>
      <point x="481.0" y="421.0" type="line"/>
      <point x="439.0" y="387.0" type="line"/>
      <point x="529.0" y="400.0"/>
      <point x="587.0" y="438.0"/>
      <point x="587.0" y="488.0" type="curve" smooth="yes"/>
      <point x="587.0" y="528.0"/>
      <point x="542.0" y="547.0"/>
      <point x="483.0" y="537.0" type="curve"/>
      <point x="481.0" y="491.0" type="line" smooth="yes"/>
      <point x="479.0" y="456.0"/>
      <point x="461.0" y="440.0"/>
      <point x="419.0" y="430.0" type="curve" smooth="yes"/>
      <point x="291.0" y="399.0" type="line"/>
      <point x="291.0" y="358.0" type="line"/>
      <point x="364.0" y="344.0" type="line"/>
      <point x="368.0" y="313.0"/>
      <point x="370.0" y="277.0"/>
      <point x="370.0" y="235.0" type="curve" smooth="yes"/>
      <point x="370.0" y="128.0" type="line"/>
      <point x="347.0" y="91.0"/>
      <point x="313.0" y="76.0"/>
      <point x="284.0" y="76.0" type="curve" smooth="yes"/>
      <point x="229.0" y="76.0"/>
      <point x="193.0" y="107.0"/>
      <point x="193.0" y="180.0" type="curve"/>
      <point x="194.0" y="273.0" type="line"/>
      <point x="194.0" y="329.0"/>
      <point x="196.0" y="385.0"/>
      <point x="199.0" y="425.0" type="curve"/>
      <point x="175.0" y="442.0" type="line"/>
      <point x="8.0" y="399.0" type="line"/>
      <point x="8.0" y="358.0" type="line"/>
      <point x="76.0" y="344.0" type="line"/>
      <point x="79.0" y="310.0"/>
      <point x="81.0" y="279.0"/>
      <point x="81.0" y="252.0" type="curve" smooth="yes"/>
      <point x="81.0" y="167.0" type="line" smooth="yes"/>
      <point x="81.0" y="49.0"/>
      <point x="147.0" y="-9.0"/>
      <point x="241.0" y="-9.0" type="curve" smooth="yes"/>
      <point x="288.0" y="-9.0"/>
      <point x="331.0" y="11.0"/>
      <point x="370.0" y="70.0" type="curve"/>
      <point x="373.0" y="69.0" type="line"/>
      <point x="372.0" y="2.0" type="line"/>
    </contour>
  </outline>
</glyph>
<glyph name="Oogonek" format="2">
  <advance width="698.0"/>
  <unicode hex="01EA"/>
  <anchor x="349.0" y="294.0" name="center"/>
  <anchor x="349.0" y="587.0" name="top"/>
  <anchor x="15.0" y="587.0" name="topleft"/>
  <anchor x="682.0" y="587.0" name="topright"/>
  <outline>
    <contour>
      <point x="380.0" y="-223.0" type="curve" smooth="yes"/>
      <point x="425.0" y="-223.0"/>
      <point x="464.0" y="-205.0"/>
      <point x="492.0" y="-173.0" type="curve"/>
      <point x="466.0" y="-138.0" type="line"/>
      <point x="443.0" y="-160.0"/>
      <point x="421.0" y="-173.0"/>
      <point x="397.0" y="-173.0" type="curve" smooth="yes"/>
      <point x="366.0" y="-173.0"/>
      <point x="344.0" y="-151.0"/>
      <point x="344.0" y="-116.0" type="curve" smooth="yes"/>
      <point x="344.0" y="-72.0"/>
      <point x="377.0" y="-21.0"/>
      <point x="464.0" y="13.0" type="curve" smooth="yes"/>
      <point x="564.0" y="52.0"/>
      <point x="653.0" y="151.0"/>
      <point x="653.0" y="300.0" type="curve" smooth="yes"/>
      <point x="653.0" y="475.0"/>
      <point x="531.0" y="596.0"/>
      <point x="356.0" y="596.0" type="curve" smooth="yes"/>
      <point x="176.0" y="596.0"/>
      <point x="45.0" y="465.0"/>
      <point x="45.0" y="288.0" type="curve" smooth="yes"/>
      <point x="45.0" y="114.0"/>
      <point x="174.0" y="-9.0"/>
      <point x="355.0" y="-9.0" type="curve" smooth="yes"/>
      <point x="380.0" y="-9.0" type="line"/>
      <point x="413.0" y="22.0" type="line"/>
      <point x="314.0" y="-14.0"/>
      <point x="257.0" y="-68.0"/>
      <point x="257.0" y="-125.0" type="curve" smooth="yes"/>
      <point x="257.0" y="-182.0"/>
      <point x="309.0" y="-223.0"/>
    </contour>
    <contour>
      <point x="363.0" y="59.0" type="curve" smooth="yes"/>
      <point x="259.0" y="59.0"/>
      <point x="185.0" y="164.0"/>
      <point x="185.0" y="313.0" type="curve" smooth="yes"/>
      <point x="185.0" y="451.0"/>
      <point x="245.0" y="536.0"/>
      <point x="344.0" y="536.0" type="curve" smooth="yes"/>
      <point x="447.0" y="536.0"/>
      <point x="515.0" y="432.0"/>
      <point x="515.0" y="275.0" type="curve" smooth="yes"/>
      <point x="515.0" y="137.0"/>
      <point x="460.0" y="59.0"/>
    </contour>
  </outline>
</glyph>
<glyph name="doubleprimemod" format="2">
  <advance width="600.0"/>
  <unicode hex="02BA"/>
  <note>
uni030B
</note>
  <anchor x="300.0" y="436.0" name="_top"/>
  <anchor x="300.0" y="687.0" name="top"/>
  <outline>
    <contour>
      <point x="386.0" y="483.0" type="line"/>
      <point x="487.0" y="660.0" type="line"/>
      <point x="404.0" y="677.0" type="line"/>
      <point x="341.0" y="499.0" type="line"/>
    </contour>
    <contour>
      <point x="259.0" y="483.0" type="line"/>
      <point x="360.0" y="660.0" type="line"/>
      <point x="277.0" y="677.0" type="line"/>
      <point x="214.0" y="499.0" type="line"/>
    </contour>
  </outline>
</glyph>
<glyph name="commaturnedmod" format="2">
  <advance width="600.0"/>
  <unicode hex="02BB"/>
  <note>
uni02BB
</note>
  <anchor x="300.0" y="436.0" name="_top"/>
  <anchor x="300.0" y="665.0" name="top"/>
  <outline>
    <contour>
      <point x="373.0" y="729.0" type="line"/>
      <point x="282.0" y="706.0"/>
      <point x="234.0" y="646.0"/>
      <point x="234.0" y="589.0" type="curve" smooth="yes"/>
      <point x="234.0" y="540.0"/>
      <point x="268.0" y="516.0"/>
      <point x="306.0" y="516.0" type="curve" smooth="yes"/>
      <point x="341.0" y="516.0"/>
      <point x="366.0" y="537.0"/>
      <point x="366.0" y="564.0" type="curve" smooth="yes"/>
      <point x="366.0" y="617.0"/>
      <point x="309.0" y="609.0"/>
      <point x="309.0" y="642.0" type="curve" smooth="yes"/>
      <point x="309.0" y="662.0"/>
      <point x="330.0" y="684.0"/>
      <point x="386.0" y="698.0" type="curve"/>
    </contour>
  </outline>
</glyph>
<glyph name="apostrophemod" format="2">
  <advance width="600.0"/>
  <unicode hex="02BC"/>
  <note>
uni02BB
</note>
  <anchor x="300.0" y="436.0" name="_top"/>
  <anchor x="300.0" y="665.0" name="top"/>
  <outline>
    <contour>
      <point x="248.0" y="516.0" type="line"/>
      <point x="339.0" y="539.0"/>
      <point x="386.0" y="598.0"/>
      <point x="386.0" y="656.0" type="curve" smooth="yes"/>
      <point x="386.0" y="705.0"/>
      <point x="353.0" y="729.0"/>
      <point x="314.0" y="729.0" type="curve" smooth="yes"/>
      <point x="280.0" y="729.0"/>
      <point x="255.0" y="708.0"/>
      <point x="255.0" y="681.0" type="curve" smooth="yes"/>
      <point x="255.0" y="628.0"/>
      <point x="312.0" y="636.0"/>
      <point x="312.0" y="603.0" type="curve" smooth="yes"/>
      <point x="312.0" y="583.0"/>
      <point x="290.0" y="561.0"/>
      <point x="234.0" y="547.0" type="curve"/>
    </contour>
  </outline>
</glyph>
<glyph name="firsttonechinese" format="2">
  <advance width="600.0"/>
  <unicode hex="02C9"/>
  <note>
uni0304
</note>
  <anchor x="300.0" y="436.0" name="_top"/>
  <anchor x="300.0" y="687.0" name="top"/>
  <outline>
    <contour>
      <point x="149.0" y="611.0" type="line"/>
      <point x="149.0" y="546.0" type="line"/>
      <point x="451.0" y="546.0" type="line"/>
      <point x="451.0" y="611.0" type="line"/>
    </contour>
  </outline>
</glyph>
<glyph name="secondtonechinese" format="2">
  <advance width="600.0"/>
  <unicode hex="02CA"/>
  <note>
acutecomb
</note>
  <anchor x="300.0" y="436.0" name="_top"/>
  <anchor x="300.0" y="687.0" name="top"/>
  <outline>
    <contour>
      <point x="326.0" y="483.0" type="line"/>
      <point x="477.0" y="654.0" type="line"/>
      <point x="373.0" y="677.0" type="line"/>
      <point x="274.0" y="500.0" type="line"/>
    </contour>
  </outline>
</glyph>
<glyph name="acutecomb" format="2">
  <unicode hex="0301"/>
  <note>
acutecomb
</note>
  <anchor x="300.0" y="436.0" name="_top"/>
  <anchor x="300.0" y="687.0" name="top"/>
  <outline>
    <contour>
      <point x="326.0" y="483.0" type="line"/>
      <point x="477.0" y="654.0" type="line"/>
      <point x="373.0" y="677.0" type="line"/>
      <point x="274.0" y="500.0" type="line"/>
    </contour>
  </outline>
</glyph>
<glyph name="brevecomb" format="2">
  <unicode hex="0306"/>
  <note>
uni0306
</note>
  <anchor x="300.0" y="436.0" name="_top"/>
  <anchor x="300.0" y="687.0" name="top"/>
  <outline>
    <contour>
      <point x="398.0" y="677.0" type="line"/>
      <point x="388.0" y="606.0"/>
      <point x="353.0" y="568.0"/>
      <point x="303.0" y="568.0" type="curve" smooth="yes"/>
      <point x="254.0" y="568.0"/>
      <point x="219.0" y="606.0"/>
      <point x="208.0" y="677.0" type="curve"/>
      <point x="152.0" y="659.0" type="line"/>
      <point x="156.0" y="556.0"/>
      <point x="216.0" y="492.0"/>
      <point x="301.0" y="492.0" type="curve" smooth="yes"/>
      <point x="386.0" y="492.0"/>
      <point x="444.0" y="556.0"/>
      <point x="448.0" y="659.0" type="curve"/>
    </contour>
  </outline>
</glyph>
<glyph name="dotaccentcomb" format="2">
  <unicode hex="0307"/>
  <note>
uni0307
</note>
  <anchor x="300.0" y="436.0" name="_top"/>
  <anchor x="300.0" y="665.0" name="top"/>
  <outline>
    <contour>
      <point x="301.0" y="514.0" type="curve" smooth="yes"/>
      <point x="342.0" y="514.0"/>
      <point x="367.0" y="543.0"/>
      <point x="367.0" y="578.0" type="curve" smooth="yes"/>
      <point x="367.0" y="613.0"/>
      <point x="342.0" y="642.0"/>
      <point x="301.0" y="642.0" type="curve" smooth="yes"/>
      <point x="259.0" y="642.0"/>
      <point x="233.0" y="613.0"/>
      <point x="233.0" y="578.0" type="curve" smooth="yes"/>
      <point x="233.0" y="543.0"/>
      <point x="259.0" y="514.0"/>
    </contour>
  </outline>
</glyph>
<glyph name="dieresiscomb" format="2">
  <unicode hex="0308"/>
  <note>
uni0308
</note>
  <anchor x="300.0" y="436.0" name="_top"/>
  <anchor x="300.0" y="665.0" name="top"/>
  <outline>
    <contour>
      <point x="213.0" y="519.0" type="curve" smooth="yes"/>
      <point x="250.0" y="519.0"/>
      <point x="274.0" y="546.0"/>
      <point x="274.0" y="578.0" type="curve" smooth="yes"/>
      <point x="274.0" y="610.0"/>
      <point x="250.0" y="637.0"/>
      <point x="213.0" y="637.0" type="curve" smooth="yes"/>
      <point x="174.0" y="637.0"/>
      <point x="150.0" y="610.0"/>
      <point x="150.0" y="578.0" type="curve" smooth="yes"/>
      <point x="150.0" y="546.0"/>
      <point x="174.0" y="519.0"/>
    </contour>
    <contour>
      <point x="389.0" y="519.0" type="curve" smooth="yes"/>
      <point x="427.0" y="519.0"/>
      <point x="450.0" y="546.0"/>
      <point x="450.0" y="578.0" type="curve" smooth="yes"/>
      <point x="450.0" y="610.0"/>
      <point x="427.0" y="637.0"/>
      <point x="389.0" y="637.0" type="curve" smooth="yes"/>
      <point x="350.0" y="637.0"/>
      <point x="326.0" y="610.0"/>
      <point x="326.0" y="578.0" type="curve" smooth="yes"/>
      <point x="326.0" y="546.0"/>
      <point x="350.0" y="519.0"/>
    </contour>
  </outline>
</glyph>
<glyph name="hookabovecomb" format="2">
  <unicode hex="0309"/>
  <note>
hookabovecomb
</note>
  <anchor x="300.0" y="436.0" name="_top"/>
  <anchor x="300.0" y="687.0" name="top"/>
  <outline>
    <contour>
      <point x="302.0" y="670.0" type="curve" smooth="yes"/>
      <point x="241.0" y="670.0"/>
      <point x="202.0" y="643.0"/>
      <point x="202.0" y="614.0" type="curve" smooth="yes"/>
      <point x="202.0" y="598.0"/>
      <point x="213.0" y="588.0"/>
      <point x="231.0" y="588.0" type="curve" smooth="yes"/>
      <point x="247.0" y="588.0"/>
      <point x="255.0" y="593.0"/>
      <point x="269.0" y="606.0" type="curve" smooth="yes"/>
      <point x="307.0" y="646.0" type="line"/>
      <point x="268.0" y="633.0" type="line"/>
      <point x="302.0" y="642.0"/>
      <point x="325.0" y="638.0"/>
      <point x="325.0" y="610.0" type="curve" smooth="yes"/>
      <point x="325.0" y="582.0"/>
      <point x="280.0" y="561.0"/>
      <point x="280.0" y="509.0" type="curve" smooth="yes"/>
      <point x="280.0" y="492.0" type="line"/>
      <point x="320.0" y="492.0" type="line"/>
      <point x="320.0" y="543.0"/>
      <point x="405.0" y="542.0"/>
      <point x="405.0" y="604.0" type="curve" smooth="yes"/>
      <point x="405.0" y="645.0"/>
      <point x="365.0" y="670.0"/>
    </contour>
  </outline>
</glyph>
<glyph name="ringcomb" format="2">
  <unicode hex="030A"/>
  <note>
uni030A
</note>
  <anchor x="300.0" y="436.0" name="_top"/>
  <anchor x="300.0" y="673.0" name="top"/>
  <outline>
    <contour>
      <point x="301.0" y="488.0" type="curve" smooth="yes"/>
      <point x="362.0" y="488.0"/>
      <point x="407.0" y="532.0"/>
      <point x="407.0" y="590.0" type="curve" smooth="yes"/>
      <point x="407.0" y="648.0"/>
      <point x="362.0" y="691.0"/>
      <point x="301.0" y="691.0" type="curve" smooth="yes"/>
      <point x="240.0" y="691.0"/>
      <point x="193.0" y="647.0"/>
      <point x="193.0" y="590.0" type="curve" smooth="yes"/>
      <point x="193.0" y="532.0"/>
      <point x="240.0" y="488.0"/>
    </contour>
    <contour>
      <point x="302.0" y="529.0" type="curve" smooth="yes"/>
      <point x="267.0" y="529.0"/>
      <point x="242.0" y="555.0"/>
      <point x="242.0" y="591.0" type="curve" smooth="yes"/>
      <point x="242.0" y="626.0"/>
      <point x="267.0" y="652.0"/>
      <point x="302.0" y="652.0" type="curve" smooth="yes"/>
      <point x="336.0" y="652.0"/>
      <point x="360.0" y="627.0"/>
      <point x="360.0" y="591.0" type="curve" smooth="yes"/>
      <point x="360.0" y="554.0"/>
      <point x="336.0" y="529.0"/>
    </contour>
  </outline>
</glyph>
<glyph name="dblgravecomb" format="2">
  <unicode hex="030F"/>
  <anchor x="300.0" y="436.0" name="_top"/>
  <anchor x="300.0" y="687.0" name="top"/>
  <outline>
    <contour>
      <point x="341.0" y="483.0" type="line"/>
      <point x="386.0" y="499.0" type="line"/>
      <point x="323.0" y="677.0" type="line"/>
      <point x="240.0" y="660.0" type="line"/>
    </contour>
    <contour>
      <point x="214.0" y="483.0" type="line"/>
      <point x="259.0" y="499.0" type="line"/>
      <point x="196.0" y="677.0" type="line"/>
      <point x="113.0" y="660.0" type="line"/>
    </contour>
  </outline>
</glyph>
<glyph name="breveinvertedcomb" format="2">
  <unicode hex="0311"/>
  <anchor x="300.0" y="436.0" name="_top"/>
  <anchor x="300.0" y="687.0" name="top"/>
  <outline>
    <contour>
      <point x="204.0" y="483.0" type="line"/>
      <point x="213.0" y="553.0"/>
      <point x="249.0" y="591.0"/>
      <point x="299.0" y="591.0" type="curve" smooth="yes"/>
      <point x="347.0" y="591.0"/>
      <point x="383.0" y="553.0"/>
      <point x="394.0" y="483.0" type="curve"/>
      <point x="448.0" y="500.0" type="line"/>
      <point x="444.0" y="604.0"/>
      <point x="387.0" y="667.0"/>
      <point x="302.0" y="667.0" type="curve" smooth="yes"/>
      <point x="217.0" y="667.0"/>
      <point x="156.0" y="604.0"/>
      <point x="152.0" y="500.0" type="curve"/>
    </contour>
  </outline>
</glyph>
<glyph name="horncomb" format="2">
  <unicode hex="031B"/>
  <anchor x="371.0" y="428.0" name="_topright"/>
  <outline>
    <contour>
      <point x="371.0" y="428.0" type="curve" smooth="yes"/>
      <point x="349.0" y="428.0" type="line"/>
      <point x="349.0" y="384.0" type="line"/>
      <point x="386.0" y="384.0" type="line" smooth="yes"/>
      <point x="447.0" y="384.0"/>
      <point x="519.0" y="424.0"/>
      <point x="519.0" y="481.0" type="curve" smooth="yes"/>
      <point x="519.0" y="521.0"/>
      <point x="476.0" y="540.0"/>
      <point x="418.0" y="529.0" type="curve"/>
      <point x="415.0" y="474.0" type="line" smooth="yes"/>
      <point x="413.0" y="441.0"/>
      <point x="404.0" y="428.0"/>
    </contour>
  </outline>
</glyph>
<glyph name="brevebelowcomb" format="2">
  <unicode hex="032E"/>
  <anchor x="300.0" y="0.0" name="_bottom"/>
  <anchor x="300.0" y="-220.0" name="bottom"/>
  <outline>
    <contour>
      <point x="398.0" y="-72.0" type="line"/>
      <point x="388.0" y="-123.0"/>
      <point x="353.0" y="-153.0"/>
      <point x="303.0" y="-153.0" type="curve" smooth="yes"/>
      <point x="254.0" y="-153.0"/>
      <point x="219.0" y="-123.0"/>
      <point x="208.0" y="-72.0" type="curve"/>
      <point x="152.0" y="-90.0" type="line"/>
      <point x="161.0" y="-175.0"/>
      <point x="216.0" y="-227.0"/>
      <point x="301.0" y="-227.0" type="curve" smooth="yes"/>
      <point x="386.0" y="-227.0"/>
      <point x="440.0" y="-175.0"/>
      <point x="448.0" y="-90.0" type="curve"/>
    </contour>
  </outline>
</glyph>
<glyph name="slashshortcomb" format="2">
  <unicode hex="0337"/>
  <anchor x="255.0" y="330.0" name="_center"/>
  <outline>
    <contour>
      <point x="138.0" y="221.0" type="line"/>
      <point x="399.0" y="400.0" type="line"/>
      <point x="371.0" y="439.0" type="line"/>
      <point x="111.0" y="260.0" type="line"/>
    </contour>
  </outline>
</glyph>
<glyph name="slashlongcomb" format="2">
  <unicode hex="0338"/>
  <anchor x="300.0" y="218.0" name="_center"/>
  <outline>
    <contour>
      <point x="146.0" y="-67.0" type="line"/>
      <point x="498.0" y="476.0" type="line"/>
      <point x="454.0" y="503.0" type="line"/>
      <point x="102.0" y="-40.0" type="line"/>
    </contour>
  </outline>
</glyph>
<glyph name="Germandbls" format="2">
  <advance width="713.0"/>
  <unicode hex="1E9E"/>
  <outline>
    <contour>
      <point x="31.0" y="0.0" type="line"/>
      <point x="277.0" y="0.0" type="line"/>
      <point x="280.0" y="46.0" type="line"/>
      <point x="219.0" y="61.0" type="line"/>
      <point x="217.0" y="69.0"/>
      <point x="214.0" y="123.0"/>
      <point x="214.0" y="213.0" type="curve"/>
      <point x="212.0" y="370.0" type="line"/>
      <point x="212.0" y="478.0"/>
      <point x="263.0" y="539.0"/>
      <point x="353.0" y="539.0" type="curve" smooth="yes"/>
      <point x="411.0" y="539.0"/>
      <point x="454.0" y="513.0"/>
      <point x="473.0" y="467.0" type="curve"/>
      <point x="549.0" y="467.0" type="line"/>
      <point x="515.0" y="552.0"/>
      <point x="444.0" y="598.0"/>
      <point x="348.0" y="598.0" type="curve" smooth="yes"/>
      <point x="192.0" y="598.0"/>
      <point x="95.0" y="498.0"/>
      <point x="95.0" y="339.0" type="curve"/>
      <point x="96.0" y="213.0" type="line"/>
      <point x="96.0" y="134.0"/>
      <point x="93.0" y="71.0"/>
      <point x="91.0" y="61.0" type="curve"/>
      <point x="28.0" y="46.0" type="line"/>
    </contour>
    <contour>
      <point x="478.0" y="-9.0" type="curve" smooth="yes"/>
      <point x="594.0" y="-9.0"/>
      <point x="682.0" y="52.0"/>
      <point x="682.0" y="141.0" type="curve" smooth="yes"/>
      <point x="682.0" y="299.0"/>
      <point x="435.0" y="276.0"/>
      <point x="435.0" y="376.0" type="curve" smooth="yes"/>
      <point x="435.0" y="416.0"/>
      <point x="470.0" y="439.0"/>
      <point x="521.0" y="439.0" type="curve" smooth="yes"/>
      <point x="538.0" y="439.0"/>
      <point x="555.0" y="437.0"/>
      <point x="569.0" y="433.0" type="curve"/>
      <point x="597.0" y="348.0" type="line"/>
      <point x="650.0" y="352.0" type="line"/>
      <point x="641.0" y="475.0" type="line"/>
      <point x="611.0" y="486.0"/>
      <point x="555.0" y="493.0"/>
      <point x="518.0" y="493.0" type="curve" smooth="yes"/>
      <point x="406.0" y="493.0"/>
      <point x="323.0" y="427.0"/>
      <point x="323.0" y="341.0" type="curve" smooth="yes"/>
      <point x="323.0" y="177.0"/>
      <point x="567.0" y="219.0"/>
      <point x="567.0" y="106.0" type="curve" smooth="yes"/>
      <point x="567.0" y="67.0"/>
      <point x="530.0" y="48.0"/>
      <point x="484.0" y="48.0" type="curve" smooth="yes"/>
      <point x="457.0" y="48.0"/>
      <point x="428.0" y="54.0"/>
      <point x="403.0" y="70.0" type="curve"/>
      <point x="378.0" y="155.0" type="line"/>
      <point x="321.0" y="151.0" type="line"/>
      <point x="324.0" y="24.0" type="line"/>
      <point x="363.0" y="4.0"/>
      <point x="428.0" y="-9.0"/>
    </contour>
  </outline>
</glyph>
<glyph name="figuredash" format="2">
  <advance width="600.0"/>
  <unicode hex="2012"/>
  <note>
figuredash
</note>
  <outline>
    <contour>
      <point x="50.0" y="195.0" type="line"/>
      <point x="550.0" y="195.0" type="line"/>
      <point x="550.0" y="254.0" type="line"/>
      <point x="50.0" y="254.0" type="line"/>
    </contour>
  </outline>
</glyph>
<glyph name="quoteright" format="2">
  <advance width="278.0"/>
  <unicode hex="2019"/>
  <note>
quoteright
</note>
  <outline>
    <contour>
      <point x="51.0" y="346.0" type="line"/>
      <point x="166.0" y="391.0"/>
      <point x="228.0" y="482.0"/>
      <point x="228.0" y="581.0" type="curve" smooth="yes"/>
      <point x="228.0" y="664.0"/>
      <point x="181.0" y="698.0"/>
      <point x="137.0" y="698.0" type="curve" smooth="yes"/>
      <point x="91.0" y="698.0"/>
      <point x="57.0" y="665.0"/>
      <point x="57.0" y="625.0" type="curve" smooth="yes"/>
      <point x="57.0" y="554.0"/>
      <point x="132.0" y="560.0"/>
      <point x="132.0" y="495.0" type="curve" smooth="yes"/>
      <point x="132.0" y="450.0"/>
      <point x="103.0" y="413.0"/>
      <point x="34.0" y="383.0" type="curve"/>
    </contour>
  </outline>
</glyph>
<glyph name="quotesinglbase" format="2">
  <advance width="278.0"/>
  <unicode hex="201A"/>
  <note>
quotesinglbase
</note>
  <outline>
    <contour>
      <point x="51.0" y="-199.0" type="line"/>
      <point x="166.0" y="-153.0"/>
      <point x="228.0" y="-62.0"/>
      <point x="228.0" y="36.0" type="curve" smooth="yes"/>
      <point x="228.0" y="120.0"/>
      <point x="181.0" y="153.0"/>
      <point x="137.0" y="153.0" type="curve" smooth="yes"/>
      <point x="91.0" y="153.0"/>
      <point x="57.0" y="120.0"/>
      <point x="57.0" y="80.0" type="curve" smooth="yes"/>
      <point x="57.0" y="10.0"/>
      <point x="132.0" y="15.0"/>
      <point x="132.0" y="-50.0" type="curve" smooth="yes"/>
      <point x="132.0" y="-95.0"/>
      <point x="103.0" y="-132.0"/>
      <point x="34.0" y="-162.0" type="curve"/>
    </contour>
  </outline>
</glyph>
<glyph name="daggerdbl" format="2">
  <advance width="489.0"/>
  <unicode hex="2021"/>
  <note>
daggerdbl
</note>
  <outline>
    <contour>
      <point x="398.0" y="253.0" type="curve" smooth="yes"/>
      <point x="363.0" y="253.0"/>
      <point x="311.0" y="231.0"/>
      <point x="270.0" y="224.0" type="curve"/>
      <point x="281.0" y="262.0"/>
      <point x="291.0" y="298.0"/>
      <point x="307.0" y="344.0" type="curve"/>
      <point x="291.0" y="390.0"/>
      <point x="281.0" y="427.0"/>
      <point x="270.0" y="465.0" type="curve"/>
      <point x="311.0" y="458.0"/>
      <point x="363.0" y="436.0"/>
      <point x="398.0" y="436.0" type="curve" smooth="yes"/>
      <point x="437.0" y="436.0"/>
      <point x="455.0" y="458.0"/>
      <point x="455.0" y="488.0" type="curve" smooth="yes"/>
      <point x="455.0" y="517.0"/>
      <point x="437.0" y="539.0"/>
      <point x="398.0" y="539.0" type="curve" smooth="yes"/>
      <point x="362.0" y="539.0"/>
      <point x="308.0" y="516.0"/>
      <point x="266.0" y="510.0" type="curve"/>
      <point x="273.0" y="551.0"/>
      <point x="296.0" y="606.0"/>
      <point x="296.0" y="643.0" type="curve" smooth="yes"/>
      <point x="296.0" y="680.0"/>
      <point x="273.0" y="698.0"/>
      <point x="244.0" y="698.0" type="curve" smooth="yes"/>
      <point x="215.0" y="698.0"/>
      <point x="192.0" y="680.0"/>
      <point x="192.0" y="643.0" type="curve" smooth="yes"/>
      <point x="192.0" y="606.0"/>
      <point x="214.0" y="551.0"/>
      <point x="222.0" y="510.0" type="curve"/>
      <point x="180.0" y="516.0"/>
      <point x="126.0" y="539.0"/>
      <point x="89.0" y="539.0" type="curve" smooth="yes"/>
      <point x="51.0" y="539.0"/>
      <point x="34.0" y="517.0"/>
      <point x="34.0" y="488.0" type="curve" smooth="yes"/>
      <point x="34.0" y="458.0"/>
      <point x="51.0" y="436.0"/>
      <point x="89.0" y="436.0" type="curve" smooth="yes"/>
      <point x="125.0" y="436.0"/>
      <point x="177.0" y="458.0"/>
      <point x="218.0" y="465.0" type="curve"/>
      <point x="208.0" y="427.0"/>
      <point x="197.0" y="390.0"/>
      <point x="181.0" y="344.0" type="curve"/>
      <point x="197.0" y="298.0"/>
      <point x="208.0" y="262.0"/>
      <point x="218.0" y="224.0" type="curve"/>
      <point x="177.0" y="231.0"/>
      <point x="125.0" y="253.0"/>
      <point x="89.0" y="253.0" type="curve" smooth="yes"/>
      <point x="51.0" y="253.0"/>
      <point x="34.0" y="231.0"/>
      <point x="34.0" y="201.0" type="curve" smooth="yes"/>
      <point x="34.0" y="172.0"/>
      <point x="51.0" y="150.0"/>
      <point x="89.0" y="150.0" type="curve" smooth="yes"/>
      <point x="126.0" y="150.0"/>
      <point x="180.0" y="173.0"/>
      <point x="222.0" y="179.0" type="curve"/>
      <point x="214.0" y="137.0"/>
      <point x="192.0" y="83.0"/>
      <point x="192.0" y="46.0" type="curve" smooth="yes"/>
      <point x="192.0" y="9.0"/>
      <point x="215.0" y="-9.0"/>
      <point x="244.0" y="-9.0" type="curve" smooth="yes"/>
      <point x="273.0" y="-9.0"/>
      <point x="296.0" y="9.0"/>
      <point x="296.0" y="46.0" type="curve" smooth="yes"/>
      <point x="296.0" y="83.0"/>
      <point x="273.0" y="137.0"/>
      <point x="266.0" y="179.0" type="curve"/>
      <point x="308.0" y="173.0"/>
      <point x="362.0" y="150.0"/>
      <point x="398.0" y="150.0" type="curve" smooth="yes"/>
      <point x="437.0" y="150.0"/>
      <point x="455.0" y="172.0"/>
      <point x="455.0" y="201.0" type="curve" smooth="yes"/>
      <point x="455.0" y="231.0"/>
      <point x="437.0" y="253.0"/>
    </contour>
  </outline>
</glyph>
<glyph name="bullet" format="2">
  <advance width="420.0"/>
  <unicode hex="2022"/>
  <note>
bullet
</note>
  <outline>
    <contour>
      <point x="210.0" y="67.0" type="curve" smooth="yes"/>
      <point x="296.0" y="67.0"/>
      <point x="365.0" y="133.0"/>
      <point x="365.0" y="218.0" type="curve" smooth="yes"/>
      <point x="365.0" y="305.0"/>
      <point x="296.0" y="374.0"/>
      <point x="210.0" y="374.0" type="curve" smooth="yes"/>
      <point x="125.0" y="374.0"/>
      <point x="55.0" y="305.0"/>
      <point x="55.0" y="218.0" type="curve" smooth="yes"/>
      <point x="55.0" y="133.0"/>
      <point x="125.0" y="67.0"/>
    </contour>
  </outline>
</glyph>
<glyph name="guilsinglleft" format="2">
  <advance width="396.0"/>
  <unicode hex="2039"/>
  <note>
guilsinglleft
</note>
  <outline>
    <contour>
      <point x="331.0" y="385.0" type="line"/>
      <point x="298.0" y="424.0" type="line"/>
      <point x="77.0" y="246.0" type="line"/>
      <point x="77.0" y="199.0" type="line"/>
      <point x="298.0" y="20.0" type="line"/>
      <point x="331.0" y="59.0" type="line"/>
      <point x="166.0" y="260.0" type="line"/>
      <point x="166.0" y="184.0" type="line"/>
    </contour>
  </outline>
</glyph>
<glyph name="commercialMinusSign" format="2">
  <advance width="540.0"/>
  <unicode hex="2052"/>
  <outline>
    <contour>
      <point x="131.0" y="0.0" type="line"/>
      <point x="215.0" y="0.0" type="line"/>
      <point x="409.0" y="587.0" type="line"/>
      <point x="325.0" y="587.0" type="line"/>
    </contour>
    <contour>
      <point x="363.0" y="-9.0" type="curve" smooth="yes"/>
      <point x="410.0" y="-9.0"/>
      <point x="446.0" y="27.0"/>
      <point x="446.0" y="72.0" type="curve" smooth="yes"/>
      <point x="446.0" y="120.0"/>
      <point x="410.0" y="157.0"/>
      <point x="363.0" y="157.0" type="curve" smooth="yes"/>
      <point x="318.0" y="157.0"/>
      <point x="281.0" y="120.0"/>
      <point x="281.0" y="72.0" type="curve" smooth="yes"/>
      <point x="281.0" y="27.0"/>
      <point x="318.0" y="-9.0"/>
    </contour>
    <contour>
      <point x="175.0" y="430.0" type="curve" smooth="yes"/>
      <point x="222.0" y="430.0"/>
      <point x="258.0" y="466.0"/>
      <point x="258.0" y="513.0" type="curve" smooth="yes"/>
      <point x="258.0" y="559.0"/>
      <point x="222.0" y="596.0"/>
      <point x="175.0" y="596.0" type="curve" smooth="yes"/>
      <point x="130.0" y="596.0"/>
      <point x="93.0" y="559.0"/>
      <point x="93.0" y="513.0" type="curve" smooth="yes"/>
      <point x="93.0" y="466.0"/>
      <point x="130.0" y="430.0"/>
    </contour>
  </outline>
</glyph>
<glyph name="zerosuperior" format="2">
  <advance width="400.0"/>
  <unicode hex="2070"/>
  <note>
uni2080
</note>
  <outline>
    <contour>
      <point x="203.0" y="193.0" type="curve" smooth="yes"/>
      <point x="301.0" y="193.0"/>
      <point x="373.0" y="281.0"/>
      <point x="373.0" y="400.0" type="curve" smooth="yes"/>
      <point x="373.0" y="519.0"/>
      <point x="309.0" y="593.0"/>
      <point x="204.0" y="593.0" type="curve" smooth="yes"/>
      <point x="97.0" y="593.0"/>
      <point x="27.0" y="512.0"/>
      <point x="27.0" y="387.0" type="curve" smooth="yes"/>
      <point x="27.0" y="271.0"/>
      <point x="97.0" y="193.0"/>
    </contour>
    <contour>
      <point x="209.0" y="244.0" type="curve" smooth="yes"/>
      <point x="167.0" y="244.0"/>
      <point x="141.0" y="305.0"/>
      <point x="141.0" y="409.0" type="curve" smooth="yes"/>
      <point x="141.0" y="502.0"/>
      <point x="163.0" y="546.0"/>
      <point x="200.0" y="546.0" type="curve" smooth="yes"/>
      <point x="238.0" y="546.0"/>
      <point x="262.0" y="485.0"/>
      <point x="262.0" y="382.0" type="curve" smooth="yes"/>
      <point x="262.0" y="280.0"/>
      <point x="242.0" y="244.0"/>
    </contour>
  </outline>
</glyph>
<glyph name="foursuperior" format="2">
  <advance width="400.0"/>
  <unicode hex="2074"/>
  <note>
uni2084
</note>
  <outline>
    <contour>
      <point x="310.0" y="251.0" type="line"/>
      <point x="310.0" y="473.0" type="line"/>
      <point x="310.0" y="515.0"/>
      <point x="311.0" y="558.0"/>
      <point x="314.0" y="590.0" type="curve"/>
      <point x="251.0" y="590.0" type="line"/>
      <point x="21.0" y="332.0" type="line"/>
      <point x="28.0" y="298.0" type="line"/>
      <point x="368.0" y="298.0" type="line"/>
      <point x="368.0" y="360.0" type="line"/>
      <point x="98.0" y="360.0" type="line"/>
      <point x="95.0" y="348.0" type="line"/>
      <point x="218.0" y="486.0" type="line"/>
      <point x="206.0" y="490.0" type="line"/>
      <point x="206.0" y="251.0" type="line"/>
      <point x="149.0" y="241.0" type="line"/>
      <point x="152.0" y="199.0" type="line"/>
      <point x="354.0" y="199.0" type="line"/>
      <point x="357.0" y="241.0" type="line"/>
    </contour>
  </outline>
</glyph>
<glyph name="fivesuperior" format="2">
  <advance width="400.0"/>
  <unicode hex="2075"/>
  <note>
uni2085
</note>
  <outline>
    <contour>
      <point x="161.0" y="193.0" type="curve" smooth="yes"/>
      <point x="280.0" y="193.0"/>
      <point x="352.0" y="255.0"/>
      <point x="352.0" y="322.0" type="curve" smooth="yes"/>
      <point x="352.0" y="397.0"/>
      <point x="280.0" y="442.0"/>
      <point x="131.0" y="447.0" type="curve"/>
      <point x="141.0" y="426.0" type="line"/>
      <point x="151.0" y="504.0" type="line"/>
      <point x="324.0" y="504.0" type="line"/>
      <point x="331.0" y="587.0" type="line"/>
      <point x="112.0" y="587.0" type="line"/>
      <point x="85.0" y="365.0" type="line"/>
      <point x="201.0" y="361.0"/>
      <point x="244.0" y="339.0"/>
      <point x="244.0" y="298.0" type="curve" smooth="yes"/>
      <point x="244.0" y="256.0"/>
      <point x="201.0" y="231.0"/>
      <point x="153.0" y="243.0" type="curve"/>
      <point x="178.0" y="231.0" type="line"/>
      <point x="127.0" y="273.0" type="line" smooth="yes"/>
      <point x="109.0" y="287.0"/>
      <point x="96.0" y="296.0"/>
      <point x="81.0" y="296.0" type="curve" smooth="yes"/>
      <point x="58.0" y="296.0"/>
      <point x="43.0" y="278.0"/>
      <point x="43.0" y="257.0" type="curve" smooth="yes"/>
      <point x="43.0" y="220.0"/>
      <point x="94.0" y="193.0"/>
    </contour>
  </outline>
</glyph>
<glyph name="sixinferior" format="2">
  <advance width="400.0"/>
  <unicode hex="2086"/>
  <note>
uni2086
</note>
  <outline>
    <contour>
      <point x="134.0" y="174.0" type="curve"/>
      <point x="137.0" y="139.0" type="line"/>
      <point x="150.0" y="160.0"/>
      <point x="178.0" y="177.0"/>
      <point x="202.0" y="177.0" type="curve" smooth="yes"/>
      <point x="235.0" y="177.0"/>
      <point x="257.0" y="151.0"/>
      <point x="257.0" y="109.0" type="curve" smooth="yes"/>
      <point x="257.0" y="66.0"/>
      <point x="236.0" y="39.0"/>
      <point x="207.0" y="39.0" type="curve" smooth="yes"/>
      <point x="169.0" y="39.0"/>
      <point x="145.0" y="87.0"/>
      <point x="145.0" y="142.0" type="curve" smooth="yes"/>
      <point x="145.0" y="268.0"/>
      <point x="204.0" y="338.0"/>
      <point x="336.0" y="355.0" type="curve"/>
      <point x="322.0" y="400.0" type="line"/>
      <point x="157.0" y="396.0"/>
      <point x="38.0" y="290.0"/>
      <point x="38.0" y="156.0" type="curve" smooth="yes"/>
      <point x="38.0" y="64.0"/>
      <point x="104.0" y="-6.0"/>
      <point x="201.0" y="-6.0" type="curve" smooth="yes"/>
      <point x="286.0" y="-6.0"/>
      <point x="361.0" y="53.0"/>
      <point x="361.0" y="132.0" type="curve" smooth="yes"/>
      <point x="361.0" y="203.0"/>
      <point x="306.0" y="247.0"/>
      <point x="244.0" y="247.0" type="curve" smooth="yes"/>
      <point x="206.0" y="247.0"/>
      <point x="166.0" y="219.0"/>
    </contour>
  </outline>
</glyph>
<glyph name="won" format="2">
  <advance width="962.0"/>
  <unicode hex="20A9"/>
  <outline>
    <contour>
      <point x="52.0" y="306.0" type="line"/>
      <point x="910.0" y="306.0" type="line"/>
      <point x="910.0" y="360.0" type="line"/>
      <point x="52.0" y="360.0" type="line"/>
    </contour>
    <contour>
      <point x="491.0" y="430.0" type="line"/>
      <point x="454.0" y="497.0" type="line"/>
      <point x="310.0" y="118.0" type="line"/>
      <point x="345.0" y="118.0" type="line"/>
      <point x="188.0" y="526.0" type="line"/>
      <point x="239.0" y="541.0" type="line"/>
      <point x="236.0" y="587.0" type="line"/>
      <point x="3.0" y="587.0" type="line"/>
      <point x="0.0" y="541.0" type="line"/>
      <point x="51.0" y="526.0" type="line"/>
      <point x="270.0" y="-3.0" type="line"/>
      <point x="320.0" y="-3.0" type="line"/>
    </contour>
    <contour>
      <point x="638.0" y="-3.0" type="line"/>
      <point x="688.0" y="-3.0" type="line"/>
      <point x="910.0" y="526.0" type="line"/>
      <point x="961.0" y="541.0" type="line"/>
      <point x="958.0" y="587.0" type="line"/>
      <point x="761.0" y="587.0" type="line"/>
      <point x="758.0" y="541.0" type="line"/>
      <point x="827.0" y="526.0" type="line"/>
      <point x="677.0" y="118.0" type="line"/>
      <point x="710.0" y="118.0" type="line"/>
      <point x="553.0" y="526.0" type="line"/>
      <point x="615.0" y="541.0" type="line"/>
      <point x="612.0" y="587.0" type="line"/>
      <point x="369.0" y="587.0" type="line"/>
      <point x="366.0" y="541.0" type="line"/>
      <point x="417.0" y="526.0" type="line"/>
    </contour>
    <contour>
      <point x="52.0" y="190.0" type="line"/>
      <point x="910.0" y="190.0" type="line"/>
      <point x="910.0" y="244.0" type="line"/>
      <point x="52.0" y="244.0" type="line"/>
    </contour>
  </outline>
</glyph>
<glyph name="euro" format="2">
  <advance width="664.0"/>
  <unicode hex="20AC"/>
  <note>
Euro
</note>
  <outline>
    <contour>
      <point x="18.0" y="329.0" type="line"/>
      <point x="447.0" y="329.0" type="line"/>
      <point x="447.0" y="384.0" type="line"/>
      <point x="18.0" y="384.0" type="line"/>
    </contour>
    <contour>
      <point x="18.0" y="213.0" type="line"/>
      <point x="447.0" y="213.0" type="line"/>
      <point x="447.0" y="267.0" type="line"/>
      <point x="18.0" y="267.0" type="line"/>
    </contour>
    <contour>
      <point x="421.0" y="-9.0" type="curve" smooth="yes"/>
      <point x="496.0" y="-9.0"/>
      <point x="569.0" y="14.0"/>
      <point x="611.0" y="40.0" type="curve"/>
      <point x="640.0" y="170.0" type="line"/>
      <point x="580.0" y="176.0" type="line"/>
      <point x="542.0" y="85.0" type="line"/>
      <point x="517.0" y="65.0"/>
      <point x="476.0" y="54.0"/>
      <point x="440.0" y="54.0" type="curve" smooth="yes"/>
      <point x="328.0" y="54.0"/>
      <point x="237.0" y="147.0"/>
      <point x="237.0" y="308.0" type="curve" smooth="yes"/>
      <point x="237.0" y="441.0"/>
      <point x="303.0" y="535.0"/>
      <point x="431.0" y="535.0" type="curve" smooth="yes"/>
      <point x="465.0" y="535.0"/>
      <point x="501.0" y="527.0"/>
      <point x="527.0" y="513.0" type="curve"/>
      <point x="560.0" y="411.0" type="line"/>
      <point x="616.0" y="415.0" type="line"/>
      <point x="609.0" y="563.0" type="line"/>
      <point x="565.0" y="583.0"/>
      <point x="498.0" y="596.0"/>
      <point x="440.0" y="596.0" type="curve" smooth="yes"/>
      <point x="235.0" y="596.0"/>
      <point x="97.0" y="470.0"/>
      <point x="97.0" y="286.0" type="curve" smooth="yes"/>
      <point x="97.0" y="95.0"/>
      <point x="233.0" y="-9.0"/>
    </contour>
  </outline>
</glyph>
<glyph name="kip" format="2">
  <advance width="628.0"/>
  <unicode hex="20AD"/>
  <outline>
    <contour>
      <point x="366.0" y="0.0" type="line"/>
      <point x="642.0" y="0.0" type="line"/>
      <point x="642.0" y="47.0" type="line"/>
      <point x="591.0" y="56.0" type="line"/>
      <point x="580.0" y="67.0"/>
      <point x="561.0" y="86.0"/>
      <point x="520.0" y="136.0" type="curve" smooth="yes"/>
      <point x="368.0" y="322.0" type="line"/>
      <point x="345.0" y="322.0" type="line"/>
      <point x="555.0" y="529.0" type="line"/>
      <point x="619.0" y="539.0" type="line"/>
      <point x="616.0" y="587.0" type="line"/>
      <point x="401.0" y="587.0" type="line"/>
      <point x="398.0" y="541.0" type="line"/>
      <point x="461.0" y="529.0" type="line"/>
      <point x="242.0" y="289.0" type="line"/>
      <point x="383.0" y="105.0" type="line" smooth="yes"/>
      <point x="401.0" y="82.0"/>
      <point x="409.0" y="70.0"/>
      <point x="418.0" y="56.0" type="curve"/>
      <point x="363.0" y="46.0" type="line"/>
    </contour>
    <contour>
      <point x="43.0" y="0.0" type="line"/>
      <point x="281.0" y="0.0" type="line"/>
      <point x="284.0" y="46.0" type="line"/>
      <point x="229.0" y="61.0" type="line"/>
      <point x="227.0" y="70.0"/>
      <point x="225.0" y="127.0"/>
      <point x="225.0" y="213.0" type="curve" smooth="yes"/>
      <point x="225.0" y="373.0" type="line" smooth="yes"/>
      <point x="225.0" y="459.0"/>
      <point x="227.0" y="518.0"/>
      <point x="231.0" y="526.0" type="curve"/>
      <point x="294.0" y="541.0" type="line"/>
      <point x="291.0" y="587.0" type="line"/>
      <point x="41.0" y="587.0" type="line"/>
      <point x="38.0" y="541.0" type="line"/>
      <point x="101.0" y="526.0" type="line"/>
      <point x="104.0" y="518.0"/>
      <point x="107.0" y="459.0"/>
      <point x="107.0" y="373.0" type="curve" smooth="yes"/>
      <point x="107.0" y="213.0" type="line" smooth="yes"/>
      <point x="107.0" y="127.0"/>
      <point x="105.0" y="70.0"/>
      <point x="103.0" y="61.0" type="curve"/>
      <point x="40.0" y="46.0" type="line"/>
    </contour>
    <contour>
      <point x="19.0" y="280.0" type="line"/>
      <point x="553.0" y="280.0" type="line"/>
      <point x="553.0" y="335.0" type="line"/>
      <point x="19.0" y="335.0" type="line"/>
    </contour>
  </outline>
</glyph>
<glyph name="peso" format="2">
  <advance width="616.0"/>
  <unicode hex="20B1"/>
  <outline>
    <contour>
      <point x="22.0" y="299.0" type="line"/>
      <point x="586.0" y="299.0" type="line"/>
      <point x="586.0" y="354.0" type="line"/>
      <point x="22.0" y="354.0" type="line"/>
    </contour>
    <contour>
      <point x="22.0" y="417.0" type="line"/>
      <point x="586.0" y="417.0" type="line"/>
      <point x="586.0" y="471.0" type="line"/>
      <point x="22.0" y="471.0" type="line"/>
    </contour>
    <contour>
      <point x="45.0" y="0.0" type="line"/>
      <point x="307.0" y="0.0" type="line"/>
      <point x="310.0" y="48.0" type="line"/>
      <point x="229.0" y="62.0" type="line"/>
      <point x="228.0" y="69.0"/>
      <point x="224.0" y="120.0"/>
      <point x="224.0" y="208.0" type="curve"/>
      <point x="223.0" y="383.0" type="line"/>
      <point x="223.0" y="467.0"/>
      <point x="224.0" y="521.0"/>
      <point x="225.0" y="535.0" type="curve"/>
      <point x="262.0" y="535.0" type="line" smooth="yes"/>
      <point x="339.0" y="535.0"/>
      <point x="387.0" y="491.0"/>
      <point x="387.0" y="377.0" type="curve" smooth="yes"/>
      <point x="387.0" y="274.0"/>
      <point x="342.0" y="237.0"/>
      <point x="273.0" y="237.0" type="curve" smooth="yes"/>
      <point x="247.0" y="237.0"/>
      <point x="225.0" y="242.0"/>
      <point x="204.0" y="250.0" type="curve"/>
      <point x="204.0" y="185.0" type="line"/>
      <point x="225.0" y="181.0"/>
      <point x="250.0" y="178.0"/>
      <point x="274.0" y="178.0" type="curve" smooth="yes"/>
      <point x="403.0" y="178.0"/>
      <point x="511.0" y="257.0"/>
      <point x="511.0" y="391.0" type="curve" smooth="yes"/>
      <point x="511.0" y="526.0"/>
      <point x="422.0" y="587.0"/>
      <point x="269.0" y="587.0" type="curve" smooth="yes"/>
      <point x="40.0" y="587.0" type="line"/>
      <point x="37.0" y="541.0" type="line"/>
      <point x="100.0" y="527.0" type="line"/>
      <point x="104.0" y="520.0"/>
      <point x="107.0" y="467.0"/>
      <point x="107.0" y="383.0" type="curve"/>
      <point x="106.0" y="208.0" type="line"/>
      <point x="106.0" y="120.0"/>
      <point x="103.0" y="69.0"/>
      <point x="101.0" y="61.0" type="curve"/>
      <point x="42.0" y="46.0" type="line"/>
    </contour>
  </outline>
</glyph>
<glyph name="cedi" format="2">
  <advance width="614.0"/>
  <unicode hex="20B5"/>
  <outline>
    <contour>
      <point x="335.0" y="-116.0" type="line"/>
      <point x="395.0" y="-116.0" type="line"/>
      <point x="395.0" y="703.0" type="line"/>
      <point x="335.0" y="703.0" type="line"/>
    </contour>
    <contour>
      <point x="371.0" y="-9.0" type="curve" smooth="yes"/>
      <point x="446.0" y="-9.0"/>
      <point x="519.0" y="14.0"/>
      <point x="561.0" y="40.0" type="curve"/>
      <point x="590.0" y="170.0" type="line"/>
      <point x="530.0" y="176.0" type="line"/>
      <point x="492.0" y="83.0" type="line"/>
      <point x="467.0" y="63.0"/>
      <point x="426.0" y="52.0"/>
      <point x="390.0" y="52.0" type="curve" smooth="yes"/>
      <point x="278.0" y="52.0"/>
      <point x="189.0" y="147.0"/>
      <point x="189.0" y="308.0" type="curve" smooth="yes"/>
      <point x="189.0" y="441.0"/>
      <point x="253.0" y="537.0"/>
      <point x="381.0" y="537.0" type="curve" smooth="yes"/>
      <point x="415.0" y="537.0"/>
      <point x="451.0" y="529.0"/>
      <point x="477.0" y="515.0" type="curve"/>
      <point x="510.0" y="411.0" type="line"/>
      <point x="566.0" y="415.0" type="line"/>
      <point x="559.0" y="563.0" type="line"/>
      <point x="515.0" y="583.0"/>
      <point x="448.0" y="596.0"/>
      <point x="390.0" y="596.0" type="curve" smooth="yes"/>
      <point x="185.0" y="596.0"/>
      <point x="47.0" y="470.0"/>
      <point x="47.0" y="286.0" type="curve" smooth="yes"/>
      <point x="47.0" y="95.0"/>
      <point x="183.0" y="-9.0"/>
    </contour>
  </outline>
</glyph>
<glyph name="rupeeIndian" format="2">
  <advance width="520.0"/>
  <unicode hex="20B9"/>
  <outline>
    <contour>
      <point x="409.0" y="-11.0" type="curve" smooth="yes"/>
      <point x="427.0" y="-11.0"/>
      <point x="446.0" y="-9.0"/>
      <point x="465.0" y="-6.0" type="curve"/>
      <point x="466.0" y="37.0" type="line"/>
      <point x="410.0" y="48.0"/>
      <point x="362.0" y="79.0"/>
      <point x="312.0" y="143.0" type="curve" smooth="yes"/>
      <point x="182.0" y="307.0" type="line"/>
      <point x="83.0" y="284.0" type="line"/>
      <point x="151.0" y="161.0" type="line" smooth="yes"/>
      <point x="219.0" y="39.0"/>
      <point x="291.0" y="-11.0"/>
    </contour>
    <contour>
      <point x="172.0" y="565.0" type="curve"/>
      <point x="157.0" y="533.0" type="line"/>
      <point x="218.0" y="533.0"/>
      <point x="262.0" y="500.0"/>
      <point x="262.0" y="432.0" type="curve" smooth="yes"/>
      <point x="262.0" y="359.0"/>
      <point x="210.0" y="327.0"/>
      <point x="144.0" y="327.0" type="curve" smooth="yes"/>
      <point x="53.0" y="327.0" type="line"/>
      <point x="53.0" y="271.0" type="line"/>
      <point x="160.0" y="271.0" type="line" smooth="yes"/>
      <point x="291.0" y="271.0"/>
      <point x="387.0" y="338.0"/>
      <point x="387.0" y="427.0" type="curve" smooth="yes"/>
      <point x="387.0" y="523.0"/>
      <point x="309.0" y="565.0"/>
    </contour>
    <contour>
      <point x="53.0" y="415.0" type="line"/>
      <point x="462.0" y="415.0" type="line"/>
      <point x="462.0" y="469.0" type="line"/>
      <point x="53.0" y="469.0" type="line"/>
    </contour>
    <contour>
      <point x="53.0" y="533.0" type="line"/>
      <point x="462.0" y="533.0" type="line"/>
      <point x="462.0" y="587.0" type="line"/>
      <point x="53.0" y="587.0" type="line"/>
    </contour>
  </outline>
</glyph>
<glyph name="Ohm" format="2">
  <advance width="786.0"/>
  <unicode hex="2126"/>
  <outline>
    <contour>
      <point x="60.0" y="-6.0" type="line"/>
      <point x="87.0" y="-3.0"/>
      <point x="147.0" y="0.0"/>
      <point x="197.0" y="0.0" type="curve" smooth="yes"/>
      <point x="344.0" y="0.0" type="line"/>
      <point x="351.0" y="46.0" type="line"/>
      <point x="273.0" y="132.0"/>
      <point x="229.0" y="233.0"/>
      <point x="229.0" y="323.0" type="curve" smooth="yes"/>
      <point x="229.0" y="457.0"/>
      <point x="290.0" y="535.0"/>
      <point x="393.0" y="535.0" type="curve" smooth="yes"/>
      <point x="496.0" y="535.0"/>
      <point x="557.0" y="457.0"/>
      <point x="557.0" y="323.0" type="curve" smooth="yes"/>
      <point x="557.0" y="233.0"/>
      <point x="514.0" y="132.0"/>
      <point x="435.0" y="46.0" type="curve"/>
      <point x="442.0" y="0.0" type="line"/>
      <point x="589.0" y="0.0" type="line" smooth="yes"/>
      <point x="640.0" y="0.0"/>
      <point x="700.0" y="-3.0"/>
      <point x="726.0" y="-6.0" type="curve"/>
      <point x="773.0" y="164.0" type="line"/>
      <point x="716.0" y="178.0" type="line"/>
      <point x="660.0" y="68.0" type="line"/>
      <point x="498.0" y="68.0" type="line"/>
      <point x="515.0" y="52.0" type="line"/>
      <point x="624.0" y="118.0"/>
      <point x="699.0" y="233.0"/>
      <point x="699.0" y="341.0" type="curve" smooth="yes"/>
      <point x="699.0" y="485.0"/>
      <point x="574.0" y="596.0"/>
      <point x="393.0" y="596.0" type="curve" smooth="yes"/>
      <point x="213.0" y="596.0"/>
      <point x="88.0" y="475.0"/>
      <point x="88.0" y="337.0" type="curve" smooth="yes"/>
      <point x="88.0" y="231.0"/>
      <point x="160.0" y="127.0"/>
      <point x="272.0" y="52.0" type="curve"/>
      <point x="289.0" y="68.0" type="line"/>
      <point x="126.0" y="68.0" type="line"/>
      <point x="70.0" y="178.0" type="line"/>
      <point x="13.0" y="164.0" type="line"/>
    </contour>
  </outline>
</glyph>
<glyph name="partialdiff" format="2">
  <advance width="538.0"/>
  <unicode hex="2202"/>
  <note>
partialdiff
</note>
  <outline>
    <contour>
      <point x="229.0" y="-9.0" type="curve" smooth="yes"/>
      <point x="398.0" y="-9.0"/>
      <point x="517.0" y="197.0"/>
      <point x="517.0" y="424.0" type="curve" smooth="yes"/>
      <point x="517.0" y="610.0"/>
      <point x="415.0" y="701.0"/>
      <point x="259.0" y="701.0" type="curve" smooth="yes"/>
      <point x="231.0" y="701.0"/>
      <point x="210.0" y="700.0"/>
      <point x="184.0" y="696.0" type="curve"/>
      <point x="184.0" y="645.0" type="line"/>
      <point x="218.0" y="645.0" type="line" smooth="yes"/>
      <point x="336.0" y="645.0"/>
      <point x="403.0" y="591.0"/>
      <point x="403.0" y="458.0" type="curve" smooth="yes"/>
      <point x="403.0" y="427.0"/>
      <point x="399.0" y="392.0"/>
      <point x="392.0" y="352.0" type="curve"/>
      <point x="403.0" y="347.0" type="line"/>
      <point x="390.0" y="413.0"/>
      <point x="341.0" y="446.0"/>
      <point x="275.0" y="446.0" type="curve" smooth="yes"/>
      <point x="143.0" y="446.0"/>
      <point x="44.0" y="321.0"/>
      <point x="44.0" y="176.0" type="curve" smooth="yes"/>
      <point x="44.0" y="64.0"/>
      <point x="113.0" y="-9.0"/>
    </contour>
    <contour>
      <point x="238.0" y="47.0" type="curve" smooth="yes"/>
      <point x="194.0" y="47.0"/>
      <point x="165.0" y="92.0"/>
      <point x="165.0" y="166.0" type="curve" smooth="yes"/>
      <point x="165.0" y="278.0"/>
      <point x="217.0" y="389.0"/>
      <point x="288.0" y="389.0" type="curve" smooth="yes"/>
      <point x="333.0" y="389.0"/>
      <point x="366.0" y="344.0"/>
      <point x="366.0" y="269.0" type="curve" smooth="yes"/>
      <point x="366.0" y="160.0"/>
      <point x="308.0" y="47.0"/>
    </contour>
  </outline>
</glyph>
<glyph name="emptyset" format="2">
  <advance width="540.0"/>
  <unicode hex="2205"/>
  <outline>
    <contour>
      <point x="28.0" y="12.0" type="line"/>
      <point x="73.0" y="-18.0" type="line"/>
      <point x="143.0" y="73.0" type="line"/>
      <point x="182.0" y="52.0"/>
      <point x="225.0" y="41.0"/>
      <point x="271.0" y="41.0" type="curve" smooth="yes"/>
      <point x="415.0" y="41.0"/>
      <point x="534.0" y="154.0"/>
      <point x="534.0" y="292.0" type="curve" smooth="yes"/>
      <point x="534.0" y="365.0"/>
      <point x="501.0" y="428.0"/>
      <point x="454.0" y="473.0" type="curve"/>
      <point x="524.0" y="563.0" type="line"/>
      <point x="479.0" y="598.0" type="line"/>
      <point x="409.0" y="508.0" type="line"/>
      <point x="368.0" y="531.0"/>
      <point x="320.0" y="545.0"/>
      <point x="271.0" y="545.0" type="curve" smooth="yes"/>
      <point x="120.0" y="545.0"/>
      <point x="6.0" y="425.0"/>
      <point x="6.0" y="292.0" type="curve" smooth="yes"/>
      <point x="6.0" y="214.0"/>
      <point x="43.0" y="148.0"/>
      <point x="97.0" y="103.0" type="curve"/>
    </contour>
    <contour>
      <point x="136.0" y="153.0" type="line"/>
      <point x="97.0" y="187.0"/>
      <point x="75.0" y="237.0"/>
      <point x="75.0" y="292.0" type="curve" smooth="yes"/>
      <point x="75.0" y="400.0"/>
      <point x="159.0" y="481.0"/>
      <point x="271.0" y="481.0" type="curve" smooth="yes"/>
      <point x="309.0" y="481.0"/>
      <point x="342.0" y="471.0"/>
      <point x="370.0" y="456.0" type="curve"/>
    </contour>
    <contour>
      <point x="271.0" y="104.0" type="curve" smooth="yes"/>
      <point x="238.0" y="104.0"/>
      <point x="207.0" y="109.0"/>
      <point x="181.0" y="123.0" type="curve"/>
      <point x="416.0" y="424.0" type="line"/>
      <point x="447.0" y="389.0"/>
      <point x="467.0" y="343.0"/>
      <point x="467.0" y="292.0" type="curve" smooth="yes"/>
      <point x="467.0" y="181.0"/>
      <point x="377.0" y="104.0"/>
    </contour>
  </outline>
</glyph>
<glyph name="product" format="2">
  <advance width="661.0"/>
  <unicode hex="220F"/>
  <outline>
    <contour>
      <point x="556.0" y="123.0" type="curve" smooth="yes"/>
      <point x="556.0" y="373.0" type="line" smooth="yes"/>
      <point x="556.0" y="454.0"/>
      <point x="559.0" y="518.0"/>
      <point x="563.0" y="526.0" type="curve"/>
      <point x="625.0" y="541.0" type="line"/>
      <point x="622.0" y="587.0" type="line"/>
      <point x="39.0" y="587.0" type="line"/>
      <point x="36.0" y="541.0" type="line"/>
      <point x="98.0" y="526.0" type="line"/>
      <point x="102.0" y="519.0"/>
      <point x="105.0" y="459.0"/>
      <point x="105.0" y="373.0" type="curve" smooth="yes"/>
      <point x="105.0" y="123.0" type="line" smooth="yes"/>
      <point x="105.0" y="40.0"/>
      <point x="102.0" y="-20.0"/>
      <point x="100.0" y="-29.0" type="curve"/>
      <point x="38.0" y="-44.0" type="line"/>
      <point x="41.0" y="-90.0" type="line"/>
      <point x="288.0" y="-90.0" type="line"/>
      <point x="291.0" y="-44.0" type="line"/>
      <point x="229.0" y="-29.0" type="line"/>
      <point x="226.0" y="-20.0"/>
      <point x="224.0" y="39.0"/>
      <point x="224.0" y="123.0" type="curve" smooth="yes"/>
      <point x="224.0" y="373.0" type="line" smooth="yes"/>
      <point x="224.0" y="460.0"/>
      <point x="225.0" y="513.0"/>
      <point x="228.0" y="523.0" type="curve"/>
      <point x="256.0" y="525.0"/>
      <point x="296.0" y="525.0"/>
      <point x="331.0" y="525.0" type="curve" smooth="yes"/>
      <point x="366.0" y="525.0"/>
      <point x="405.0" y="525.0"/>
      <point x="432.0" y="523.0" type="curve"/>
      <point x="435.0" y="513.0"/>
      <point x="437.0" y="460.0"/>
      <point x="437.0" y="373.0" type="curve" smooth="yes"/>
      <point x="437.0" y="123.0" type="line" smooth="yes"/>
      <point x="437.0" y="39.0"/>
      <point x="434.0" y="-20.0"/>
      <point x="432.0" y="-29.0" type="curve"/>
      <point x="370.0" y="-44.0" type="line"/>
      <point x="373.0" y="-90.0" type="line"/>
      <point x="620.0" y="-90.0" type="line"/>
      <point x="623.0" y="-44.0" type="line"/>
      <point x="561.0" y="-29.0" type="line"/>
      <point x="559.0" y="-20.0"/>
      <point x="556.0" y="45.0"/>
    </contour>
  </outline>
</glyph>
<glyph name="divisionslash" format="2">
  <advance width="540.0"/>
  <unicode hex="2215"/>
  <note>
slash
</note>
  <outline>
    <contour>
      <point x="131.0" y="0.0" type="line"/>
      <point x="214.0" y="0.0" type="line"/>
      <point x="408.0" y="587.0" type="line"/>
      <point x="325.0" y="587.0" type="line"/>
    </contour>
  </outline>
</glyph>
<glyph name="bulletoperator" format="2">
  <advance width="540.0"/>
  <unicode hex="2219"/>
  <note>
periodcentered
</note>
  <outline>
    <contour>
      <point x="270.0" y="172.0" type="curve" smooth="yes"/>
      <point x="316.0" y="172.0"/>
      <point x="354.0" y="206.0"/>
      <point x="354.0" y="253.0" type="curve" smooth="yes"/>
      <point x="354.0" y="299.0"/>
      <point x="316.0" y="336.0"/>
      <point x="270.0" y="336.0" type="curve" smooth="yes"/>
      <point x="224.0" y="336.0"/>
      <point x="186.0" y="299.0"/>
      <point x="186.0" y="253.0" type="curve" smooth="yes"/>
      <point x="186.0" y="206.0"/>
      <point x="224.0" y="172.0"/>
    </contour>
  </outline>
</glyph>
<glyph name="infinity" format="2">
  <advance width="784.0"/>
  <unicode hex="221E"/>
  <outline>
    <contour>
      <point x="37.0" y="293.0" type="curve" smooth="yes"/>
      <point x="37.0" y="168.0"/>
      <point x="113.0" y="86.0"/>
      <point x="221.0" y="86.0" type="curve" smooth="yes"/>
      <point x="300.0" y="86.0"/>
      <point x="372.0" y="144.0"/>
      <point x="400.0" y="243.0" type="curve"/>
      <point x="376.0" y="263.0" type="line"/>
      <point x="331.0" y="201.0"/>
      <point x="283.0" y="180.0"/>
      <point x="230.0" y="180.0" type="curve" smooth="yes"/>
      <point x="160.0" y="180.0"/>
      <point x="112.0" y="223.0"/>
      <point x="112.0" y="307.0" type="curve" smooth="yes"/>
      <point x="112.0" y="379.0"/>
      <point x="147.0" y="418.0"/>
      <point x="203.0" y="418.0" type="curve" smooth="yes"/>
      <point x="261.0" y="418.0"/>
      <point x="299.0" y="361.0"/>
      <point x="338.0" y="281.0" type="curve" smooth="yes"/>
      <point x="402.0" y="154.0"/>
      <point x="453.0" y="86.0"/>
      <point x="563.0" y="86.0" type="curve" smooth="yes"/>
      <point x="662.0" y="86.0"/>
      <point x="747.0" y="171.0"/>
      <point x="747.0" y="305.0" type="curve" smooth="yes"/>
      <point x="747.0" y="430.0"/>
      <point x="670.0" y="512.0"/>
      <point x="563.0" y="512.0" type="curve" smooth="yes"/>
      <point x="484.0" y="512.0"/>
      <point x="411.0" y="454.0"/>
      <point x="385.0" y="355.0" type="curve"/>
      <point x="408.0" y="335.0" type="line"/>
      <point x="453.0" y="397.0"/>
      <point x="500.0" y="418.0"/>
      <point x="555.0" y="418.0" type="curve" smooth="yes"/>
      <point x="628.0" y="418.0"/>
      <point x="673.0" y="368.0"/>
      <point x="673.0" y="291.0" type="curve" smooth="yes"/>
      <point x="673.0" y="219.0"/>
      <point x="637.0" y="180.0"/>
      <point x="580.0" y="180.0" type="curve" smooth="yes"/>
      <point x="520.0" y="180.0"/>
      <point x="485.0" y="237.0"/>
      <point x="434.0" y="344.0" type="curve" smooth="yes"/>
      <point x="385.0" y="445.0"/>
      <point x="320.0" y="512.0"/>
      <point x="227.0" y="512.0" type="curve" smooth="yes"/>
      <point x="121.0" y="512.0"/>
      <point x="37.0" y="427.0"/>
    </contour>
  </outline>
</glyph>
<glyph name="approxequal" format="2">
  <advance width="540.0"/>
  <unicode hex="2248"/>
  <outline>
    <contour>
      <point x="449.0" y="394.0" type="line"/>
      <point x="432.0" y="363.0"/>
      <point x="411.0" y="346.0"/>
      <point x="382.0" y="346.0" type="curve" smooth="yes"/>
      <point x="333.0" y="346.0"/>
      <point x="246.0" y="414.0"/>
      <point x="171.0" y="414.0" type="curve" smooth="yes"/>
      <point x="118.0" y="414.0"/>
      <point x="74.0" y="376.0"/>
      <point x="53.0" y="315.0" type="curve"/>
      <point x="91.0" y="290.0" type="line"/>
      <point x="108.0" y="321.0"/>
      <point x="131.0" y="338.0"/>
      <point x="158.0" y="338.0" type="curve" smooth="yes"/>
      <point x="207.0" y="338.0"/>
      <point x="294.0" y="271.0"/>
      <point x="369.0" y="271.0" type="curve" smooth="yes"/>
      <point x="422.0" y="271.0"/>
      <point x="466.0" y="308.0"/>
      <point x="487.0" y="368.0" type="curve"/>
    </contour>
    <contour>
      <point x="449.0" y="216.0" type="line"/>
      <point x="432.0" y="185.0"/>
      <point x="411.0" y="168.0"/>
      <point x="382.0" y="168.0" type="curve" smooth="yes"/>
      <point x="333.0" y="168.0"/>
      <point x="246.0" y="236.0"/>
      <point x="171.0" y="236.0" type="curve" smooth="yes"/>
      <point x="118.0" y="236.0"/>
      <point x="74.0" y="198.0"/>
      <point x="53.0" y="137.0" type="curve"/>
      <point x="91.0" y="112.0" type="line"/>
      <point x="108.0" y="143.0"/>
      <point x="131.0" y="160.0"/>
      <point x="158.0" y="160.0" type="curve" smooth="yes"/>
      <point x="207.0" y="160.0"/>
      <point x="294.0" y="93.0"/>
      <point x="369.0" y="93.0" type="curve" smooth="yes"/>
      <point x="422.0" y="93.0"/>
      <point x="466.0" y="130.0"/>
      <point x="487.0" y="190.0" type="curve"/>
    </contour>
  </outline>
</glyph>
<glyph name="greaterequal" format="2">
  <advance width="540.0"/>
  <unicode hex="2265"/>
  <outline>
    <contour>
      <point x="487.0" y="253.0" type="line"/>
      <point x="487.0" y="339.0" type="line"/>
      <point x="53.0" y="481.0" type="line"/>
      <point x="53.0" y="397.0" type="line"/>
      <point x="461.0" y="269.0" type="line"/>
      <point x="461.0" y="324.0" type="line"/>
      <point x="53.0" y="195.0" type="line"/>
      <point x="53.0" y="112.0" type="line"/>
    </contour>
    <contour>
      <point x="487.0" y="79.0" type="line"/>
      <point x="53.0" y="79.0" type="line"/>
      <point x="53.0" y="0.0" type="line"/>
      <point x="487.0" y="0.0" type="line"/>
    </contour>
  </outline>
</glyph>
<glyph name="lozenge" format="2">
  <advance width="540.0"/>
  <unicode hex="25CA"/>
  <outline>
    <contour>
      <point x="496.0" y="248.0" type="line"/>
      <point x="311.0" y="674.0" type="line"/>
      <point x="230.0" y="674.0" type="line"/>
      <point x="45.0" y="248.0" type="line"/>
      <point x="230.0" y="-178.0" type="line"/>
      <point x="311.0" y="-178.0" type="line"/>
    </contour>
    <contour>
      <point x="408.0" y="248.0" type="line"/>
      <point x="270.0" y="-78.0" type="line"/>
      <point x="132.0" y="248.0" type="line"/>
      <point x="270.0" y="575.0" type="line"/>
    </contour>
  </outline>
</glyph>
<glyph name="fi" format="2">
  <advance width="579.0"/>
  <unicode hex="FB01"/>
  <note>
    f_i
  </note>
  <outline>
    <contour>
      <point x="24.15799448551911" y="0.0" type="line"/>
      <point x="267.1579944855191" y="0.0" type="line"/>
      <point x="270.1579944855191" y="43.0" type="line"/>
      <point x="203.1579944855191" y="59.0" type="line"/>
      <point x="202.1579944855191" y="80.0"/>
      <point x="198.15799448551914" y="124.99999999999991"/>
      <point x="198.1579944855191" y="224.0" type="curve" smooth="yes"/>
      <point x="198.1579944855191" y="435.0" type="line"/>
      <point x="198.1579944855191" y="484.0" type="line"/>
      <point x="198.1579944855191" y="576.3990923489284"/>
      <point x="246.98333942495174" y="647.2331871345036"/>
      <point x="322.4622928849908" y="647.2331871345036" type="curve" smooth="yes"/>
      <point x="361.9435916179341" y="647.2331871345036"/>
      <point x="370.13176241662336" y="585.9979293434376"/>
      <point x="371.5317608114633" y="562.1979566311597" type="curve"/>
      <point x="378.53175278566255" y="558.4646275782534"/>
      <point x="395.6188170077978" y="554.3360136452247"/>
      <point x="410.7146076998056" y="554.3360136452247" type="curve" smooth="yes"/>
      <point x="443.64256994643944" y="554.3360136452247"/>
      <point x="486.1935611598444" y="572.1413052306698"/>
      <point x="486.1935611598444" y="611.2355324074083" type="curve" smooth="yes"/>
      <point x="486.1935611598444" y="645.9235293254995"/>
      <point x="460.4599476120868" y="698.0"/>
      <point x="358.4599476120861" y="698.0" type="curve" smooth="yes"/>
      <point x="190.0838206627684" y="698.0"/>
      <point x="86.15799448551911" y="603.0"/>
      <point x="86.15799448551911" y="463.0" type="curve" smooth="yes"/>
      <point x="86.15799448551911" y="202.0" type="line" smooth="yes"/>
      <point x="86.15799448551913" y="111.00000000000003"/>
      <point x="85.15799448551911" y="67.0"/>
      <point x="83.15799448551911" y="59.0" type="curve"/>
      <point x="21.15799448551911" y="43.0" type="line"/>
    </contour>
    <contour>
      <point x="311.0" y="0.0" type="line"/>
      <point x="563.0" y="0.0" type="line"/>
      <point x="566.0" y="44.0" type="line"/>
      <point x="499.0" y="59.0" type="line"/>
      <point x="496.0" y="71.0"/>
      <point x="494.0" y="119.0"/>
      <point x="494.0" y="164.0" type="curve" smooth="yes"/>
      <point x="494.0" y="291.0" type="line" smooth="yes"/>
      <point x="494.0" y="351.0"/>
      <point x="496.230281066124" y="381.4301077088303"/>
      <point x="499.230281066124" y="430.4301077088303" type="curve"/>
      <point x="478.3983049509068" y="443.8700922992932" type="line"/>
      <point x="373.566425145297" y="434.46210308596915" type="line"/>
      <point x="153.0" y="435.0" type="line"/>
      <point x="87.0" y="437.0" type="line"/>
      <point x="14.0" y="418.0" type="line"/>
      <point x="14.0" y="376.0" type="line"/>
      <point x="373.0" y="376.0" type="line"/>
      <point x="377.0" y="345.0"/>
      <point x="382.0" y="314.0"/>
      <point x="381.0" y="262.0" type="curve" smooth="yes"/>
      <point x="380.0" y="161.0" type="line" smooth="yes"/>
      <point x="380.0" y="116.0"/>
      <point x="378.0" y="74.0"/>
      <point x="375.0" y="59.0" type="curve"/>
      <point x="308.0" y="44.0" type="line"/>
    </contour>
  </outline>
</glyph>
<glyph name="T_h" format="2">
  <advance width="1051.0"/>
  <note>
T_h
</note>
  <outline>
    <contour>
      <point x="974.0" y="59.0" type="line"/>
      <point x="971.0" y="72.0"/>
      <point x="969.0" y="115.0"/>
      <point x="969.0" y="161.0" type="curve" smooth="yes"/>
      <point x="969.0" y="265.0" type="line" smooth="yes"/>
      <point x="969.0" y="381.0"/>
      <point x="902.0" y="444.0"/>
      <point x="821.0" y="444.0" type="curve" smooth="yes"/>
      <point x="768.0" y="444.0"/>
      <point x="719.0" y="419.0"/>
      <point x="676.0" y="369.0" type="curve"/>
      <point x="673.0" y="370.0" type="line"/>
      <point x="675.0" y="475.0"/>
      <point x="675.0" y="513.0"/>
      <point x="678.0" y="594.0" type="curve"/>
      <point x="644.0" y="591.0"/>
      <point x="594.0" y="587.0"/>
      <point x="550.0" y="587.0" type="curve" smooth="yes"/>
      <point x="163.0" y="587.0" type="line" smooth="yes"/>
      <point x="127.0" y="587.0"/>
      <point x="68.0" y="590.0"/>
      <point x="36.0" y="592.0" type="curve"/>
      <point x="15.0" y="419.0" type="line"/>
      <point x="71.0" y="413.0" type="line"/>
      <point x="110.0" y="529.0" type="line"/>
      <point x="126.0" y="531.0"/>
      <point x="138.0" y="532.0"/>
      <point x="154.0" y="532.0" type="curve" smooth="yes"/>
      <point x="190.0" y="532.0" type="line" smooth="yes"/>
      <point x="203.0" y="532.0"/>
      <point x="223.0" y="532.0"/>
      <point x="234.0" y="529.0" type="curve"/>
      <point x="235.0" y="514.0"/>
      <point x="236.0" y="420.0"/>
      <point x="236.0" y="338.0" type="curve" smooth="yes"/>
      <point x="236.0" y="231.0" type="line" smooth="yes"/>
      <point x="236.0" y="153.0"/>
      <point x="234.0" y="87.0"/>
      <point x="233.0" y="61.0" type="curve"/>
      <point x="147.0" y="48.0" type="line"/>
      <point x="150.0" y="0.0" type="line"/>
      <point x="442.0" y="0.0" type="line"/>
      <point x="445.0" y="48.0" type="line"/>
      <point x="359.0" y="61.0" type="line"/>
      <point x="358.0" y="87.0"/>
      <point x="356.0" y="153.0"/>
      <point x="356.0" y="231.0" type="curve" smooth="yes"/>
      <point x="356.0" y="338.0" type="line" smooth="yes"/>
      <point x="356.0" y="426.0"/>
      <point x="357.0" y="516.0"/>
      <point x="358.0" y="530.0" type="curve"/>
      <point x="372.0" y="532.0"/>
      <point x="394.0" y="532.0"/>
      <point x="409.0" y="532.0" type="curve" smooth="yes"/>
      <point x="502.0" y="532.0" type="line" smooth="yes"/>
      <point x="521.0" y="532.0"/>
      <point x="544.0" y="529.0"/>
      <point x="559.0" y="527.0" type="curve"/>
      <point x="561.0" y="498.0"/>
      <point x="564.0" y="448.0"/>
      <point x="564.0" y="361.0" type="curve" smooth="yes"/>
      <point x="564.0" y="235.0" type="line" smooth="yes"/>
      <point x="564.0" y="154.0"/>
      <point x="561.0" y="76.0"/>
      <point x="558.0" y="59.0" type="curve"/>
      <point x="496.0" y="43.0" type="line"/>
      <point x="499.0" y="0.0" type="line"/>
      <point x="739.0" y="0.0" type="line"/>
      <point x="742.0" y="43.0" type="line"/>
      <point x="681.0" y="59.0" type="line"/>
      <point x="677.0" y="69.0"/>
      <point x="675.0" y="114.0"/>
      <point x="675.0" y="164.0" type="curve" smooth="yes"/>
      <point x="675.0" y="312.0" type="line"/>
      <point x="699.0" y="344.0"/>
      <point x="733.0" y="361.0"/>
      <point x="769.0" y="361.0" type="curve" smooth="yes"/>
      <point x="816.0" y="361.0"/>
      <point x="858.0" y="328.0"/>
      <point x="858.0" y="250.0" type="curve" smooth="yes"/>
      <point x="858.0" y="158.0" type="line" smooth="yes"/>
      <point x="858.0" y="115.0"/>
      <point x="856.0" y="74.0"/>
      <point x="853.0" y="59.0" type="curve"/>
      <point x="796.0" y="43.0" type="line"/>
      <point x="799.0" y="0.0" type="line"/>
      <point x="1033.0" y="0.0" type="line"/>
      <point x="1036.0" y="43.0" type="line"/>
    </contour>
  </outline>
</glyph>
<glyph name="acutecomb.case" format="2">
  <note>
acutecomb.cap
</note>
  <anchor x="300.0" y="660.0" name="_top"/>
  <anchor x="300.0" y="871.0" name="top"/>
  <outline>
    <contour>
      <point x="327.0" y="707.0" type="line"/>
      <point x="460.0" y="834.0" type="line"/>
      <point x="358.0" y="857.0" type="line"/>
      <point x="273.0" y="725.0" type="line"/>
    </contour>
  </outline>
</glyph>
<glyph name="acutecomb_dotaccentcomb" format="2">
  <anchor x="300.0" y="436.0" name="_top"/>
  <outline>
    <contour>
      <point x="326.0" y="483.0" type="line"/>
      <point x="477.0" y="654.0" type="line"/>
      <point x="373.0" y="677.0" type="line"/>
      <point x="274.0" y="500.0" type="line"/>
    </contour>
    <contour>
      <point x="285.0" y="671.0" type="curve" smooth="yes"/>
      <point x="322.0" y="671.0"/>
      <point x="345.0" y="698.0"/>
      <point x="345.0" y="729.0" type="curve" smooth="yes"/>
      <point x="345.0" y="761.0"/>
      <point x="322.0" y="788.0"/>
      <point x="285.0" y="788.0" type="curve" smooth="yes"/>
      <point x="247.0" y="788.0"/>
      <point x="224.0" y="761.0"/>
      <point x="224.0" y="729.0" type="curve" smooth="yes"/>
      <point x="224.0" y="698.0"/>
      <point x="247.0" y="671.0"/>
    </contour>
  </outline>
</glyph>
<glyph name="brevecomb.case" format="2">
  <note>
uni0306.cap
</note>
  <anchor x="300.0" y="660.0" name="_top"/>
  <anchor x="300.0" y="871.0" name="top"/>
  <outline>
    <contour>
      <point x="428.0" y="852.0" type="line"/>
      <point x="415.0" y="814.0"/>
      <point x="368.0" y="789.0"/>
      <point x="304.0" y="789.0" type="curve" smooth="yes"/>
      <point x="239.0" y="789.0"/>
      <point x="192.0" y="814.0"/>
      <point x="178.0" y="852.0" type="curve"/>
      <point x="122.0" y="834.0" type="line"/>
      <point x="137.0" y="761.0"/>
      <point x="209.0" y="717.0"/>
      <point x="301.0" y="717.0" type="curve" smooth="yes"/>
      <point x="393.0" y="717.0"/>
      <point x="463.0" y="761.0"/>
      <point x="478.0" y="834.0" type="curve"/>
    </contour>
  </outline>
</glyph>
<glyph name="brevecomb_acutecomb.case" format="2">
  <anchor x="300.0" y="660.0" name="_top"/>
  <outline>
    <contour>
      <point x="316.0" y="825.0" type="line"/>
      <point x="449.0" y="952.0" type="line"/>
      <point x="347.0" y="975.0" type="line"/>
      <point x="262.0" y="843.0" type="line"/>
    </contour>
    <contour>
      <point x="428.0" y="852.0" type="line"/>
      <point x="415.0" y="814.0"/>
      <point x="368.0" y="789.0"/>
      <point x="304.0" y="789.0" type="curve" smooth="yes"/>
      <point x="239.0" y="789.0"/>
      <point x="192.0" y="814.0"/>
      <point x="178.0" y="852.0" type="curve"/>
      <point x="122.0" y="834.0" type="line"/>
      <point x="137.0" y="761.0"/>
      <point x="209.0" y="717.0"/>
      <point x="301.0" y="717.0" type="curve" smooth="yes"/>
      <point x="393.0" y="717.0"/>
      <point x="463.0" y="761.0"/>
      <point x="478.0" y="834.0" type="curve"/>
    </contour>
  </outline>
</glyph>
<glyph name="brevecomb_hookabovecomb.case" format="2">
  <anchor x="300.0" y="660.0" name="_top"/>
  <outline>
    <contour>
      <point x="302.0" y="975.0" type="curve" smooth="yes"/>
      <point x="241.0" y="975.0"/>
      <point x="202.0" y="948.0"/>
      <point x="202.0" y="920.0" type="curve" smooth="yes"/>
      <point x="202.0" y="904.0"/>
      <point x="213.0" y="893.0"/>
      <point x="231.0" y="893.0" type="curve" smooth="yes"/>
      <point x="247.0" y="893.0"/>
      <point x="255.0" y="899.0"/>
      <point x="269.0" y="912.0" type="curve" smooth="yes"/>
      <point x="307.0" y="951.0" type="line"/>
      <point x="268.0" y="939.0" type="line"/>
      <point x="302.0" y="947.0"/>
      <point x="325.0" y="944.0"/>
      <point x="325.0" y="915.0" type="curve" smooth="yes"/>
      <point x="325.0" y="888.0"/>
      <point x="280.0" y="871.0"/>
      <point x="280.0" y="832.0" type="curve" smooth="yes"/>
      <point x="280.0" y="818.0" type="line"/>
      <point x="320.0" y="818.0" type="line"/>
      <point x="320.0" y="857.0"/>
      <point x="405.0" y="856.0"/>
      <point x="405.0" y="912.0" type="curve" smooth="yes"/>
      <point x="405.0" y="953.0"/>
      <point x="365.0" y="975.0"/>
    </contour>
    <contour>
      <point x="301.0" y="717.0" type="curve" smooth="yes"/>
      <point x="393.0" y="717.0"/>
      <point x="463.0" y="761.0"/>
      <point x="478.0" y="834.0" type="curve"/>
      <point x="428.0" y="852.0" type="line"/>
      <point x="415.0" y="814.0"/>
      <point x="368.0" y="789.0"/>
      <point x="304.0" y="789.0" type="curve" smooth="yes"/>
      <point x="239.0" y="789.0"/>
      <point x="192.0" y="814.0"/>
      <point x="178.0" y="852.0" type="curve"/>
      <point x="122.0" y="834.0" type="line"/>
      <point x="137.0" y="761.0"/>
      <point x="209.0" y="717.0"/>
    </contour>
  </outline>
</glyph>
<glyph name="brevecomb_hookabovecomb" format="2">
  <anchor x="300.0" y="436.0" name="_top"/>
  <outline>
    <contour>
      <point x="398.0" y="657.0" type="line"/>
      <point x="388.0" y="606.0"/>
      <point x="353.0" y="568.0"/>
      <point x="303.0" y="568.0" type="curve" smooth="yes"/>
      <point x="254.0" y="568.0"/>
      <point x="219.0" y="606.0"/>
      <point x="208.0" y="657.0" type="curve"/>
      <point x="152.0" y="639.0" type="line"/>
      <point x="156.0" y="556.0"/>
      <point x="216.0" y="492.0"/>
      <point x="301.0" y="492.0" type="curve" smooth="yes"/>
      <point x="386.0" y="492.0"/>
      <point x="444.0" y="556.0"/>
      <point x="448.0" y="639.0" type="curve"/>
    </contour>
    <contour>
      <point x="302.0" y="790.0" type="curve" smooth="yes"/>
      <point x="241.0" y="790.0"/>
      <point x="202.0" y="763.0"/>
      <point x="202.0" y="735.0" type="curve" smooth="yes"/>
      <point x="202.0" y="718.0"/>
      <point x="213.0" y="708.0"/>
      <point x="231.0" y="708.0" type="curve" smooth="yes"/>
      <point x="247.0" y="708.0"/>
      <point x="255.0" y="713.0"/>
      <point x="269.0" y="727.0" type="curve" smooth="yes"/>
      <point x="307.0" y="766.0" type="line"/>
      <point x="268.0" y="753.0" type="line"/>
      <point x="302.0" y="762.0"/>
      <point x="325.0" y="758.0"/>
      <point x="325.0" y="730.0" type="curve" smooth="yes"/>
      <point x="325.0" y="702.0"/>
      <point x="280.0" y="681.0"/>
      <point x="280.0" y="635.0" type="curve" smooth="yes"/>
      <point x="280.0" y="618.0" type="line"/>
      <point x="320.0" y="618.0" type="line"/>
      <point x="320.0" y="664.0"/>
      <point x="405.0" y="664.0"/>
      <point x="405.0" y="726.0" type="curve" smooth="yes"/>
      <point x="405.0" y="767.0"/>
      <point x="365.0" y="790.0"/>
    </contour>
  </outline>
</glyph>
<glyph name="brevecomb_tildecomb.case" format="2">
  <anchor x="300.0" y="660.0" name="_top"/>
  <outline>
    <contour>
      <point x="301.0" y="717.0" type="curve" smooth="yes"/>
      <point x="393.0" y="717.0"/>
      <point x="463.0" y="761.0"/>
      <point x="478.0" y="834.0" type="curve"/>
      <point x="427.0" y="852.0" type="line"/>
      <point x="415.0" y="814.0"/>
      <point x="368.0" y="789.0"/>
      <point x="304.0" y="789.0" type="curve" smooth="yes"/>
      <point x="238.0" y="789.0"/>
      <point x="192.0" y="814.0"/>
      <point x="177.0" y="852.0" type="curve"/>
      <point x="121.0" y="834.0" type="line"/>
      <point x="136.0" y="761.0"/>
      <point x="209.0" y="717.0"/>
    </contour>
    <contour>
      <point x="369.0" y="863.0" type="curve" smooth="yes"/>
      <point x="419.0" y="863.0"/>
      <point x="459.0" y="897.0"/>
      <point x="481.0" y="954.0" type="curve"/>
      <point x="444.0" y="975.0" type="line"/>
      <point x="426.0" y="952.0"/>
      <point x="408.0" y="939.0"/>
      <point x="383.0" y="939.0" type="curve" smooth="yes"/>
      <point x="341.0" y="939.0"/>
      <point x="281.0" y="976.0"/>
      <point x="231.0" y="976.0" type="curve" smooth="yes"/>
      <point x="180.0" y="976.0"/>
      <point x="140.0" y="942.0"/>
      <point x="119.0" y="885.0" type="curve"/>
      <point x="155.0" y="864.0" type="line"/>
      <point x="173.0" y="887.0"/>
      <point x="190.0" y="901.0"/>
      <point x="217.0" y="901.0" type="curve" smooth="yes"/>
      <point x="258.0" y="901.0"/>
      <point x="319.0" y="863.0"/>
    </contour>
  </outline>
</glyph>
